<svg width="31" height="30" viewBox="0 0 31 30" fill="none" xmlns="http://www.w3.org/2000/svg">
<path fill-rule="evenodd" clip-rule="evenodd" d="M15.7998 30C24.0841 30 30.7998 23.2843 30.7998 15C30.7998 6.71573 24.0841 0 15.7998 0C7.51553 0 0.799805 6.71573 0.799805 15C0.799805 23.2843 7.51553 30 15.7998 30ZM18.9458 6.75183C20.5179 7.01766 22.0213 7.48516 23.4238 8.11766C23.436 8.12254 23.4461 8.13165 23.4522 8.14333C25.9373 11.7385 27.1638 15.7957 26.7054 20.4652C26.7043 20.475 26.7012 20.4845 26.6961 20.4931C26.6911 20.5016 26.6842 20.509 26.6761 20.5147C25.0092 21.729 23.1491 22.6529 21.1743 23.2472C21.1603 23.2514 21.1455 23.2512 21.1317 23.2466C21.1179 23.242 21.1059 23.2333 21.0973 23.2216C20.682 22.6523 20.3043 22.0528 19.9743 21.4231C19.9698 21.4144 19.9673 21.4049 19.9667 21.3951C19.9662 21.3853 19.9678 21.3756 19.9713 21.3664C19.9749 21.3573 19.9804 21.3491 19.9874 21.3423C19.9944 21.3354 20.0027 21.3302 20.0119 21.3268C20.6105 21.105 21.1807 20.8382 21.7288 20.5229C21.7386 20.5171 21.7468 20.509 21.7527 20.4992C21.7585 20.4895 21.7619 20.4785 21.7624 20.4671C21.763 20.4557 21.7607 20.4444 21.7558 20.4342C21.7509 20.4239 21.7435 20.415 21.7343 20.4083C21.6179 20.3231 21.5033 20.2342 21.3933 20.1443C21.3833 20.1363 21.3711 20.1313 21.3583 20.1298C21.3455 20.1284 21.3326 20.1305 21.3209 20.1361C17.7633 21.7531 13.8648 21.7531 10.265 20.1361C10.2534 20.1308 10.2406 20.1289 10.228 20.1305C10.2153 20.1322 10.2034 20.1372 10.1935 20.1452C10.0835 20.2342 9.96801 20.3231 9.85251 20.4083C9.84343 20.4152 9.83619 20.4242 9.83144 20.4345C9.82669 20.4449 9.82459 20.4562 9.82532 20.4676C9.82604 20.479 9.82958 20.49 9.8356 20.4996C9.84163 20.5093 9.84996 20.5173 9.85984 20.5229C10.4099 20.8356 10.9837 21.1047 11.5758 21.3277C11.6143 21.3424 11.6327 21.3864 11.6134 21.4231C11.2908 22.0537 10.9131 22.6542 10.4896 23.2225C10.4806 23.2337 10.4685 23.242 10.4548 23.2463C10.441 23.2505 10.4263 23.2506 10.4126 23.2463C8.44115 22.6503 6.58404 21.7269 4.91901 20.5147C4.9111 20.5086 4.9045 20.501 4.89962 20.4924C4.89473 20.4837 4.89166 20.4741 4.89059 20.4642C4.50651 16.4254 5.28843 12.3352 8.14109 8.1415C8.14812 8.13045 8.15835 8.12181 8.17043 8.11675C9.57384 7.48333 11.0772 7.01583 12.6483 6.75C12.6625 6.74775 12.6771 6.74988 12.69 6.7561C12.7029 6.76232 12.7137 6.77235 12.7208 6.78483C12.9301 7.14987 13.1189 7.52628 13.2863 7.91233C14.9537 7.66321 16.6488 7.66321 18.3161 7.91233C18.4664 7.564 18.6809 7.12308 18.8734 6.78483C18.8806 6.7725 18.8914 6.7627 18.9044 6.75679C18.9174 6.75087 18.9318 6.74914 18.9458 6.75183ZM10.1743 15.8232C10.1743 17.0249 11.068 18.0048 12.1515 18.0048C13.2524 18.0048 14.1288 17.0258 14.1288 15.8232C14.1462 14.6287 13.2607 13.6415 12.1515 13.6415C11.0506 13.6415 10.1743 14.6205 10.1743 15.8232ZM17.4847 15.8232C17.4847 17.0249 18.3775 18.0048 19.4619 18.0048C20.572 18.0048 21.4392 17.0258 21.4392 15.8232C21.4566 14.6287 20.5711 13.6415 19.4619 13.6415C18.3601 13.6415 17.4847 14.6205 17.4847 15.8232Z" fill="#919191"/>
</svg>
