<svg width="31" height="30" viewBox="0 0 31 30" fill="none" xmlns="http://www.w3.org/2000/svg">
<path fill-rule="evenodd" clip-rule="evenodd" d="M15.7998 30C24.0841 30 30.7998 23.2843 30.7998 15C30.7998 6.71573 24.0841 0 15.7998 0C7.51553 0 0.799805 6.71573 0.799805 15C0.799805 23.2843 7.51553 30 15.7998 30ZM3.79978 15C3.79978 8.37001 9.16978 3.00001 15.7998 3.00001C22.4298 3.00001 27.7998 8.37001 27.7998 15C27.7991 17.5143 27.0099 19.9651 25.5434 22.0074C24.077 24.0497 22.007 25.5807 19.6248 26.385C19.0248 26.505 18.7998 26.13 18.7998 25.815C18.7998 25.6796 18.8015 25.4452 18.8037 25.1332C18.8081 24.5121 18.8148 23.5833 18.8148 22.515C18.8148 21.39 18.4398 20.67 18.0048 20.295C20.6748 19.995 23.4798 18.975 23.4798 14.37C23.4798 13.05 23.0148 11.985 22.2498 11.145C22.3698 10.845 22.7898 9.61501 22.1298 7.96501C22.1298 7.96501 21.1248 7.63501 18.8298 9.19501C17.8698 8.92501 16.8498 8.79001 15.8298 8.79001C14.8098 8.79001 13.7898 8.92501 12.8298 9.19501C10.5348 7.65001 9.52978 7.96501 9.52978 7.96501C8.86978 9.61501 9.28978 10.845 9.40978 11.145C8.64478 11.985 8.17978 13.065 8.17978 14.37C8.17978 18.96 10.9698 19.995 13.6398 20.295C13.2948 20.595 12.9798 21.12 12.8748 21.9C12.1848 22.215 10.4598 22.725 9.37978 20.91C9.15478 20.55 8.47978 19.665 7.53478 19.68C6.52978 19.695 7.12978 20.25 7.54978 20.475C8.05978 20.76 8.64478 21.825 8.77978 22.17C9.01978 22.845 9.79978 24.135 12.8148 23.58C12.8148 24.2358 12.8212 24.866 12.8256 25.304C12.828 25.5373 12.8298 25.716 12.8298 25.815C12.8298 26.13 12.6048 26.49 12.0048 26.385C7.23478 24.795 3.79978 20.31 3.79978 15Z" fill="#919191"/>
</svg>
