<svg width="357" height="148" viewBox="0 0 357 148" fill="none" xmlns="http://www.w3.org/2000/svg">
<circle cx="53" cy="55" r="36" fill="white"/>
<g filter="url(#filter0_dd)">
<path fill-rule="evenodd" clip-rule="evenodd" d="M98 3.8147e-06L98 130L53 110L8 130L8.00001 0L98 3.8147e-06ZM35.9146 56.3142H44.229C43.2973 56.9804 42.4778 57.6081 41.7338 58.178C39.3505 60.0036 37.7421 61.2356 35.7006 61.2356C32.8971 61.0035 33.7032 58.6106 34.3987 57.2571C34.5391 56.9745 34.7552 56.7367 35.023 56.5701C35.2907 56.4036 35.5995 56.315 35.9146 56.3142ZM27.7359 78.9249H36.6959C36.7294 78.9306 36.7639 78.9227 36.7917 78.9029C36.8194 78.8832 36.8382 78.8532 36.8439 78.8195C36.8496 78.7859 36.8417 78.7514 36.8219 78.7236C36.8022 78.6958 36.7722 78.677 36.7387 78.6713C34.1642 77.9072 31.6586 76.9276 29.2482 75.7428C29.1785 75.7082 29.1022 75.689 29.0244 75.6865C28.9467 75.6841 28.8693 75.6984 28.7976 75.7286C28.7258 75.7588 28.6614 75.804 28.6087 75.8613C28.556 75.9186 28.5162 75.9866 28.492 76.0606L27.611 78.7535C27.6049 78.7732 27.6035 78.794 27.6068 78.8143C27.6102 78.8347 27.6183 78.854 27.6304 78.8706C27.6425 78.8873 27.6584 78.9009 27.6767 78.9103C27.695 78.9197 27.7153 78.9247 27.7359 78.9249ZM70.3635 56.3142H62.0527C62.9819 56.9773 63.7989 57.6014 64.5402 58.1677L64.5404 58.1678C66.9293 59.9926 68.5332 61.2178 70.5775 61.2178C73.3811 60.9856 72.575 58.5928 71.8795 57.2392C71.7369 56.9597 71.5198 56.7253 71.2522 56.562C70.9845 56.3987 70.6769 56.3129 70.3635 56.3142ZM78.546 78.9249H69.586C69.5524 78.9311 69.5178 78.9236 69.4897 78.9042C69.4616 78.8848 69.4424 78.855 69.4362 78.8213C69.4301 78.7877 69.4375 78.753 69.4569 78.7249C69.4763 78.6968 69.5061 78.6775 69.5396 78.6713C72.114 77.907 74.6196 76.9273 77.0301 75.7428C77.1001 75.7082 77.1766 75.689 77.2546 75.6865C77.3326 75.684 77.4102 75.6983 77.4823 75.7285C77.5543 75.7586 77.619 75.8038 77.672 75.8611C77.7251 75.9184 77.7653 75.9865 77.7898 76.0606L78.6709 78.7535C78.6778 78.7732 78.6799 78.7943 78.6769 78.815C78.6739 78.8356 78.6659 78.8553 78.6536 78.8721C78.6413 78.889 78.6251 78.9027 78.6063 78.9119C78.5876 78.9211 78.5669 78.9255 78.546 78.9249ZM80.9144 56.6892C72.5656 68.37 67.8021 64.6522 63.2743 61.1185C61.1709 59.4768 59.1184 57.8749 56.7809 57.8749C53.8953 57.8749 53.1356 60.2071 53.1356 61.2321C53.1356 60.2071 52.3794 57.8749 49.4938 57.8749C47.1549 57.8749 45.1017 59.4772 42.9979 61.119C38.47 64.6526 33.7075 68.3694 25.3567 56.6892C25.1213 75.4499 42.9379 79.9035 53.132 68.1499C63.3333 79.8856 81.1498 75.4499 80.9144 56.6892ZM75.2966 51.6785C76.5914 51.1213 78.1073 50.3928 79.477 49.6571C79.5996 49.5919 79.6957 49.4861 79.7491 49.3577C79.8024 49.2294 79.8096 49.0865 79.7694 48.9535C79.6054 48.4071 79.2986 47.4356 78.8563 46.3642C78.8249 46.2873 78.7779 46.2178 78.7183 46.16C78.6587 46.1023 78.5877 46.0575 78.5099 46.0287C78.4321 45.9998 78.3492 45.9874 78.2664 45.9923C78.1836 45.9972 78.1027 46.0192 78.0288 46.0571C76.6948 46.7321 75.6319 47.2142 74.6403 47.6321V39.5142C74.6392 39.3718 74.5888 39.2342 74.4976 39.1249C71.8754 36.003 68.6069 33.4889 64.9184 31.7567C61.2299 30.0245 57.2095 29.1156 53.1356 29.0928C49.0621 29.1154 45.0421 30.0242 41.3542 31.7565C37.6663 33.4887 34.3985 36.0029 31.7771 39.1249C31.681 39.232 31.6265 39.3702 31.6237 39.5142V47.6213C30.6321 47.2035 29.5692 46.7213 28.2387 46.0463C28.1646 46.0085 28.0835 45.9864 28.0004 45.9815C27.9173 45.9765 27.8341 45.9889 27.756 46.0177C27.678 46.0466 27.6067 46.0913 27.5468 46.1491C27.4868 46.2069 27.4394 46.2765 27.4077 46.3535C26.9654 47.4321 26.6586 48.3963 26.4945 48.9428C26.452 49.0769 26.4576 49.2217 26.5103 49.3521C26.5631 49.4825 26.6597 49.5904 26.7835 49.6571C28.1674 50.3928 29.6833 51.1213 30.9781 51.6785C31.4032 51.8602 31.8606 51.9537 32.3228 51.9535H73.9519C74.4141 51.954 74.8716 51.8605 75.2966 51.6785Z" fill="#747376"/>
</g>
<path d="M310.326 43.1251H305.276C304.834 43.1121 304.415 42.93 304.107 42.6177C303.8 42.3053 303.629 41.8874 303.631 41.4531V38.1744C303.631 37.9538 303.675 37.7353 303.761 37.5314C303.847 37.3276 303.973 37.1425 304.132 36.9866C304.291 36.8307 304.48 36.7071 304.688 36.623C304.896 36.5388 305.118 36.4957 305.343 36.4961H310.326V21.3789C310.326 21.1972 310.362 21.0172 310.433 20.8493C310.503 20.6814 310.607 20.5289 310.739 20.4007C310.87 20.2725 311.025 20.1711 311.197 20.1023C311.368 20.0336 311.551 19.9988 311.736 20H315.671C316.031 20 316.376 20.1404 316.63 20.3902C316.885 20.64 317.028 20.9788 317.028 21.3321V36.4961H321.979C322.444 36.4944 322.892 36.6729 323.224 36.9929C323.556 37.3129 323.747 37.7486 323.754 38.2056V41.4375C323.754 41.8851 323.573 42.3143 323.251 42.6308C322.929 42.9473 322.492 43.1251 322.036 43.1251H317.018V56.3208C317.015 57.1898 317.186 58.0509 317.521 58.8549C317.857 59.659 318.351 60.3902 318.974 61.0067C319.598 61.6232 320.339 62.1129 321.155 62.448C321.972 62.783 322.847 62.9567 323.732 62.9591V69.5101C321.813 69.5377 319.91 69.1556 318.155 68.3902C317.609 68.15 313.496 66.2814 311.46 61.7924C310.682 60.0726 310.287 58.209 310.304 56.327C310.342 51.9846 310.297 47.4582 310.326 43.1251Z" fill="#747376"/>
<path d="M219.226 49.7196C218.453 45.9912 216.392 42.6398 213.391 40.2333C210.391 37.8267 206.635 36.513 202.761 36.5147C201.627 36.5141 200.496 36.6259 199.385 36.8484C196.163 37.5009 193.206 39.0666 190.88 41.3519C188.553 43.6372 186.96 46.542 186.296 49.7072C186.07 50.8069 185.959 51.9263 185.963 53.0482V84.9485C185.963 85.2273 186.076 85.4947 186.277 85.6919C186.477 85.889 186.749 85.9998 187.033 85.9998H191.616C191.896 85.999 192.165 85.8892 192.362 85.6944C192.56 85.4997 192.671 85.236 192.671 84.961V66.2438C194.655 67.7141 196.949 68.7299 199.385 69.2167C200.15 69.375 200.926 69.4792 201.707 69.5287H203.813C204.582 69.4852 205.347 69.3872 206.102 69.2354C209.905 68.4796 213.323 66.4543 215.777 63.5035C218.232 60.5527 219.57 56.8584 219.566 53.0482C219.567 51.9302 219.453 50.815 219.226 49.7196V49.7196ZM212.283 56.3143C211.781 57.716 210.965 58.9892 209.896 60.0399C208.826 61.0905 207.53 61.8919 206.102 62.3849C205.289 62.6677 204.441 62.8439 203.581 62.909C203.308 62.934 203.034 62.9433 202.761 62.9433C202.488 62.9433 202.212 62.9433 201.942 62.909C199.847 62.7391 197.858 61.9297 196.254 60.5943C194.651 59.2589 193.512 57.4643 192.999 55.4618C192.485 53.4594 192.622 51.3493 193.391 49.4271C194.159 47.5049 195.52 45.8669 197.283 44.7424C199.047 43.6179 201.124 43.0632 203.224 43.1561C205.325 43.2489 207.343 43.9846 208.996 45.2602C210.65 46.5357 211.855 48.2872 212.445 50.2694C213.034 52.2516 212.978 54.3653 212.283 56.3143V56.3143Z" fill="#747376"/>
<path d="M256.186 49.7201C255.353 45.7104 253.032 42.1479 249.675 39.7239C246.318 37.3 242.164 36.1874 238.019 36.6021C233.874 37.0168 230.033 38.9292 227.243 41.9683C224.452 45.0073 222.91 48.9562 222.917 53.0486V84.9489C222.917 85.2278 223.03 85.4952 223.231 85.6923C223.431 85.8895 223.703 86.0002 223.987 86.0002H228.574C228.712 86.0002 228.85 85.9734 228.978 85.9212C229.107 85.869 229.223 85.7924 229.321 85.696C229.42 85.5995 229.498 85.485 229.551 85.359C229.604 85.2329 229.631 85.0978 229.631 84.9614V66.2442C231.616 67.7145 233.91 68.7303 236.345 69.2171C237.111 69.3754 237.887 69.4796 238.667 69.5291H240.773C241.542 69.4854 242.308 69.3874 243.063 69.2359C246.866 68.4832 250.287 66.4587 252.741 63.5071C255.195 60.5555 256.532 56.8595 256.523 53.0486C256.524 51.9308 256.411 50.8158 256.186 49.7201V49.7201ZM249.243 56.3148C248.741 57.7161 247.925 58.989 246.855 60.0396C245.785 61.0902 244.49 61.8918 243.063 62.3854C242.248 62.6684 241.399 62.8446 240.538 62.9094C240.268 62.9344 239.995 62.9438 239.718 62.9438C239.442 62.9438 239.172 62.9438 238.899 62.9094C236.804 62.7389 234.816 61.929 233.212 60.5933C231.609 59.2575 230.471 57.4628 229.958 55.4604C229.445 53.4579 229.583 51.348 230.352 49.4261C231.12 47.5042 232.481 45.8665 234.245 44.7423C236.008 43.6181 238.085 43.0637 240.186 43.1568C242.286 43.2498 244.304 43.9856 245.957 45.2612C247.61 46.5367 248.816 48.2882 249.405 50.2703C249.994 52.2523 249.938 54.3658 249.243 56.3148V56.3148Z" fill="#747376"/>
<path d="M303.065 49.7103C302.811 48.556 302.462 47.4642 301.985 46.4036C301.477 45.2181 300.81 44.1263 300.016 43.1281C300.016 43.1281 300.016 43.1281 299.984 43.0969C299.031 41.849 297.92 40.7572 296.649 39.8214C296.618 39.8214 296.618 39.7902 296.586 39.7902C294.712 38.3552 292.425 37.3257 289.948 36.8266C288.868 36.6394 287.756 36.5146 286.613 36.5146C285.47 36.5146 284.326 36.6394 283.246 36.8578C280.801 37.3569 278.514 38.3864 276.577 39.7902C276.545 39.7902 276.545 39.8214 276.513 39.8214C275.243 40.7572 274.131 41.849 273.178 43.0969C273.178 43.0969 273.178 43.0969 273.146 43.1281C272.384 44.1263 271.717 45.2493 271.177 46.4036C270.764 47.433 270.383 48.556 270.161 49.7103C269.939 50.7709 269.812 51.8627 269.812 53.017V53.0482C269.812 54.1712 269.939 55.263 270.129 56.3237C270.351 57.4779 270.733 58.5697 271.177 59.6304C271.685 60.8158 272.352 61.9076 273.115 62.9059C273.115 62.9059 273.115 62.9059 273.115 62.9371C274.067 64.1849 275.211 65.3079 276.481 66.2438C278.419 67.6788 280.705 68.7082 283.183 69.2073C283.945 69.3633 284.707 69.4569 285.501 69.5193H287.598C288.392 69.4881 289.154 69.3633 289.884 69.2385C292.362 68.7394 294.68 67.71 296.618 66.275C297.888 65.3391 299.031 64.2161 299.984 62.9683C299.984 62.9683 299.984 62.9683 299.984 62.9371C300.429 62.3444 300.873 61.6893 301.223 61.0342C301.572 60.4103 301.096 59.6616 300.397 59.6616H294.934C294.458 59.6616 294.013 59.8488 293.664 60.1607C292.616 61.159 291.345 61.9388 289.948 62.438C289.154 62.7187 288.296 62.9059 287.439 62.9683C287.343 62.9683 287.248 62.9683 287.153 62.9995C286.962 62.9995 286.803 62.9995 286.613 62.9995C286.422 62.9995 286.264 62.9995 286.073 62.9995C285.978 62.9995 285.882 62.9995 285.787 62.9683C284.898 62.9059 284.04 62.7187 283.246 62.438C281.626 61.8764 280.197 60.9094 279.086 59.6928C278.228 58.7257 277.529 57.6339 277.085 56.3861H301.445C302.43 56.3861 303.256 55.6374 303.351 54.6703C303.414 54.14 303.414 53.6409 303.414 53.1106V53.0794C303.414 51.8627 303.287 50.7709 303.065 49.7103ZM277.116 49.7103C277.307 49.2111 277.561 48.5872 277.974 47.9321C278.196 47.5578 278.577 46.9963 279.149 46.3724C280.261 45.1558 281.69 44.2199 283.278 43.6584C284.326 43.284 285.47 43.0969 286.645 43.0969C287.82 43.0969 288.931 43.284 289.98 43.6584C291.599 44.2199 293.029 45.1558 294.14 46.3724C294.839 47.1211 295.411 47.9945 295.855 48.9304C296.014 49.2735 295.76 49.6791 295.379 49.6791C289.249 49.7103 283.183 49.7103 277.116 49.7103Z" fill="#747376"/>
<path d="M138.891 21.0762V39.834C136.876 38.3487 134.547 37.3275 132.075 36.8459C129.604 36.3642 127.055 36.4345 124.615 37.0514C122.175 37.6684 119.908 38.8163 117.981 40.4101C116.053 42.004 114.516 44.003 113.481 46.2594C112.447 48.5157 111.943 50.9716 112.005 53.4454C112.068 55.9191 112.696 58.3474 113.843 60.5505C114.99 62.7537 116.627 64.6753 118.632 66.1733C120.637 67.6712 122.96 68.7071 125.428 69.2044C126.185 69.3594 126.952 69.4636 127.724 69.5163H129.88C133.145 69.315 136.278 68.1772 138.891 66.244V68.5586C138.892 68.8129 138.995 69.0565 139.179 69.236C139.362 69.4155 139.61 69.5163 139.869 69.5163H144.525C144.812 69.5163 145.087 69.4047 145.29 69.2059C145.493 69.0071 145.608 68.7373 145.608 68.4557V21.1511C145.608 20.9999 145.578 20.8503 145.519 20.7106C145.46 20.5709 145.374 20.444 145.265 20.3372C145.156 20.2303 145.027 20.1455 144.885 20.0876C144.743 20.0298 144.59 20 144.436 20H139.99C139.699 20 139.42 20.1133 139.214 20.315C139.008 20.5168 138.892 20.7905 138.891 21.0762V21.0762ZM138.326 56.327C137.824 57.7287 137.008 59.0018 135.938 60.0525C134.868 61.1032 133.572 61.9046 132.145 62.3976C131.332 62.6803 130.484 62.8565 129.623 62.9217C129.35 62.9466 129.077 62.956 128.804 62.956C128.531 62.956 128.254 62.956 127.984 62.9217C125.889 62.7532 123.9 61.9455 122.295 60.6115C120.691 59.2775 119.551 57.484 119.036 55.4822C118.521 53.4804 118.656 51.3705 119.422 49.4478C120.189 47.5251 121.548 45.886 123.31 44.7598C125.072 43.6337 127.149 43.077 129.249 43.1676C131.349 43.2583 133.368 43.9917 135.022 45.2653C136.677 46.5388 137.885 48.2887 138.477 50.27C139.068 52.2513 139.014 54.3648 138.322 56.3145L138.326 56.327Z" fill="#747376"/>
<path d="M265.397 20H261.097C260.43 20 259.89 20.5307 259.89 21.1854V68.3184C259.89 68.9731 260.43 69.5039 261.097 69.5039H265.397C266.064 69.5039 266.604 68.9731 266.604 68.3184V21.1854C266.604 20.5307 266.064 20 265.397 20Z" fill="#747376"/>
<path d="M182.254 49.7199C181.749 47.2962 180.696 45.0149 179.173 43.0446C177.65 41.0743 175.695 39.4655 173.454 38.337C171.213 37.2086 168.742 36.5893 166.224 36.5251C163.706 36.4609 161.205 36.9533 158.907 37.9659C156.609 38.9786 154.572 40.4856 152.947 42.3755C151.322 44.2655 150.15 46.4901 149.517 48.8848C148.885 51.2795 148.809 53.7832 149.295 56.2107C149.78 58.6382 150.815 60.9275 152.323 62.9093C153.283 64.1678 154.419 65.2863 155.699 66.2316C157.684 67.702 159.98 68.7177 162.416 69.2045C163.182 69.3628 163.958 69.467 164.738 69.5165H166.841C167.609 69.4732 168.373 69.3752 169.127 69.2232C171.576 68.7397 173.883 67.7215 175.877 66.2441V68.3186C175.877 68.4761 175.908 68.6322 175.97 68.7777C176.031 68.9232 176.121 69.0554 176.235 69.1667C176.348 69.278 176.483 69.3662 176.632 69.4262C176.78 69.4862 176.939 69.5169 177.099 69.5165H181.416C181.728 69.5165 182.028 69.3945 182.249 69.1775C182.47 68.9604 182.594 68.6661 182.594 68.3591V53.0485C182.595 51.9305 182.481 50.8153 182.254 49.7199V49.7199ZM175.311 56.3146C174.808 57.7162 173.992 58.9894 172.923 60.0405C171.853 61.0915 170.557 61.8938 169.131 62.3883C168.318 62.6692 167.471 62.8443 166.612 62.9093C166.339 62.9343 166.066 62.9436 165.792 62.9436C165.519 62.9436 165.243 62.9436 164.973 62.9093C164.106 62.8409 163.252 62.6616 162.432 62.3759C160.19 61.5943 158.302 60.0597 157.1 58.0432C155.898 56.0267 155.46 53.6579 155.863 51.3551C156.267 49.0523 157.486 46.9635 159.305 45.4577C161.124 43.9518 163.426 43.1257 165.805 43.1252C167.417 43.1257 169.006 43.5053 170.438 44.2322C171.87 44.9591 173.104 46.0122 174.037 47.3034C174.969 48.5947 175.574 50.0866 175.8 51.6543C176.025 53.222 175.865 54.82 175.333 56.3146H175.311Z" fill="#747376"/>
<path d="M327.111 59.8429C327.109 59.7736 327.13 59.7056 327.172 59.6495C327.195 59.6236 327.224 59.603 327.257 59.589C327.289 59.575 327.324 59.568 327.359 59.5684H333.394C333.484 59.5691 333.571 59.6006 333.64 59.6576C333.709 59.7145 333.755 59.7933 333.772 59.8803V59.8803C334.407 62.8189 336.63 64.544 340.759 64.544C344.793 64.544 347.21 62.9094 347.21 60.3358V60.3046C347.21 58.2457 346.031 57.0665 342.528 56.2492L337.196 55.07C330.993 53.6756 327.921 50.7713 327.921 46.1357V46.1076C327.921 40.4144 333.003 36.5088 340.511 36.5088C348.232 36.5088 352.898 40.717 353.216 46.1357C353.22 46.1818 353.215 46.2283 353.2 46.2723C353.185 46.3162 353.161 46.3566 353.129 46.391C353.097 46.4253 353.059 46.4528 353.016 46.4717C352.973 46.4906 352.926 46.5004 352.879 46.5007H347.346C347.241 46.5009 347.138 46.4649 347.057 46.3988C346.976 46.3327 346.921 46.2407 346.902 46.1388C346.757 45.2485 346.39 44.4072 345.834 43.69C344.005 41.3565 340.892 41.5406 340.505 41.5406C336.91 41.5406 334.645 43.2064 334.645 45.7488V45.78C334.645 47.7485 335.979 49.0805 339.482 49.8978L344.786 51.077C345.32 51.1082 350.605 51.4981 352.952 55.5629C353.694 56.8296 354.055 58.2768 353.994 59.7368C353.857 62.4851 351.656 64.8685 351.218 65.3302C347.616 69.1173 342.42 69.4854 340.486 69.4916C337.523 69.4877 334.616 68.7012 332.069 67.2144C330.386 66.2649 329.003 64.8778 328.071 63.2058C327.478 62.1776 327.149 61.0236 327.111 59.8429V59.8429Z" fill="#747376"/>
<path d="M120.848 101.008H114.608L113.264 104H112.032L117.152 92.8H118.32L123.44 104H122.192L120.848 101.008ZM120.416 100.048L117.728 94.032L115.04 100.048H120.416ZM131.81 104.096C130.36 104.096 129.229 103.68 128.418 102.848C127.608 102.016 127.202 100.805 127.202 99.216V92.8H128.386V99.168C128.386 100.469 128.68 101.44 129.266 102.08C129.853 102.72 130.701 103.04 131.81 103.04C132.93 103.04 133.784 102.72 134.37 102.08C134.957 101.44 135.25 100.469 135.25 99.168V92.8H136.402V99.216C136.402 100.805 135.997 102.016 135.186 102.848C134.386 103.68 133.261 104.096 131.81 104.096ZM150.098 98.4H151.234V102.672C150.712 103.131 150.093 103.483 149.378 103.728C148.664 103.973 147.912 104.096 147.122 104.096C146.002 104.096 144.994 103.851 144.098 103.36C143.202 102.869 142.498 102.192 141.986 101.328C141.474 100.453 141.218 99.4773 141.218 98.4C141.218 97.3227 141.474 96.352 141.986 95.488C142.498 94.6133 143.202 93.9307 144.098 93.44C144.994 92.9493 146.008 92.704 147.138 92.704C147.992 92.704 148.776 92.8427 149.49 93.12C150.205 93.3867 150.808 93.7867 151.298 94.32L150.562 95.072C149.677 94.1973 148.552 93.76 147.186 93.76C146.28 93.76 145.458 93.9627 144.722 94.368C143.997 94.7627 143.426 95.3173 143.01 96.032C142.594 96.736 142.386 97.5253 142.386 98.4C142.386 99.2747 142.594 100.064 143.01 100.768C143.426 101.472 143.997 102.027 144.722 102.432C145.448 102.837 146.264 103.04 147.17 103.04C148.322 103.04 149.298 102.752 150.098 102.176V98.4ZM168.457 92.8V104H167.321V95.04L162.921 102.576H162.361L157.961 95.088V104H156.825V92.8H157.801L162.665 101.104L167.481 92.8H168.457ZM182.266 102.976V104H174.346V92.8H182.026V93.824H175.53V97.808H181.322V98.816H175.53V102.976H182.266ZM196.65 92.8V104H195.674L188.474 94.912V104H187.29V92.8H188.266L195.482 101.888V92.8H196.65ZM204.721 93.824H200.785V92.8H209.841V93.824H205.905V104H204.721V93.824ZM220.434 101.008H214.194L212.85 104H211.618L216.738 92.8H217.906L223.026 104H221.778L220.434 101.008ZM220.002 100.048L217.314 94.032L214.626 100.048H220.002ZM228.732 93.824H224.796V92.8H233.852V93.824H229.916V104H228.732V93.824ZM237.984 92.8H239.168V104H237.984V92.8ZM249.948 104.096C248.839 104.096 247.831 103.851 246.924 103.36C246.028 102.859 245.324 102.176 244.812 101.312C244.311 100.448 244.06 99.4773 244.06 98.4C244.06 97.3227 244.311 96.352 244.812 95.488C245.324 94.624 246.028 93.9467 246.924 93.456C247.831 92.9547 248.839 92.704 249.948 92.704C251.057 92.704 252.055 92.9493 252.94 93.44C253.836 93.9307 254.54 94.6133 255.052 95.488C255.564 96.352 255.82 97.3227 255.82 98.4C255.82 99.4773 255.564 100.453 255.052 101.328C254.54 102.192 253.836 102.869 252.94 103.36C252.055 103.851 251.057 104.096 249.948 104.096ZM249.948 103.04C250.833 103.04 251.633 102.843 252.348 102.448C253.063 102.043 253.623 101.488 254.028 100.784C254.433 100.069 254.636 99.2747 254.636 98.4C254.636 97.5253 254.433 96.736 254.028 96.032C253.623 95.3173 253.063 94.7627 252.348 94.368C251.633 93.9627 250.833 93.76 249.948 93.76C249.063 93.76 248.257 93.9627 247.532 94.368C246.817 94.7627 246.252 95.3173 245.836 96.032C245.431 96.736 245.228 97.5253 245.228 98.4C245.228 99.2747 245.431 100.069 245.836 100.784C246.252 101.488 246.817 102.043 247.532 102.448C248.257 102.843 249.063 103.04 249.948 103.04ZM270.074 92.8V104H269.098L261.898 94.912V104H260.714V92.8H261.69L268.906 101.888V92.8H270.074ZM285.485 104.096C284.653 104.096 283.853 103.963 283.085 103.696C282.328 103.429 281.741 103.077 281.325 102.64L281.789 101.728C282.194 102.133 282.733 102.464 283.405 102.72C284.077 102.965 284.77 103.088 285.485 103.088C286.488 103.088 287.24 102.907 287.741 102.544C288.242 102.171 288.493 101.691 288.493 101.104C288.493 100.656 288.354 100.299 288.077 100.032C287.81 99.7653 287.48 99.5627 287.085 99.424C286.69 99.2747 286.141 99.1147 285.437 98.944C284.594 98.7307 283.922 98.528 283.421 98.336C282.92 98.1333 282.488 97.8293 282.125 97.424C281.773 97.0187 281.597 96.4693 281.597 95.776C281.597 95.2107 281.746 94.6987 282.045 94.24C282.344 93.7707 282.802 93.3973 283.421 93.12C284.04 92.8427 284.808 92.704 285.725 92.704C286.365 92.704 286.989 92.7947 287.597 92.976C288.216 93.1467 288.749 93.3867 289.197 93.696L288.797 94.64C288.328 94.3307 287.826 94.1013 287.293 93.952C286.76 93.792 286.237 93.712 285.725 93.712C284.744 93.712 284.002 93.904 283.501 94.288C283.01 94.6613 282.765 95.1467 282.765 95.744C282.765 96.192 282.898 96.5547 283.165 96.832C283.442 97.0987 283.784 97.3067 284.189 97.456C284.605 97.5947 285.16 97.7493 285.853 97.92C286.674 98.1227 287.336 98.3253 287.837 98.528C288.349 98.72 288.781 99.0187 289.133 99.424C289.485 99.8187 289.661 100.357 289.661 101.04C289.661 101.605 289.506 102.123 289.197 102.592C288.898 103.051 288.434 103.419 287.805 103.696C287.176 103.963 286.402 104.096 285.485 104.096ZM298.087 100.128V104H296.919V100.128L292.439 92.8H293.703L297.543 99.088L301.383 92.8H302.567L298.087 100.128ZM309.496 104.096C308.664 104.096 307.864 103.963 307.096 103.696C306.339 103.429 305.752 103.077 305.336 102.64L305.8 101.728C306.206 102.133 306.744 102.464 307.416 102.72C308.088 102.965 308.782 103.088 309.496 103.088C310.499 103.088 311.251 102.907 311.752 102.544C312.254 102.171 312.504 101.691 312.504 101.104C312.504 100.656 312.366 100.299 312.088 100.032C311.822 99.7653 311.491 99.5627 311.096 99.424C310.702 99.2747 310.152 99.1147 309.448 98.944C308.606 98.7307 307.934 98.528 307.432 98.336C306.931 98.1333 306.499 97.8293 306.136 97.424C305.784 97.0187 305.608 96.4693 305.608 95.776C305.608 95.2107 305.758 94.6987 306.056 94.24C306.355 93.7707 306.814 93.3973 307.432 93.12C308.051 92.8427 308.819 92.704 309.736 92.704C310.376 92.704 311 92.7947 311.608 92.976C312.227 93.1467 312.76 93.3867 313.208 93.696L312.808 94.64C312.339 94.3307 311.838 94.1013 311.304 93.952C310.771 93.792 310.248 93.712 309.736 93.712C308.755 93.712 308.014 93.904 307.512 94.288C307.022 94.6613 306.776 95.1467 306.776 95.744C306.776 96.192 306.91 96.5547 307.176 96.832C307.454 97.0987 307.795 97.3067 308.2 97.456C308.616 97.5947 309.171 97.7493 309.864 97.92C310.686 98.1227 311.347 98.3253 311.848 98.528C312.36 98.72 312.792 99.0187 313.144 99.424C313.496 99.8187 313.672 100.357 313.672 101.04C313.672 101.605 313.518 102.123 313.208 102.592C312.91 103.051 312.446 103.419 311.816 103.696C311.187 103.963 310.414 104.096 309.496 104.096ZM320.512 93.824H316.576V92.8H325.632V93.824H321.696V104H320.512V93.824ZM337.683 102.976V104H329.763V92.8H337.443V93.824H330.947V97.808H336.739V98.816H330.947V102.976H337.683ZM354.339 92.8V104H353.203V95.04L348.803 102.576H348.243L343.843 95.088V104H342.707V92.8H343.683L348.547 101.104L353.363 92.8H354.339Z" fill="#919191"/>
<defs>
<filter id="filter0_dd" x="0" y="-1" width="106" height="149" filterUnits="userSpaceOnUse" color-interpolation-filters="sRGB">
<feFlood flood-opacity="0" result="BackgroundImageFix"/>
<feColorMatrix in="SourceAlpha" type="matrix" values="0 0 0 0 0 0 0 0 0 0 0 0 0 0 0 0 0 0 127 0" result="hardAlpha"/>
<feOffset dy="10"/>
<feGaussianBlur stdDeviation="4"/>
<feColorMatrix type="matrix" values="0 0 0 0 0.150486 0 0 0 0 0.458846 0 0 0 0 0.820833 0 0 0 0.04 0"/>
<feBlend mode="normal" in2="BackgroundImageFix" result="effect1_dropShadow"/>
<feColorMatrix in="SourceAlpha" type="matrix" values="0 0 0 0 0 0 0 0 0 0 0 0 0 0 0 0 0 0 127 0" result="hardAlpha"/>
<feOffset dy="3"/>
<feGaussianBlur stdDeviation="2"/>
<feColorMatrix type="matrix" values="0 0 0 0 0 0 0 0 0 0 0 0 0 0 0 0 0 0 0.09 0"/>
<feBlend mode="normal" in2="effect1_dropShadow" result="effect2_dropShadow"/>
<feBlend mode="normal" in="SourceGraphic" in2="effect2_dropShadow" result="shape"/>
</filter>
</defs>
</svg>
