<svg xmlns="http://www.w3.org/2000/svg" width="228" height="64" viewBox="0 0 228 64" fill="none">
<path d="M186.853 22.4988H182.095C181.678 22.4862 181.283 22.3111 180.994 22.0105C180.704 21.71 180.543 21.308 180.545 20.8901V17.7357C180.545 17.5234 180.587 17.3132 180.668 17.1171C180.749 16.921 180.868 16.7429 181.018 16.5929C181.167 16.4429 181.345 16.3241 181.541 16.2431C181.736 16.1621 181.946 16.1206 182.158 16.121H186.853V1.57684C186.852 1.40201 186.886 1.22884 186.953 1.06732C187.02 0.905803 187.118 0.759138 187.241 0.635797C187.365 0.512456 187.511 0.414882 187.673 0.348712C187.834 0.282541 188.007 0.249085 188.181 0.250275H191.889C192.228 0.250275 192.553 0.385294 192.792 0.625631C193.032 0.865968 193.166 1.19193 193.166 1.53182V16.121H197.831C198.27 16.1194 198.691 16.2911 199.004 16.599C199.317 16.9068 199.497 17.326 199.504 17.7657V20.8751C199.504 21.3057 199.333 21.7187 199.03 22.0232C198.726 22.3277 198.315 22.4988 197.885 22.4988H193.157V35.1942C193.154 36.0302 193.315 36.8587 193.632 37.6323C193.948 38.4059 194.413 39.1093 195.001 39.7025C195.588 40.2956 196.286 40.7668 197.055 41.0891C197.825 41.4114 198.65 41.5785 199.483 41.5809V47.8836C197.674 47.9101 195.882 47.5425 194.229 46.8061C193.714 46.575 189.839 44.7773 187.921 40.4584C187.188 38.8038 186.816 37.0108 186.832 35.2002C186.868 31.0224 186.826 26.6675 186.853 22.4988Z" fill="#02193A"/>
<path d="M101.025 28.8436C100.297 25.2565 98.3551 22.0321 95.5281 19.7168C92.7011 17.4015 89.163 16.1376 85.5133 16.1392C84.445 16.1386 83.3793 16.2462 82.3325 16.4603C79.2966 17.088 76.5107 18.5944 74.3191 20.793C72.1276 22.9917 70.6264 25.7864 70.0013 28.8316C69.7882 29.8896 69.683 30.9666 69.6871 32.0459V62.737C69.6871 63.0053 69.7934 63.2625 69.9825 63.4522C70.1716 63.6419 70.4281 63.7485 70.6955 63.7485H75.0134C75.2771 63.7477 75.5298 63.642 75.716 63.4547C75.9023 63.2673 76.0068 63.0136 76.0068 62.749V44.7414C77.8764 46.1559 80.0377 47.1332 82.3325 47.6016C83.0536 47.7538 83.7845 47.8541 84.5199 47.9017H86.5037C87.2287 47.8599 87.9497 47.7656 88.6612 47.6196C92.2433 46.8924 95.4641 44.9438 97.7763 42.1049C100.089 39.266 101.35 35.7117 101.345 32.0459C101.347 30.9704 101.24 29.8975 101.025 28.8436ZM94.4841 35.1883C94.0113 36.5369 93.2425 37.7618 92.2347 38.7726C91.2269 39.7834 90.0057 40.5545 88.6612 41.0288C87.8947 41.3008 87.0959 41.4703 86.2853 41.533C86.028 41.557 85.7706 41.566 85.5133 41.566C85.256 41.566 84.9956 41.566 84.7413 41.533C82.7672 41.3695 80.8936 40.5908 79.3828 39.306C77.8719 38.0212 76.7995 36.2947 76.3157 34.3681C75.832 32.4415 75.961 30.4115 76.6849 28.5621C77.4087 26.7128 78.6911 25.1369 80.3525 24.055C82.0138 22.9731 83.9708 22.4395 85.9496 22.5288C87.9284 22.6181 89.8297 23.326 91.3875 24.5532C92.9452 25.7804 94.0812 27.4655 94.6365 29.3725C95.1918 31.2796 95.1385 33.3131 94.4841 35.1883Z" fill="#02193A"/>
<path d="M135.846 28.8433C135.061 24.9857 132.875 21.5582 129.712 19.2261C126.549 16.8941 122.635 15.8237 118.73 16.2227C114.825 16.6216 111.206 18.4616 108.577 21.3854C105.948 24.3092 104.496 28.1084 104.502 32.0457V62.7368C104.502 63.005 104.608 63.2623 104.798 63.452C104.987 63.6417 105.243 63.7482 105.511 63.7482H109.831C109.962 63.7482 110.092 63.7224 110.213 63.6722C110.334 63.6219 110.444 63.5483 110.536 63.4555C110.629 63.3627 110.702 63.2525 110.752 63.1313C110.802 63.01 110.828 62.8801 110.828 62.7488V44.7411C112.697 46.1557 114.859 47.133 117.154 47.6013C117.875 47.7536 118.606 47.8539 119.341 47.9015H121.325C122.05 47.8595 122.771 47.7652 123.482 47.6194C127.066 46.8952 130.288 44.9474 132.6 42.1077C134.913 39.2681 136.172 35.7121 136.164 32.0457C136.164 30.9703 136.058 29.8975 135.846 28.8433ZM129.305 35.1881C128.832 36.5363 128.063 37.7609 127.055 38.7717C126.047 39.7824 124.826 40.5537 123.482 41.0285C122.715 41.3008 121.915 41.4704 121.103 41.5328C120.849 41.5568 120.592 41.5658 120.331 41.5658C120.071 41.5658 119.817 41.5658 119.559 41.5328C117.586 41.3686 115.712 40.5895 114.202 39.3044C112.691 38.0193 111.62 36.2926 111.136 34.366C110.653 32.4395 110.782 30.4096 111.507 28.5605C112.231 26.7115 113.513 25.1359 115.175 24.0543C116.836 22.9727 118.793 22.4393 120.772 22.5289C122.75 22.6184 124.651 23.3263 126.209 24.5535C127.766 25.7807 128.902 27.4657 129.458 29.3727C130.013 31.2796 129.959 33.313 129.305 35.1881Z" fill="#02193A"/>
<path d="M180.013 28.8346C179.773 27.7241 179.444 26.6737 178.995 25.6532C178.516 24.5127 177.888 23.4623 177.14 22.5019C177.14 22.5019 177.14 22.5019 177.11 22.4719C176.212 21.2713 175.165 20.2209 173.968 19.3205C173.938 19.3205 173.938 19.2905 173.908 19.2905C172.143 17.9099 169.988 16.9195 167.654 16.4393C166.637 16.2592 165.59 16.1392 164.513 16.1392C163.435 16.1392 162.358 16.2592 161.341 16.4693C159.037 16.9495 156.882 17.9399 155.057 19.2905C155.027 19.2905 155.027 19.3205 154.997 19.3205C153.8 20.2209 152.753 21.2713 151.855 22.4719C151.855 22.4719 151.855 22.4719 151.825 22.5019C151.107 23.4623 150.479 24.5427 149.97 25.6532C149.581 26.6436 149.222 27.7241 149.013 28.8346C148.803 29.855 148.683 30.9055 148.683 32.0159V32.0459C148.683 33.1264 148.803 34.1769 148.983 35.1973C149.192 36.3078 149.551 37.3582 149.97 38.3786C150.449 39.5191 151.077 40.5696 151.795 41.53C151.795 41.53 151.795 41.53 151.795 41.56C152.693 42.7605 153.77 43.841 154.967 44.7414C156.792 46.1219 158.947 47.1124 161.281 47.5926C161.999 47.7426 162.717 47.8327 163.465 47.8927H165.44C166.188 47.8627 166.906 47.7426 167.595 47.6226C169.929 47.1424 172.113 46.152 173.938 44.7714C175.135 43.871 176.212 42.7905 177.11 41.59C177.11 41.59 177.11 41.59 177.11 41.56C177.529 40.9898 177.948 40.3595 178.277 39.7292C178.606 39.129 178.157 38.4087 177.499 38.4087H172.352C171.903 38.4087 171.485 38.5887 171.155 38.8889C170.168 39.8493 168.971 40.5996 167.654 41.0798C166.906 41.3499 166.098 41.53 165.291 41.59C165.201 41.59 165.111 41.59 165.021 41.62C164.842 41.62 164.692 41.62 164.513 41.62C164.333 41.62 164.183 41.62 164.004 41.62C163.914 41.62 163.824 41.62 163.735 41.59C162.897 41.53 162.089 41.3499 161.341 41.0798C159.815 40.5396 158.468 39.6092 157.421 38.4387C156.613 37.5083 155.955 36.4578 155.536 35.2573H178.486C179.414 35.2573 180.192 34.537 180.282 33.6066C180.342 33.0964 180.342 32.6162 180.342 32.106V32.076C180.342 30.9055 180.222 29.855 180.013 28.8346ZM155.566 28.8346C155.745 28.3544 155.985 27.7541 156.374 27.1238C156.583 26.7637 156.942 26.2235 157.481 25.6232C158.528 24.4527 159.874 23.5523 161.371 23.0121C162.358 22.6519 163.435 22.4719 164.542 22.4719C165.65 22.4719 166.697 22.6519 167.684 23.0121C169.21 23.5523 170.557 24.4527 171.604 25.6232C172.263 26.3435 172.801 27.1839 173.22 28.0843C173.37 28.4144 173.13 28.8046 172.771 28.8046C166.996 28.8346 161.281 28.8346 155.566 28.8346Z" fill="#02193A"/>
<path d="M25.3386 1.28593V19.3326C23.4401 17.9037 21.2456 16.9212 18.9174 16.4578C16.5893 15.9944 14.187 16.062 11.8884 16.6556C9.58984 17.2491 7.45371 18.3535 5.6381 19.8869C3.8225 21.4204 2.37388 23.3436 1.39943 25.5145C0.424974 27.6853 -0.0503804 30.0481 0.00854164 32.428C0.0674637 34.808 0.659147 37.1442 1.73982 39.2639C2.8205 41.3835 4.3625 43.2323 6.25175 44.6734C8.141 46.1146 10.3291 47.1113 12.6543 47.5897C13.3678 47.7388 14.0906 47.8391 14.8177 47.8898H16.8495C19.9253 47.6961 22.877 46.6014 25.3386 44.7415V46.9684C25.3394 47.2131 25.4368 47.4474 25.6096 47.6201C25.7823 47.7928 26.0163 47.8898 26.2602 47.8898H30.6469C30.917 47.8898 31.176 47.7824 31.3673 47.5911C31.5586 47.3998 31.6664 47.1403 31.6672 46.8694V1.35796C31.6672 1.21253 31.6387 1.06851 31.5832 0.934149C31.5277 0.799784 31.4464 0.677698 31.3438 0.574859C31.2413 0.472021 31.1196 0.390445 30.9856 0.33479C30.8517 0.279134 30.7081 0.250488 30.5631 0.250488H26.3739C26.0998 0.250487 25.8369 0.359482 25.6429 0.553579C25.4488 0.747676 25.3394 1.01104 25.3386 1.28593ZM24.8059 35.2004C24.333 36.549 23.5643 37.7739 22.5565 38.7847C21.5487 39.7956 20.3275 40.5666 18.983 41.0409C18.2165 41.3129 17.4177 41.4824 16.6071 41.5451C16.3498 41.5691 16.0924 41.5781 15.8351 41.5781C15.5777 41.5781 15.3174 41.5781 15.0631 41.5451C13.0891 41.3831 11.2151 40.6059 9.70339 39.3225C8.19169 38.0391 7.11797 36.3136 6.63258 34.3877C6.14719 32.4617 6.27443 30.4318 6.99647 28.582C7.71852 26.7322 8.99922 25.1552 10.6593 24.0717C12.3193 22.9883 14.2756 22.4527 16.2543 22.5399C18.2329 22.6271 20.1348 23.3327 21.6938 24.558C23.2527 25.7833 24.3906 27.4669 24.9481 29.3731C25.5056 31.2792 25.4549 33.3126 24.8029 35.1884L24.8059 35.2004Z" fill="#02193A"/>
<path d="M144.524 0.250244H140.473C139.845 0.250244 139.335 0.760857 139.335 1.39073V46.7371C139.335 47.3669 139.845 47.8775 140.473 47.8775H144.524C145.152 47.8775 145.661 47.3669 145.661 46.7371V1.39073C145.661 0.760857 145.152 0.250244 144.524 0.250244Z" fill="#02193A"/>
<path d="M66.1921 28.8436C65.7166 26.5117 64.7246 24.3168 63.2895 22.4213C61.8545 20.5257 60.013 18.9778 57.9013 17.8922C55.7895 16.8065 53.4615 16.2107 51.0893 16.1489C48.7171 16.0871 46.3614 16.5609 44.1963 17.5351C42.0312 18.5094 40.1121 19.9593 38.5809 21.7776C37.0496 23.5959 35.9454 25.7361 35.3499 28.0401C34.7543 30.344 34.6826 32.7528 35.1401 35.0883C35.5975 37.4238 36.5725 39.6263 37.9929 41.533C38.8973 42.7437 39.9682 43.8199 41.1736 44.7293C43.0443 46.1439 45.2066 47.1212 47.5023 47.5895C48.2234 47.7418 48.9544 47.8421 49.6897 47.8897H51.6706C52.3946 47.848 53.1146 47.7538 53.825 47.6075C56.132 47.1423 58.3051 46.1628 60.1836 44.7413V46.7372C60.1836 46.8888 60.2134 47.0389 60.2713 47.1789C60.3293 47.3189 60.4142 47.4461 60.5212 47.5532C60.6282 47.6602 60.7552 47.7451 60.895 47.8028C61.0347 47.8605 61.1845 47.8901 61.3356 47.8897H65.4021C65.6966 47.8897 65.9789 47.7724 66.1871 47.5635C66.3953 47.3547 66.5123 47.0715 66.5123 46.7762V32.0459C66.5136 30.9704 66.4064 29.8974 66.1921 28.8436ZM59.651 35.1883C59.1773 36.5368 58.4084 37.7616 57.4007 38.7729C56.393 39.7841 55.1722 40.556 53.828 41.0317C53.0622 41.3019 52.2645 41.4704 51.4551 41.533C51.1978 41.557 50.9404 41.566 50.6831 41.566C50.4258 41.566 50.1654 41.566 49.9111 41.533C49.0943 41.4672 48.2895 41.2946 47.5173 41.0197C45.405 40.2678 43.6256 38.7914 42.4932 36.8513C41.3608 34.9113 40.9482 32.6323 41.3284 30.4167C41.7085 28.2012 42.8569 26.1917 44.5708 24.7429C46.2846 23.2941 48.4537 22.4993 50.6951 22.4988C52.2138 22.4993 53.7103 22.8645 55.0595 23.5638C56.4087 24.2632 57.5713 25.2764 58.4502 26.5187C59.329 27.761 59.8985 29.1963 60.1111 30.7046C60.3236 32.2129 60.1731 33.7503 59.6719 35.1883H59.651Z" fill="#02193A"/>
<path d="M202.667 38.5826C202.665 38.516 202.685 38.4505 202.724 38.3965C202.746 38.3717 202.773 38.3518 202.804 38.3384C202.834 38.3249 202.867 38.3181 202.9 38.3185H208.586C208.671 38.3192 208.753 38.3496 208.818 38.4043C208.882 38.4591 208.926 38.5349 208.942 38.6186C209.54 41.4458 211.635 43.1056 215.525 43.1056C219.325 43.1056 221.602 41.5329 221.602 39.0568V39.0268C221.602 37.046 220.492 35.9115 217.191 35.1252L212.167 33.9907C206.323 32.6491 203.43 29.8549 203.43 25.395V25.368C203.43 19.8907 208.218 16.1331 215.291 16.1331C222.566 16.1331 226.961 20.1818 227.26 25.395C227.265 25.4394 227.26 25.4841 227.245 25.5264C227.231 25.5687 227.209 25.6076 227.179 25.6406C227.149 25.6737 227.113 25.7001 227.072 25.7183C227.032 25.7364 226.988 25.7459 226.943 25.7462H221.731C221.631 25.7464 221.535 25.7118 221.458 25.6481C221.382 25.5845 221.33 25.496 221.312 25.398C221.176 24.5415 220.83 23.7321 220.306 23.042C218.583 20.797 215.65 20.9741 215.285 20.9741C211.898 20.9741 209.765 22.5768 209.765 25.0228V25.0529C209.765 26.9467 211.021 28.2282 214.322 29.0145L219.319 30.149C219.822 30.179 224.801 30.5542 227.012 34.4649C227.711 35.6835 228.051 37.0759 227.994 38.4806C227.865 41.1247 225.791 43.4177 225.378 43.8619C221.985 47.5054 217.09 47.8596 215.267 47.8656C212.476 47.8619 209.737 47.1051 207.338 45.6746C205.752 44.7612 204.449 43.4267 203.571 41.818C203.013 40.8289 202.702 39.7186 202.667 38.5826Z" fill="#02193A"/>
</svg>
