<svg width="31" height="30" viewBox="0 0 31 30" fill="none" xmlns="http://www.w3.org/2000/svg">
<path fill-rule="evenodd" clip-rule="evenodd" d="M30.7998 15C30.7998 23.2838 24.0836 30 15.7998 30C7.51606 30 0.799805 23.2838 0.799805 15C0.799805 6.71625 7.51606 0 15.7998 0C24.0836 0 30.7998 6.71625 30.7998 15ZM16.3373 11.0738C14.8786 11.68 11.9623 12.9362 7.5898 14.8413C6.87981 15.1237 6.5073 15.4 6.47355 15.67C6.41605 16.1275 6.98855 16.3075 7.76605 16.5513C7.8723 16.585 7.9823 16.6187 8.0948 16.6562C8.86105 16.905 9.89106 17.1962 10.4261 17.2075C10.9123 17.2175 11.4548 17.0175 12.0536 16.6075C16.1386 13.8488 18.2473 12.455 18.3798 12.425C18.4736 12.4037 18.6036 12.3762 18.6911 12.455C18.7786 12.5325 18.7698 12.68 18.7611 12.72C18.7036 12.9612 16.4611 15.0475 15.2986 16.1275C14.9361 16.4638 14.6798 16.7025 14.6273 16.7575C14.5098 16.8787 14.3898 16.995 14.2748 17.1063C13.5623 17.7913 13.0298 18.3062 14.3048 19.1462C14.9173 19.55 15.4073 19.8838 15.8961 20.2163C16.4298 20.58 16.9623 20.9425 17.6523 21.395C17.8273 21.51 17.9948 21.6287 18.1586 21.745C18.7798 22.1887 19.3386 22.5862 20.0286 22.5237C20.4286 22.4862 20.8436 22.11 21.0536 20.9862C21.5498 18.3287 22.5273 12.5738 22.7536 10.2013C22.7673 10.0043 22.7589 9.80636 22.7286 9.61125C22.7104 9.45366 22.6336 9.30866 22.5136 9.205C22.3348 9.05875 22.0573 9.0275 21.9323 9.03C21.3686 9.04 20.5036 9.34125 16.3373 11.0738Z" fill="#919191"/>
</svg>
