<svg width="38" height="28" viewBox="0 0 38 28" fill="none" xmlns="http://www.w3.org/2000/svg">
<g clip-path="url(#clip0_19_68)">
<path d="M17.2831 11.129C16.3693 11.3036 15.5208 11.6482 14.7748 12.1271L12.7747 10.2071L10.7932 12.1092L12.7934 14.0291C12.2945 14.7496 11.9355 15.5642 11.7537 16.4413H8.92365V19.131H11.749C11.9355 20.0082 12.2945 20.8227 12.7887 21.5433L10.7886 23.4632L12.77 25.3697L14.7702 23.4498C15.5161 23.9242 16.3693 24.2688 17.2785 24.4478V27.1644H20.0852V24.4478C20.999 24.2688 21.8475 23.9287 22.5982 23.4498L24.5983 25.3697L26.5798 23.4632L24.5796 21.5433C25.0785 20.8227 25.4375 20.0082 25.6193 19.131H28.4447V16.4413H25.6193C25.4328 15.5642 25.0738 14.7496 24.5796 14.0291L26.5798 12.1092L24.5983 10.2071L22.5982 12.1271C21.8522 11.6527 20.999 11.3036 20.0852 11.129V8.41249H17.2785V11.129H17.2831Z" fill="white"/>
<path d="M17.824 11.9122C16.9568 12.0778 16.1502 12.409 15.4369 12.861L13.5347 11.0395L11.6511 12.8476L13.5533 14.6691C13.0778 15.3538 12.7374 16.1236 12.5649 16.9605H9.87942V19.5159H12.5649C12.7421 20.3483 13.0824 21.1226 13.5533 21.8073L11.6511 23.6288L13.5347 25.4369L15.4369 23.6154C16.1455 24.0674 16.9568 24.3941 17.824 24.5642V27.1465H20.4908V24.5642C21.358 24.3941 22.1646 24.0674 22.8779 23.6154L24.7801 25.4369L26.6637 23.6288L24.7615 21.8073C25.237 21.1226 25.5774 20.3483 25.7499 19.5159H28.4354V16.9605H25.7499C25.5727 16.1236 25.2324 15.3538 24.7615 14.6691L26.6637 12.8476L24.7801 11.0395L22.8779 12.861C22.1692 12.409 21.358 12.0778 20.4908 11.9122V9.32994H17.824V11.9122Z" fill="#FFE724"/>
<path d="M20.0899 27.5H17.2831C17.092 27.5 16.9335 27.3478 16.9335 27.1644V24.7163C16.1875 24.5418 15.4788 24.2598 14.8215 23.8794L13.0171 25.6069C12.9519 25.6696 12.8633 25.7054 12.77 25.7054C12.6768 25.7054 12.5882 25.6696 12.5229 25.6069L10.5415 23.7004C10.4063 23.5706 10.4063 23.3558 10.5415 23.226L12.3458 21.4985C11.9448 20.8675 11.6511 20.1872 11.4693 19.4667H8.92365C8.73249 19.4667 8.57397 19.3145 8.57397 19.131V16.4413C8.57397 16.2578 8.73249 16.1057 8.92365 16.1057H11.4693C11.6464 15.3896 11.9402 14.7094 12.3458 14.0738L10.5415 12.3463C10.4762 12.2837 10.4389 12.1987 10.4389 12.1092C10.4389 12.0196 10.4762 11.9346 10.5415 11.872L12.5229 9.96992C12.6581 9.84013 12.8819 9.84013 13.0171 9.96992L14.8215 11.6974C15.4835 11.3081 16.1922 11.0306 16.9335 10.856V8.40801C16.9335 8.22452 17.092 8.07236 17.2831 8.07236H20.0899C20.281 8.07236 20.4395 8.22452 20.4395 8.40801V10.856C21.1808 11.0261 21.8895 11.3081 22.5515 11.6974L24.3559 9.96992C24.4911 9.84013 24.7149 9.84013 24.8501 9.96992L26.8315 11.872C26.8968 11.9346 26.9341 12.0196 26.9341 12.1092C26.9341 12.1987 26.8968 12.2837 26.8315 12.3463L25.0319 14.0738C25.4328 14.7049 25.7266 15.3851 25.9084 16.1057H28.454C28.6452 16.1057 28.8037 16.2578 28.8037 16.4413V19.131C28.8037 19.3145 28.6452 19.4667 28.454 19.4667H25.9084C25.7266 20.1827 25.4328 20.8675 25.0319 21.4985L26.8315 23.226C26.9667 23.3558 26.9667 23.5706 26.8315 23.7004L24.8501 25.6069C24.7848 25.6696 24.6962 25.7054 24.603 25.7054C24.5097 25.7054 24.4211 25.6696 24.3559 25.6069L22.5515 23.8794C21.8942 24.2643 21.1855 24.5418 20.4395 24.7163V27.1644C20.4395 27.3478 20.281 27.5 20.0899 27.5ZM17.6328 26.8287H19.7402V24.4478C19.7402 24.2867 19.8567 24.1524 20.0199 24.1166C20.8778 23.951 21.6797 23.6333 22.407 23.1678C22.5469 23.0783 22.7287 23.0962 22.8453 23.2081L24.5983 24.8909L26.0856 23.4587L24.3325 21.776C24.216 21.6641 24.1973 21.4851 24.2906 21.3508C24.7755 20.6527 25.1065 19.8784 25.279 19.0594C25.3116 18.9028 25.4562 18.7909 25.624 18.7909H28.0997V16.7725H25.624C25.4562 16.7725 25.3163 16.6606 25.279 16.504C25.1065 15.6805 24.7755 14.9107 24.2906 14.2126C24.1973 14.0783 24.216 13.9038 24.3325 13.7874L26.0856 12.1047L24.5983 10.677L22.8453 12.3598C22.7287 12.4717 22.5422 12.4896 22.407 12.4001C21.6704 11.9346 20.8685 11.6124 20.0199 11.4513C19.8567 11.4199 19.7402 11.2812 19.7402 11.1201V8.73919H17.6328V11.1201C17.6328 11.2812 17.5163 11.4199 17.3531 11.4513C16.5045 11.6124 15.7026 11.9301 14.966 12.4001C14.8261 12.4896 14.6443 12.4717 14.5277 12.3598L12.7747 10.677L11.2874 12.1047L13.0405 13.7874C13.157 13.8993 13.1757 14.0783 13.0824 14.2126C12.5975 14.9152 12.2665 15.685 12.094 16.504C12.0614 16.6606 11.9168 16.7725 11.749 16.7725H9.26866V18.7909H11.7443C11.9122 18.7909 12.052 18.9028 12.0893 19.0594C12.2619 19.8829 12.5975 20.6527 13.0778 21.3508C13.171 21.4851 13.1524 21.6596 13.0358 21.776L11.2828 23.4587L12.77 24.8909L14.5231 23.2081C14.6396 23.0962 14.8261 23.0783 14.9613 23.1678C15.6886 23.6288 16.4906 23.9465 17.3484 24.1166C17.5116 24.1479 17.6282 24.2867 17.6282 24.4478V26.8287H17.6328Z" fill="#2A2A2A"/>
<path d="M18.6865 12.9639C15.9124 12.9639 13.6652 15.1256 13.6652 17.7884C13.6652 20.4513 15.9124 22.6084 18.6865 22.6084C21.4606 22.6084 23.7078 20.4513 23.7078 17.7884C23.7078 15.1256 21.4606 12.9639 18.6865 12.9639Z" fill="white"/>
<path d="M19.1574 13.6576C16.5185 13.6576 14.3832 15.7118 14.3832 18.2404C14.3832 20.769 16.5185 22.8188 19.1574 22.8188C21.7963 22.8188 23.9316 20.769 23.9316 18.2404C23.9316 15.7118 21.7963 13.6576 19.1574 13.6576Z" fill="#FFE724"/>
<path d="M18.6865 22.9441C15.7259 22.9441 13.3155 20.6303 13.3155 17.7884C13.3155 14.9465 15.7259 12.6283 18.6865 12.6283C21.6471 12.6283 24.0575 14.9421 24.0575 17.7884C24.0575 20.6348 21.6471 22.9441 18.6865 22.9441ZM18.6865 13.2996C16.1083 13.2996 14.0149 15.3135 14.0149 17.7884C14.0149 20.2633 16.1129 22.2728 18.6865 22.2728C21.2601 22.2728 23.3581 20.2588 23.3581 17.7884C23.3581 15.318 21.2601 13.2996 18.6865 13.2996Z" fill="#2A2A2A"/>
<path d="M15.0266 21.0912C15.9451 22.0221 17.2412 22.6039 18.6865 22.6039C20.1318 22.6039 21.4279 22.0221 22.3464 21.0912C21.7869 19.9679 20.3603 19.1713 18.6865 19.1713C17.0127 19.1713 15.5907 19.9679 15.0266 21.0912Z" fill="white"/>
<path d="M15.6793 21.5343C16.5512 22.4204 17.782 22.9709 19.1574 22.9709C20.5328 22.9709 21.7636 22.4204 22.6308 21.5343C22.0993 20.4647 20.7426 19.7083 19.1574 19.7083C17.5722 19.7083 16.2155 20.4647 15.6793 21.5343Z" fill="#FFE724"/>
<path d="M18.6865 22.9441C17.1899 22.9441 15.8005 22.3667 14.7748 21.324C14.6769 21.221 14.6489 21.0733 14.7142 20.948C15.3576 19.6636 16.9148 18.8356 18.6865 18.8356C20.4582 18.8356 22.02 19.6636 22.6588 20.948C22.7194 21.0733 22.6961 21.221 22.5982 21.324C21.5725 22.3667 20.1831 22.9441 18.6865 22.9441ZM15.4602 21.0331C16.332 21.8342 17.4696 22.2727 18.6865 22.2727C19.9034 22.2727 21.041 21.8342 21.9128 21.0331C21.33 20.1111 20.0665 19.507 18.6865 19.507C17.3065 19.507 16.043 20.1111 15.4602 21.0331Z" fill="#2A2A2A"/>
<path d="M30.5567 2.48259C30.0019 2.59 29.4891 2.80034 29.0368 3.08677L27.8246 1.92764L26.6264 3.08229L27.8386 4.24142C27.5355 4.68 27.3211 5.1723 27.2092 5.70487H25.4981V7.33391H27.2092C27.3211 7.86648 27.5355 8.35877 27.8386 8.79288L26.6264 9.95648L27.8246 11.1111L29.0368 9.94753C29.4891 10.2384 30.0019 10.4443 30.5567 10.5517V12.1942H32.2538V10.5517C32.8039 10.4443 33.3215 10.2384 33.7737 9.94753L34.9859 11.1111L36.1841 9.95648L34.9719 8.79288C35.275 8.35877 35.4894 7.862 35.6013 7.33391H37.3124V5.70487H35.6013C35.4894 5.1723 35.275 4.68 34.9719 4.24142L36.1841 3.08229L34.9859 1.92764L33.7737 3.08677C33.3168 2.80034 32.8039 2.59 32.2538 2.48259V0.835648H30.5567V2.48259Z" fill="white"/>
<path d="M31.0696 3.13601C30.5427 3.23894 30.0532 3.43586 29.6243 3.70886L28.4727 2.60791L27.3304 3.70438L28.482 4.80532C28.1976 5.22154 27.9878 5.68698 27.8852 6.19269H26.2581V7.74118H27.8852C27.9924 8.2469 28.1976 8.71234 28.482 9.12855L27.3304 10.234L28.4727 11.3304L29.6243 10.225C30.0532 10.5025 30.5427 10.6994 31.0696 10.8023V12.3643H32.6827V10.8023C33.2049 10.6994 33.6944 10.5025 34.128 10.225L35.2796 11.3304L36.4172 10.234L35.2656 9.12855C35.55 8.71234 35.7598 8.2469 35.8624 7.74118H37.4896V6.19269H35.8624C35.7552 5.68698 35.55 5.21706 35.2656 4.80532L36.4172 3.70438L35.2796 2.60791L34.128 3.70886C33.6944 3.43586 33.2096 3.23446 32.6827 3.13601V1.5741H31.0696V3.13601Z" fill="#FFE724"/>
<path d="M32.2538 12.5254H30.5567C30.3656 12.5254 30.207 12.3732 30.207 12.1897V10.8113C29.8107 10.7084 29.4378 10.5607 29.0881 10.3637L28.0717 11.3394C28.0064 11.402 27.9179 11.4378 27.8246 11.4378C27.7314 11.4378 27.6428 11.402 27.5775 11.3394L26.3793 10.1847C26.2441 10.0549 26.2441 9.84013 26.3793 9.71034L27.3957 8.73471C27.1905 8.39458 27.0367 8.03655 26.9294 7.66062H25.4935C25.3023 7.66062 25.1438 7.50845 25.1438 7.32496V5.69592C25.1438 5.51243 25.3023 5.36027 25.4935 5.36027H26.9294C27.032 4.98434 27.1905 4.62183 27.3957 4.2817L26.3793 3.31054C26.314 3.24789 26.2767 3.16285 26.2767 3.07335C26.2767 2.98384 26.314 2.89881 26.3793 2.83615L27.5775 1.6815C27.7127 1.55172 27.9365 1.55172 28.0717 1.6815L29.0881 2.65266C29.4424 2.45574 29.8154 2.30806 30.207 2.20512V0.835654C30.207 0.652163 30.3656 0.5 30.5567 0.5H32.2538C32.4449 0.5 32.6035 0.652163 32.6035 0.835654V2.21407C32.9951 2.31253 33.3681 2.46469 33.7224 2.65714L34.7388 1.68598C34.874 1.55619 35.0978 1.55619 35.233 1.68598L36.4312 2.84063C36.4965 2.90328 36.5338 2.98831 36.5338 3.07782C36.5338 3.16733 36.4965 3.25236 36.4312 3.31502L35.4195 4.28618C35.6246 4.62631 35.7785 4.98434 35.8857 5.36474H37.3217C37.5129 5.36474 37.6714 5.51691 37.6714 5.7004V7.32944C37.6714 7.51293 37.5129 7.66509 37.3217 7.66509H35.8857C35.7831 8.04102 35.6246 8.40353 35.4195 8.74366L36.4359 9.71929C36.5711 9.84908 36.5711 10.0639 36.4359 10.1937L35.2377 11.3483C35.1071 11.4736 34.874 11.4736 34.7435 11.3483L33.7271 10.3727C33.3774 10.5696 33.0044 10.7173 32.6081 10.8202V12.1987C32.6081 12.3821 32.4496 12.5343 32.2585 12.5343L32.2538 12.5254ZM30.9064 11.8541H31.9041V10.5472C31.9041 10.3861 32.0207 10.2519 32.1839 10.2205C32.6874 10.1221 33.1583 9.93411 33.5825 9.66559C33.7224 9.57608 33.9042 9.59398 34.0255 9.70587L34.9906 10.6323L35.6946 9.95649L34.7295 9.03008C34.6129 8.9182 34.5943 8.73918 34.6875 8.6094C34.9719 8.19766 35.1677 7.74565 35.2656 7.26678C35.2983 7.11014 35.4428 6.99826 35.6106 6.99826H36.972V6.04053H35.6106C35.4428 6.04053 35.2983 5.92864 35.2656 5.772C35.1677 5.29314 34.9719 4.84112 34.6875 4.42939C34.5943 4.29513 34.6129 4.12059 34.7341 4.00423L35.6946 3.0823L34.9906 2.40651L34.0255 3.32844C33.9089 3.44033 33.7224 3.45823 33.5872 3.36872C33.1583 3.09572 32.6874 2.90776 32.1885 2.81377C32.0253 2.78245 31.9088 2.64371 31.9088 2.4826V1.17131H30.911V2.4826C30.911 2.64371 30.7945 2.78245 30.6313 2.81377C30.1324 2.90776 29.6662 3.09572 29.2373 3.36872C29.0974 3.45375 28.9156 3.44033 28.799 3.32844L27.8339 2.40651L27.1299 3.0823L28.095 4.00423C28.2116 4.11611 28.2302 4.29513 28.1416 4.42939C27.8572 4.84112 27.6614 5.29314 27.5635 5.772C27.5309 5.92864 27.3863 6.04053 27.2185 6.04053H25.8571V6.99826H27.2185C27.3863 6.99826 27.5309 7.11014 27.5635 7.26678C27.6614 7.74565 27.8572 8.19766 28.1416 8.6094C28.2349 8.74366 28.2162 8.9182 28.0997 9.03008L27.1346 9.95649L27.8386 10.6323L28.8037 9.70587C28.9202 9.59398 29.1067 9.57608 29.2466 9.66559C29.6662 9.93411 30.1371 10.1221 30.6406 10.2205C30.8038 10.2519 30.9204 10.3906 30.9204 10.5472V11.8541H30.9064Z" fill="#2A2A2A"/>
<path d="M31.4053 4.45624C30.221 4.45624 29.2653 5.37369 29.2653 6.51491C29.2653 7.65614 30.2257 8.56912 31.4053 8.56912C32.5848 8.56912 33.5499 7.65166 33.5499 6.51491C33.5499 5.37817 32.5895 4.45624 31.4053 4.45624Z" fill="white"/>
<path d="M31.8761 5.01118C30.7525 5.01118 29.8434 5.88388 29.8434 6.96693C29.8434 8.04997 30.7525 8.9182 31.8761 8.9182C32.9998 8.9182 33.9136 8.0455 33.9136 6.96693C33.9136 5.88836 33.0044 5.01118 31.8761 5.01118Z" fill="#FFE724"/>
<path d="M31.4053 8.90478C30.0299 8.90478 28.9156 7.83516 28.9156 6.51492C28.9156 5.19468 30.0345 4.12059 31.4053 4.12059C32.776 4.12059 33.8996 5.19468 33.8996 6.51492C33.8996 7.83516 32.7806 8.90478 31.4053 8.90478ZM31.4053 4.79637C30.4168 4.79637 29.6149 5.57061 29.6149 6.5194C29.6149 7.46818 30.4168 8.23794 31.4053 8.23794C32.3937 8.23794 33.2002 7.46818 33.2002 6.5194C33.2002 5.57061 32.3937 4.79637 31.4053 4.79637Z" fill="#2A2A2A"/>
<path d="M6.07964 2.48259C5.52949 2.59 5.01198 2.80034 4.55973 3.08677L3.34754 1.92764L2.14466 3.08229L3.3522 4.24142C3.04915 4.68 2.83468 5.1723 2.72279 5.70487H1.01639V7.33391H2.72745C2.83935 7.86648 3.05381 8.35877 3.35686 8.79288L2.14933 9.95648L3.3522 11.1111L4.55973 9.94753C5.01664 10.2384 5.52949 10.4443 6.07964 10.5517V12.1942H7.78138V10.5517C8.33153 10.4443 8.84905 10.2384 9.30129 9.94753L10.5135 11.1111L11.7117 9.95648L10.4995 8.79288C10.8026 8.35877 11.017 7.862 11.1289 7.33391H12.84V5.70487H11.1289C11.017 5.1723 10.8026 4.68 10.4995 4.24142L11.707 3.08229L10.5088 1.92764L9.29663 3.08677C8.84439 2.80034 8.32687 2.59 7.77672 2.48259V0.835648H6.07498V2.48259H6.07964Z" fill="white"/>
<path d="M6.5925 3.136C6.07032 3.23894 5.58078 3.43585 5.15185 3.70885L4.00026 2.60791L2.858 3.70438L4.00492 4.80532C3.72052 5.22153 3.51072 5.68697 3.40815 6.19269H1.78101V7.74117H3.40815C3.51538 8.24689 3.72052 8.71233 4.00492 9.12854L2.858 10.234L4.00026 11.3304L5.14719 10.225C5.58078 10.5025 6.06566 10.6994 6.5925 10.8023V12.3642H8.20565V10.8023C8.73249 10.6994 9.21737 10.5025 9.65097 10.225L10.8026 11.3304L11.9448 10.234L10.7932 9.12854C11.0823 8.71233 11.2874 8.24689 11.3947 7.74565H13.0218V6.19717H11.3947C11.2874 5.69145 11.0823 5.22153 10.7979 4.8098L11.9448 3.70885L10.8026 2.61238L9.65097 3.71333C9.21737 3.44033 8.73249 3.23894 8.20565 3.14048V1.57857H6.5925V3.14048V3.136Z" fill="#FFE724"/>
<path d="M7.78139 12.5254H6.07965C5.88849 12.5254 5.72997 12.3732 5.72997 12.1897V10.8113C5.33368 10.7084 4.96069 10.5607 4.61102 10.3638L3.5993 11.3394C3.53403 11.402 3.44545 11.4378 3.3522 11.4378C3.25896 11.4378 3.17037 11.402 3.1051 11.3394L1.90223 10.1847C1.76702 10.0549 1.76702 9.84013 1.90223 9.71034L2.91861 8.73471C2.71347 8.39458 2.55961 8.03655 2.45238 7.65614H1.01639C0.825236 7.65614 0.666718 7.50398 0.666718 7.32049V5.69145C0.666718 5.50796 0.825236 5.35579 1.01639 5.35579H2.45238C2.55495 4.97986 2.71347 4.61735 2.91861 4.27723L1.90689 3.30607C1.84162 3.24341 1.80432 3.15838 1.80432 3.06887C1.80432 2.97936 1.84162 2.89433 1.90689 2.83168L3.10976 1.67703C3.24497 1.54724 3.46876 1.54724 3.60397 1.67703L4.62035 2.64819C4.97468 2.45127 5.34767 2.30358 5.7393 2.20512V0.835654C5.7393 0.652163 5.89782 0.5 6.08897 0.5H7.79071C7.98186 0.5 8.14038 0.652163 8.14038 0.835654V2.21407C8.53202 2.31253 8.905 2.46469 9.25933 2.65714L10.2757 1.68598C10.4109 1.55619 10.6347 1.55619 10.7699 1.68598L11.9681 2.84063C12.0334 2.90328 12.0707 2.98831 12.0707 3.07782C12.0707 3.16733 12.0334 3.25236 11.9681 3.31502L10.9564 4.28618C11.1616 4.62631 11.3154 4.98881 11.4226 5.36474H12.8586C13.0498 5.36474 13.2083 5.51691 13.2083 5.7004V7.32944C13.2083 7.51293 13.0498 7.66509 12.8586 7.66509H11.4226C11.3154 8.04102 11.1616 8.40353 10.9564 8.73918L11.9728 9.71482C12.108 9.84461 12.108 10.0594 11.9728 10.1892L10.7746 11.3439C10.7093 11.4065 10.6207 11.4423 10.5275 11.4423C10.4342 11.4423 10.3456 11.4065 10.2804 11.3439L9.264 10.3682C8.91432 10.5651 8.54134 10.7128 8.14504 10.8158V12.1942C8.14504 12.3777 7.98653 12.5298 7.79537 12.5298L7.78139 12.5254ZM6.42932 11.8541H7.43171V10.5472C7.43171 10.3861 7.54827 10.2519 7.71145 10.2205C8.21498 10.1221 8.68587 9.93411 9.11014 9.66559C9.25001 9.57608 9.43184 9.59398 9.55306 9.70587L10.5182 10.6323L11.2222 9.95649L10.2571 9.03008C10.1405 8.9182 10.1219 8.73919 10.2151 8.60492C10.4995 8.19766 10.6907 7.75012 10.7932 7.26678C10.8259 7.11014 10.9704 6.99826 11.1336 6.99826H12.495V6.04053H11.1336C10.9657 6.04053 10.8212 5.92864 10.7886 5.772C10.6907 5.29314 10.4948 4.84112 10.2104 4.42939C10.1172 4.29513 10.1358 4.12059 10.2571 4.0087L11.2175 3.08677L10.5135 2.41099L9.5484 3.33292C9.43184 3.4448 9.25001 3.46271 9.11014 3.37767C8.68121 3.10467 8.21032 2.91671 7.71145 2.82273C7.54827 2.7914 7.43171 2.65266 7.43171 2.49155V1.17131H6.42932V2.4826C6.42932 2.64371 6.31276 2.78245 6.14958 2.81377C5.65538 2.90776 5.18448 3.09572 4.75555 3.36872C4.61568 3.45375 4.43385 3.44033 4.3173 3.32844L3.3522 2.40651L2.64353 3.08677L3.60397 4.0087C3.72052 4.12059 3.73917 4.2996 3.65059 4.42939C3.36619 4.84112 3.17037 5.29314 3.07246 5.772C3.03983 5.92864 2.8953 6.04053 2.72745 6.04053H1.36606V6.99826H2.72745C2.8953 6.99826 3.03983 7.11014 3.07246 7.26678C3.17037 7.74565 3.36619 8.19766 3.65059 8.6094C3.74383 8.74366 3.72519 8.9182 3.60863 9.03008L2.64353 9.95649L3.3522 10.6323L4.31264 9.70587C4.42919 9.59398 4.61568 9.57608 4.75555 9.66559C5.17516 9.93411 5.64605 10.1221 6.15424 10.2205C6.31742 10.2519 6.43398 10.3906 6.43398 10.5472V11.8541H6.42932Z" fill="#2A2A2A"/>
<path d="M6.92818 4.45624C5.74396 4.45624 4.78352 5.37369 4.78352 6.51491C4.78352 7.65614 5.74396 8.56912 6.92818 8.56912C8.1124 8.56912 9.07284 7.65166 9.07284 6.51491C9.07284 5.37817 8.1124 4.45624 6.92818 4.45624Z" fill="white"/>
<path d="M7.39907 5.01118C6.27546 5.01118 5.36165 5.88388 5.36165 6.96693C5.36165 8.04997 6.27546 8.9182 7.39907 8.9182C8.52269 8.9182 9.4365 8.0455 9.4365 6.96693C9.4365 5.88836 8.52269 5.01118 7.39907 5.01118Z" fill="#FFE724"/>
<path d="M6.92818 8.90478C5.5528 8.90478 4.43385 7.83516 4.43385 6.51492C4.43385 5.19468 5.5528 4.12059 6.92818 4.12059C8.30356 4.12059 9.42251 5.19468 9.42251 6.51492C9.42251 7.83516 8.30356 8.90478 6.92818 8.90478ZM6.92818 4.79637C5.93978 4.79637 5.1332 5.57061 5.1332 6.5194C5.1332 7.46818 5.93978 8.23794 6.92818 8.23794C7.91659 8.23794 8.72317 7.46818 8.72317 6.5194C8.72317 5.57061 7.91659 4.79637 6.92818 4.79637Z" fill="#2A2A2A"/>
<path d="M18.7937 14.8347C17.8753 14.8347 17.134 15.5507 17.134 16.4324C17.134 17.314 17.8799 18.0256 18.7937 18.0256C19.7075 18.0256 20.4535 17.314 20.4535 16.4324C20.4535 15.5507 19.7075 14.8347 18.7937 14.8347Z" fill="white"/>
<path d="M19.2646 15.3672C18.3928 15.3672 17.6888 16.0475 17.6888 16.8844C17.6888 17.7213 18.3974 18.3971 19.2646 18.3971C20.1318 18.3971 20.8405 17.7213 20.8405 16.8844C20.8405 16.0475 20.1318 15.3672 19.2646 15.3672Z" fill="#FFE724"/>
<path d="M18.7937 18.3613C17.6841 18.3613 16.7843 17.4975 16.7843 16.4324C16.7843 15.3672 17.6841 14.499 18.7937 14.499C19.9034 14.499 20.8032 15.3672 20.8032 16.4324C20.8032 17.4975 19.9034 18.3613 18.7937 18.3613ZM18.7937 15.1748C18.0711 15.1748 17.4836 15.7387 17.4836 16.4368C17.4836 17.135 18.0711 17.6944 18.7937 17.6944C19.5164 17.6944 20.1038 17.1305 20.1038 16.4368C20.1038 15.7432 19.5164 15.1748 18.7937 15.1748Z" fill="#2A2A2A"/>
</g>
<defs>
<clipPath id="clip0_19_68">
<rect width="37" height="27" fill="white" transform="translate(0.666718 0.5)"/>
</clipPath>
</defs>
</svg>
