<svg width="33" height="38" viewBox="0 0 33 38" fill="none" xmlns="http://www.w3.org/2000/svg">
<g clip-path="url(#clip0_15_282)">
<path d="M32.6506 35.5705H6.79289C6.60187 35.5705 6.44346 35.4121 6.44346 35.221C6.44346 35.0299 6.60187 34.8715 6.79289 34.8715H32.6506C32.8416 34.8715 33 35.0299 33 35.221C33 35.4121 32.8416 35.5705 32.6506 35.5705Z" fill="#2A2A2A"/>
<path d="M5.98687 35.5705H3.93689C3.74587 35.5705 3.58746 35.4121 3.58746 35.221C3.58746 35.0299 3.74587 34.8715 3.93689 34.8715H5.98687C6.17789 34.8715 6.3363 35.0299 6.3363 35.221C6.3363 35.4121 6.17789 35.5705 5.98687 35.5705Z" fill="#2A2A2A"/>
<path d="M3.18678 35.5705H2.19441C2.00339 35.5705 1.84498 35.4121 1.84498 35.221C1.84498 35.0299 2.00339 34.8715 2.19441 34.8715H3.18678C3.3778 34.8715 3.53621 35.0299 3.53621 35.221C3.53621 35.4121 3.3778 35.5705 3.18678 35.5705Z" fill="#2A2A2A"/>
<path d="M25.2194 37.5H6.25244C6.06141 37.5 5.90301 37.3415 5.90301 37.1505C5.90301 36.9594 6.06141 36.8009 6.25244 36.8009H25.2194C25.4104 36.8009 25.5688 36.9594 25.5688 37.1505C25.5688 37.3415 25.4104 37.5 25.2194 37.5Z" fill="#2A2A2A"/>
<path d="M27.3113 37.5H25.8064C25.6154 37.5 25.457 37.3415 25.457 37.1505C25.457 36.9594 25.6154 36.8009 25.8064 36.8009H27.3113C27.5023 36.8009 27.6607 36.9594 27.6607 37.1505C27.6607 37.3415 27.5023 37.5 27.3113 37.5Z" fill="#2A2A2A"/>
<path d="M28.5879 37.5H27.8611C27.67 37.5 27.5116 37.3415 27.5116 37.1505C27.5116 36.9594 27.67 36.8009 27.8611 36.8009H28.5879C28.7789 36.8009 28.9373 36.9594 28.9373 37.1505C28.9373 37.3415 28.7789 37.5 28.5879 37.5Z" fill="#2A2A2A"/>
<path d="M15.7988 4.40553C24.3342 4.40553 31.2529 11.3218 31.2529 19.8599C31.2529 28.398 24.3342 35.3096 15.7988 35.3096C7.26345 35.3096 0.349426 28.3933 0.349426 19.8599C0.349426 11.3264 7.26345 4.40553 15.7988 4.40553Z" fill="white"/>
<path d="M16.2694 5.64989C24.3761 5.64989 30.95 12.2213 30.95 20.3306C30.95 28.4399 24.3761 35.0066 16.2694 35.0066C8.16264 35.0066 1.59339 28.4353 1.59339 20.3306C1.59339 12.2259 8.16264 5.64989 16.2694 5.64989Z" fill="#FFE724"/>
<path d="M15.7988 35.6591C7.0864 35.6591 0 28.5704 0 19.8599C0 11.1493 7.0864 4.05599 15.7988 4.05599C24.5112 4.05599 31.6023 11.1447 31.6023 19.8599C31.6023 28.5751 24.5112 35.6591 15.7988 35.6591ZM15.7988 4.75507C7.4731 4.75507 0.698856 11.5315 0.698856 19.8599C0.698856 28.1882 7.4731 34.96 15.7988 34.96C24.1245 34.96 30.9034 28.1882 30.9034 19.8599C30.9034 11.5315 24.1292 4.75507 15.7988 4.75507Z" fill="#2A2A2A"/>
<path d="M15.7988 7.84967C22.4333 7.84967 27.8145 13.2279 27.8145 19.8599C27.8145 26.4918 22.4379 31.8654 15.7988 31.8654C9.15967 31.8654 3.7878 26.4918 3.7878 19.8599C3.7878 13.2279 9.16433 7.84967 15.7988 7.84967Z" fill="white"/>
<path d="M16.2694 8.92159C22.5731 8.92159 27.684 14.0295 27.684 20.3306C27.684 26.6316 22.5731 31.7349 16.2694 31.7349C9.96569 31.7349 4.85938 26.6316 4.85938 20.3306C4.85938 14.0295 9.97034 8.92159 16.2694 8.92159Z" fill="#FFE724"/>
<path d="M15.7988 32.215C8.98263 32.215 3.43837 26.6736 3.43837 19.8599C3.43837 13.0462 8.98263 7.50013 15.7988 7.50013C22.615 7.50013 28.1639 13.0462 28.1639 19.8599C28.1639 26.6736 22.6196 32.215 15.7988 32.215ZM15.7988 8.19921C9.36933 8.19921 4.13723 13.4283 4.13723 19.8599C4.13723 26.2914 9.36933 31.5159 15.7988 31.5159C22.2283 31.5159 27.4651 26.2868 27.4651 19.8599C27.4651 13.433 22.2329 8.19921 15.7988 8.19921Z" fill="#2A2A2A"/>
<path d="M20.7793 14.8778L16.8751 20.9318L10.823 24.8373L14.7272 18.7833L20.7793 14.8778Z" fill="white"/>
<path d="M21.003 15.5955L17.2944 21.3512L11.5405 25.061L15.249 19.3099L21.003 15.5955Z" fill="#FFE724"/>
<path d="M10.823 25.1869C10.7344 25.1869 10.6413 25.1496 10.576 25.0843C10.4596 24.9678 10.4409 24.7861 10.5294 24.6462L14.4337 18.5922C14.4617 18.5503 14.4943 18.513 14.5362 18.4897L20.593 14.5841C20.7281 14.4956 20.9144 14.5142 21.0309 14.6307C21.1474 14.7473 21.166 14.929 21.0775 15.0688L17.1732 21.1229C17.1453 21.1648 17.1127 21.2021 17.0707 21.2254L11.014 25.1309C10.9581 25.1682 10.8882 25.1869 10.823 25.1869ZM14.9788 19.035L11.9924 23.6629L16.6235 20.6755L19.6099 16.0475L14.9788 19.035Z" fill="#2A2A2A"/>
<path d="M14.5921 12.8225V9.77913H15.1885L16.4418 11.8204V9.77913H17.0102V12.8225H16.3952L15.1605 10.8231V12.8225H14.5921Z" fill="white"/>
<path d="M15.1233 13.2139V10.3244H15.6917L16.8797 12.2632V10.3244H17.4202V13.2139H16.8331L15.6591 11.3171V13.2139H15.1233Z" fill="#FFE724"/>
<path d="M17.0102 13.172H16.3952C16.274 13.172 16.1622 13.1114 16.097 13.0042L15.5053 12.0488V12.8178C15.5053 13.0089 15.3469 13.1673 15.1559 13.1673H14.5875C14.3964 13.1673 14.238 13.0089 14.238 12.8178V9.77913C14.238 9.58805 14.3964 9.42959 14.5875 9.42959H15.1885C15.3096 9.42959 15.4214 9.49484 15.4867 9.59737L16.0877 10.5807V9.77913C16.0877 9.58805 16.2461 9.42959 16.4371 9.42959H17.0102C17.2012 9.42959 17.3596 9.58805 17.3596 9.77913V12.8178C17.3596 13.0089 17.2012 13.1673 17.0102 13.1673V13.172ZM16.5862 12.4729H16.6607V12.0908C16.6235 12.1187 16.5815 12.142 16.5349 12.156C16.4884 12.17 16.4418 12.17 16.3998 12.1653L16.5862 12.4683V12.4729ZM14.9369 10.1333V10.5528C14.9742 10.5248 15.0114 10.5015 15.058 10.4875C15.1046 10.4735 15.1559 10.4689 15.2025 10.4782L14.9881 10.1333H14.9322H14.9369Z" fill="#2A2A2A"/>
<path d="M22.9178 21.3839L22.205 18.3359H22.8386L23.2906 20.4285L23.845 18.3359H24.5765L25.1122 20.4657L25.5688 18.3359H26.1885L25.457 21.3839H24.8001L24.2037 19.1049L23.5981 21.3839H22.9178Z" fill="white"/>
<path d="M23.4536 21.7754L22.7781 18.8812H23.3791L23.8031 20.8712L24.3342 18.8812H25.0284L25.5362 20.9038L25.9742 18.8812H26.5612L25.8623 21.7754H25.238L24.6696 19.6129L24.0966 21.7754H23.4536Z" fill="#FFE724"/>
<path d="M25.457 21.7334H24.8001C24.6417 21.7334 24.5019 21.6262 24.46 21.4724L24.1991 20.4751L23.9335 21.4724C23.8916 21.6262 23.7565 21.7334 23.5981 21.7334H22.9178C22.7548 21.7334 22.615 21.6216 22.5777 21.4631L21.8649 18.4151C21.8416 18.3126 21.8649 18.2007 21.9301 18.1168C21.9953 18.0329 22.0978 17.9863 22.205 17.9863H22.8386C23.0017 17.9863 23.1461 18.1028 23.1787 18.2613L23.3232 18.9324L23.5049 18.2427C23.5468 18.0889 23.6819 17.9817 23.8403 17.9817H24.5718C24.7302 17.9817 24.87 18.0889 24.9119 18.2473L25.0796 18.9231L25.2241 18.2613C25.2567 18.0982 25.4011 17.9863 25.5642 17.9863H26.1838C26.291 17.9863 26.3935 18.0376 26.4587 18.1215C26.5239 18.2054 26.5472 18.3172 26.5239 18.4198L25.7925 21.4678C25.7552 21.6262 25.6154 21.7334 25.4524 21.7334H25.457ZM25.0703 21.0343H25.1821L25.238 20.792C25.2008 20.806 25.1588 20.8153 25.1169 20.8153C25.075 20.8153 25.0377 20.8106 25.0051 20.7966L25.0657 21.0297L25.0703 21.0343ZM23.1974 21.0343H23.3325L23.4024 20.764C23.3651 20.778 23.3278 20.7827 23.2812 20.7827C23.2253 20.7827 23.1741 20.7687 23.1275 20.7454L23.1974 21.039V21.0343ZM24.2037 18.7553C24.2503 18.7553 24.2923 18.7646 24.3295 18.7786L24.3062 18.6854H24.1152L24.0919 18.774C24.1245 18.76 24.1618 18.7553 24.1991 18.7553H24.2037Z" fill="#2A2A2A"/>
<path d="M15.8221 31.1337C15.3609 31.1337 14.9881 31.0172 14.7086 30.7842C14.4291 30.5418 14.266 30.2063 14.2194 29.7868C14.2101 29.6936 14.238 29.6004 14.2939 29.5258C14.3545 29.4513 14.4384 29.4046 14.5316 29.3953L14.7505 29.372C14.7505 29.372 14.7366 29.358 14.7272 29.3534C14.4663 29.1157 14.3312 28.8128 14.3312 28.4819C14.3312 28.2628 14.3964 28.0438 14.5222 27.8527C14.6434 27.6616 14.8251 27.5125 15.058 27.4146C15.263 27.326 15.51 27.2841 15.7942 27.2841C16.2647 27.2841 16.6328 27.4006 16.8844 27.629C17.1406 27.848 17.2897 28.1696 17.3037 28.5518C17.3083 28.7382 17.1732 28.892 16.9915 28.9106C17.0801 28.9899 17.1593 29.0784 17.2198 29.1856C17.3316 29.3627 17.3922 29.5911 17.3922 29.8521C17.3922 30.0944 17.3223 30.3228 17.1872 30.5325C17.0521 30.7422 16.8657 30.9007 16.6188 31.0032C16.3952 31.0964 16.1249 31.143 15.8221 31.143V31.1337ZM15.5333 29.7262C15.5519 29.7868 15.5752 29.8288 15.6078 29.8567C15.6497 29.894 15.7243 29.9126 15.8221 29.9126C15.9898 29.9126 16.0364 29.8754 16.0411 29.8707C16.0411 29.8707 16.0225 29.8614 16.0085 29.8567C15.9526 29.8381 15.7988 29.7961 15.5565 29.7355C15.5472 29.7355 15.5379 29.7355 15.5286 29.7309L15.5333 29.7262Z" fill="#2A2A2A"/>
<path d="M5.24608 21.3839V18.3359H7.50106V18.8532H5.86107V19.529H7.38458V20.0416H5.86107V20.8619H7.55696V21.3839H5.24608Z" fill="white"/>
<path d="M5.77721 21.7754V18.8812H7.91571V19.3752H6.35959V20.0137H7.80856V20.503H6.35959V21.2813H7.97162V21.7754H5.77721Z" fill="#FFE724"/>
<path d="M7.55697 21.7334H5.24608C5.05506 21.7334 4.89665 21.5749 4.89665 21.3839V18.3359C4.89665 18.1448 5.05506 17.9863 5.24608 17.9863H7.4964C7.68742 17.9863 7.84583 18.1448 7.84583 18.3359V18.8532C7.84583 19.0396 7.7014 19.1934 7.51503 19.2027C7.64083 19.254 7.73401 19.3798 7.73401 19.5243V20.037C7.73401 20.2281 7.5756 20.3865 7.38458 20.3865H6.2105V20.5077H7.55697C7.74799 20.5077 7.90639 20.6661 7.90639 20.8572V21.3745C7.90639 21.5656 7.74799 21.7241 7.55697 21.7241V21.7334Z" fill="#2A2A2A"/>
<path d="M23.2626 12.3984C23.5188 12.6593 23.5188 13.0835 23.2626 13.3444C23.0017 13.6008 22.5777 13.6008 22.3215 13.3444C22.0606 13.0788 22.0606 12.6547 22.3215 12.3984C22.5824 12.1374 23.0017 12.1374 23.2626 12.3984Z" fill="white"/>
<path d="M23.7099 12.8924C23.9568 13.1394 23.9568 13.5402 23.7099 13.7919C23.4629 14.0389 23.0623 14.0389 22.8153 13.7919C22.5684 13.5402 22.5684 13.1394 22.8153 12.8924C23.0623 12.6454 23.4629 12.6454 23.7099 12.8924Z" fill="#FFE724"/>
<path d="M22.792 13.8851C22.5218 13.8851 22.2656 13.7779 22.0746 13.5914C21.6785 13.1906 21.6832 12.5428 22.0746 12.1513C22.4566 11.7692 23.1275 11.7692 23.5095 12.1513C23.9009 12.5475 23.9009 13.1906 23.5095 13.5914C23.3139 13.7872 23.0576 13.8897 22.7874 13.8897L22.792 13.8851ZM22.792 12.5475C22.7082 12.5475 22.629 12.5801 22.5684 12.6407C22.4473 12.7665 22.4473 12.9669 22.5684 13.0974C22.6802 13.2093 22.8945 13.2139 23.0157 13.0974C23.1368 12.9716 23.1368 12.7712 23.0157 12.6454C22.9551 12.5848 22.8759 12.5521 22.792 12.5521V12.5475Z" fill="#2A2A2A"/>
<path d="M23.2626 27.3214C23.0017 27.5824 22.5777 27.5824 22.3215 27.3214C22.0606 27.0557 22.0606 26.6363 22.3215 26.3753C22.5824 26.119 23.0017 26.119 23.2626 26.3753C23.5188 26.6409 23.5188 27.0557 23.2626 27.3214Z" fill="white"/>
<path d="M23.7099 27.7688C23.4629 28.0158 23.0623 28.0158 22.8153 27.7688C22.5684 27.5171 22.5684 27.121 22.8153 26.8693C23.0623 26.6223 23.4629 26.6223 23.7099 26.8693C23.9568 27.121 23.9568 27.5171 23.7099 27.7688Z" fill="#FFE724"/>
<path d="M22.792 27.8667C22.5218 27.8667 22.2656 27.7595 22.0745 27.5684C21.6785 27.1629 21.6785 26.5291 22.0745 26.1283C22.4659 25.7415 23.1321 25.7415 23.5142 26.1283C23.9102 26.5338 23.9102 27.1629 23.5142 27.5684C23.3185 27.7641 23.0623 27.8667 22.792 27.8667ZM22.792 26.5291C22.7082 26.5291 22.629 26.5617 22.5684 26.6223C22.4473 26.7481 22.4473 26.9485 22.5684 27.079C22.6802 27.1909 22.8945 27.1956 23.0157 27.079C23.1368 26.9532 23.1368 26.7528 23.0157 26.6223C22.9598 26.5664 22.8806 26.5338 22.792 26.5338V26.5291Z" fill="#2A2A2A"/>
<path d="M8.33969 27.3214C8.07879 27.0557 8.07879 26.6363 8.33969 26.3753C8.6006 26.119 9.01991 26.119 9.28548 26.3753C9.54638 26.641 9.54638 27.0557 9.28548 27.3214C9.02457 27.5824 8.60526 27.5824 8.33969 27.3214Z" fill="white"/>
<path d="M8.83354 27.7688C8.58195 27.5171 8.58195 27.121 8.83354 26.8693C9.08047 26.6223 9.48115 26.6223 9.72808 26.8693C9.97501 27.121 9.97501 27.5171 9.72808 27.7688C9.48115 28.0158 9.08047 28.0158 8.83354 27.7688Z" fill="#FFE724"/>
<path d="M8.81025 27.8667C8.54003 27.8667 8.28378 27.7595 8.09276 27.5731C7.69208 27.1676 7.69208 26.5338 8.09276 26.133C8.48412 25.7461 9.1457 25.7508 9.5324 26.133C9.92842 26.5384 9.92842 27.1676 9.5324 27.5731C9.33672 27.7688 9.08048 27.8713 8.81025 27.8713V27.8667ZM8.81025 26.5291C8.72639 26.5291 8.64253 26.5617 8.58196 26.6223C8.45616 26.7481 8.45616 26.9485 8.58196 27.0744C8.69844 27.1909 8.90809 27.1909 9.03389 27.0744C9.15502 26.9485 9.15502 26.7481 9.03389 26.6177C8.97798 26.5617 8.89877 26.5291 8.81025 26.5291Z" fill="#2A2A2A"/>
<path d="M8.33968 12.3983C8.60058 12.1374 9.0199 12.1374 9.28546 12.3983C9.54637 12.6593 9.54637 13.0834 9.28546 13.3444C9.02456 13.6008 8.60524 13.6008 8.33968 13.3444C8.07877 13.0788 8.07877 12.6547 8.33968 12.3983Z" fill="white"/>
<path d="M8.83354 12.8924C9.08047 12.6454 9.48115 12.6454 9.72808 12.8924C9.97501 13.1394 9.97501 13.5402 9.72808 13.7919C9.48115 14.0389 9.08047 14.0389 8.83354 13.7919C8.58195 13.5402 8.58195 13.1394 8.83354 12.8924Z" fill="#FFE724"/>
<path d="M8.81025 13.8851C8.54002 13.8851 8.28378 13.7825 8.09276 13.5914C7.89708 13.3957 7.78992 13.1347 7.78992 12.8644C7.78992 12.5941 7.89708 12.3378 8.09276 12.1467C8.4748 11.7645 9.1457 11.7645 9.52774 12.1467C9.92376 12.5428 9.92376 13.186 9.52774 13.5868C9.33206 13.7825 9.07581 13.8851 8.80559 13.8851H8.81025ZM8.81025 12.5475C8.72638 12.5475 8.64718 12.5801 8.58661 12.6407C8.52605 12.7013 8.49343 12.7805 8.49343 12.8644C8.49343 12.9483 8.52605 13.0322 8.58661 13.0928C8.70309 13.2093 8.91741 13.2093 9.03854 13.0928C9.15968 12.9716 9.15968 12.7665 9.03854 12.6407C8.97797 12.5801 8.89877 12.5475 8.81491 12.5475H8.81025Z" fill="#2A2A2A"/>
<path d="M20.3647 3.49673C20.1737 3.49673 20.0152 3.33827 20.0152 3.14718V1.19908H11.5917V3.14718C11.5917 3.33827 11.4333 3.49673 11.2423 3.49673C11.0512 3.49673 10.8928 3.33827 10.8928 3.14718V0.84954C10.8928 0.658458 11.0512 0.5 11.2423 0.5H20.3647C20.5557 0.5 20.7141 0.658458 20.7141 0.84954V3.14718C20.7141 3.33827 20.5557 3.49673 20.3647 3.49673Z" fill="#2A2A2A"/>
</g>
<defs>
<clipPath id="clip0_15_282">
<rect width="33" height="37" fill="white" transform="translate(0 0.5)"/>
</clipPath>
</defs>
</svg>
