<svg width="26" height="32" viewBox="0 0 26 32" fill="none" xmlns="http://www.w3.org/2000/svg">
<g clip-path="url(#clip0_15_192)">
<path d="M1.76844 5.23378H6.00502V5.71419C6.00502 6.28052 6.45867 6.7375 7.01227 6.7375H13.7401C14.2937 6.7375 14.7473 6.27662 14.7473 5.71419V5.23378H18.9877C19.8027 5.23378 20.4678 5.90948 20.4678 6.7375V29.6994C20.4678 30.5275 19.8066 31.2032 18.9877 31.2032H1.76844C0.95342 31.2032 0.28833 30.5275 0.28833 29.6994V6.7375C0.28833 5.90948 0.95342 5.23378 1.76844 5.23378Z" fill="white"/>
<path d="M2.5873 6.27661H6.61244V6.72968C6.61244 7.26867 7.04302 7.70221 7.56971 7.70221H13.9592C14.4859 7.70221 14.9164 7.26477 14.9164 6.72968V6.27661H18.9416C19.7182 6.27661 20.3448 6.92106 20.3448 7.70612V29.5237C20.3448 30.3087 19.7143 30.9532 18.9416 30.9532H2.5873C1.81457 30.9532 1.18024 30.3087 1.18024 29.5237V7.70612C1.18024 6.92106 1.81073 6.27661 2.5873 6.27661Z" fill="#FFE724"/>
<path d="M18.9877 31.5H1.76845C0.791956 31.5 0 30.6954 0 29.7033V6.73749C0 5.74543 0.791956 4.94084 1.76845 4.94084H6.00503C6.16265 4.94084 6.29336 5.07364 6.29336 5.23377V5.71418C6.29336 6.11647 6.61629 6.44456 7.01227 6.44456H13.7401C14.136 6.44456 14.459 6.11647 14.459 5.71418V5.23377C14.459 5.07364 14.5897 4.94084 14.7473 4.94084H18.9877C19.9604 4.94084 20.7562 5.74543 20.7562 6.73749V29.6994C20.7562 30.6915 19.9642 31.4961 18.9877 31.4961V31.5ZM1.76845 5.52671C1.11105 5.52671 0.576667 6.06961 0.576667 6.73749V29.6994C0.576667 30.3673 1.11105 30.9102 1.76845 30.9102H18.9877C19.6451 30.9102 20.1795 30.3673 20.1795 29.6994V6.73749C20.1795 6.06961 19.6451 5.52671 18.9877 5.52671H15.0356V5.71418C15.0356 6.44065 14.4551 7.03042 13.7401 7.03042H7.01227C6.29721 7.03042 5.71669 6.44065 5.71669 5.71418V5.52671H1.76845Z" fill="#2A2A2A"/>
<path d="M7.01613 2.57006H8.63079C8.63079 1.58971 9.41506 0.792938 10.38 0.792938C11.345 0.792938 12.1254 1.58971 12.1254 2.57006H13.7401C14.2937 2.57006 14.7473 3.03094 14.7473 3.59337V5.71419C14.7473 6.28053 14.2937 6.7375 13.7401 6.7375H7.01228C6.45868 6.7375 6.00504 6.27662 6.00504 5.71419V3.59337C6.00504 3.03094 6.45868 2.57006 7.01228 2.57006H7.01613Z" fill="white"/>
<path d="M7.56973 3.02312H9.10366C9.10366 2.08964 9.84948 1.33583 10.7683 1.33583C11.6871 1.33583 12.4291 2.08964 12.4291 3.02312H13.963C14.4897 3.02312 14.9203 3.46056 14.9203 3.99565V6.01102C14.9203 6.55002 14.4897 6.98356 13.963 6.98356H7.57357C7.04688 6.98356 6.6163 6.54611 6.6163 6.01102V3.99565C6.6163 3.46056 7.04688 3.02312 7.57357 3.02312H7.56973Z" fill="#FFE724"/>
<path d="M13.7439 7.03043H7.01613C6.30106 7.03043 5.72055 6.44066 5.72055 5.71419V3.59336C5.72055 2.86689 6.30106 2.27712 7.01613 2.27712H8.36169C8.50393 1.27334 9.35355 0.5 10.38 0.5C11.4065 0.5 12.2561 1.27334 12.3945 2.27712H13.7439C14.459 2.27712 15.0395 2.86689 15.0395 3.59336V5.71419C15.0395 6.44066 14.459 7.03043 13.7439 7.03043ZM7.01613 2.86298C6.62015 2.86298 6.29722 3.19107 6.29722 3.59336V5.71419C6.29722 6.11648 6.62015 6.44456 7.01613 6.44456H13.7439C14.1399 6.44456 14.4628 6.11648 14.4628 5.71419V3.59336C14.4628 3.19107 14.1399 2.86298 13.7439 2.86298H12.1292C11.9716 2.86298 11.8409 2.73019 11.8409 2.57005C11.8409 1.75375 11.1874 1.08586 10.3839 1.08586C9.58038 1.08586 8.92298 1.74984 8.92298 2.57005C8.92298 2.73019 8.79226 2.86298 8.63464 2.86298H7.01997H7.01613Z" fill="#2A2A2A"/>
<path d="M18.7379 10.1316H2.02219C1.86457 10.1316 1.73386 9.9988 1.73386 9.83866C1.73386 9.67853 1.86457 9.54573 2.02219 9.54573H18.7379C18.8955 9.54573 19.0262 9.67853 19.0262 9.83866C19.0262 9.9988 18.8955 10.1316 18.7379 10.1316Z" fill="#2A2A2A"/>
<path d="M18.7379 15.7207H2.02219C1.86457 15.7207 1.73386 15.5879 1.73386 15.4278C1.73386 15.2677 1.86457 15.1349 2.02219 15.1349H18.7379C18.8955 15.1349 19.0262 15.2677 19.0262 15.4278C19.0262 15.5879 18.8955 15.7207 18.7379 15.7207Z" fill="#2A2A2A"/>
<path d="M18.7379 21.306H2.02219C1.86457 21.306 1.73386 21.1732 1.73386 21.013C1.73386 20.8529 1.86457 20.7201 2.02219 20.7201H18.7379C18.8955 20.7201 19.0262 20.8529 19.0262 21.013C19.0262 21.1732 18.8955 21.306 18.7379 21.306Z" fill="#2A2A2A"/>
<path d="M18.7379 26.8951H2.02219C1.86457 26.8951 1.73386 26.7623 1.73386 26.6022C1.73386 26.442 1.86457 26.3092 2.02219 26.3092H18.7379C18.8955 26.3092 19.0262 26.442 19.0262 26.6022C19.0262 26.7623 18.8955 26.8951 18.7379 26.8951Z" fill="#2A2A2A"/>
<path d="M22.3901 8.46776H25.0658C25.4195 8.46776 25.7117 8.81928 25.7117 9.25282V26.7819L23.6933 30.1955L21.675 26.7819V9.33484C21.675 8.85443 21.9941 8.46385 22.3901 8.46385V8.46776Z" fill="white"/>
<path d="M22.8437 9.40123H25.3849C25.7232 9.40123 25.9962 9.73713 25.9962 10.1472V26.8014L24.0778 30.0432L22.1632 26.8014V10.2293C22.1632 9.77618 22.4669 9.40123 22.8399 9.40123H22.8437Z" fill="#FFE724"/>
<path d="M23.6933 30.4845C23.5934 30.4845 23.4973 30.4298 23.4473 30.3439L21.4289 26.9303C21.402 26.8834 21.3867 26.8326 21.3867 26.7779V9.33483C21.3867 8.69429 21.8365 8.17091 22.3901 8.17091H25.0658C25.5809 8.17091 26 8.65523 26 9.2489V26.7779C26 26.8326 25.9846 26.8834 25.9577 26.9303L23.9394 30.3439C23.8894 30.4337 23.7933 30.4845 23.6933 30.4845ZM21.9633 26.6959L23.6933 29.6213L25.4233 26.6959V9.2489C25.4233 8.98331 25.2619 8.75678 25.0658 8.75678H22.3901C22.1594 8.75678 21.9633 9.02237 21.9633 9.33483V26.6959Z" fill="#2A2A2A"/>
<path d="M24.6775 28.5316L23.6933 30.1916L22.713 28.5316C22.9975 28.3559 23.3358 28.2582 23.6933 28.2582C24.0508 28.2582 24.3892 28.3559 24.6775 28.5316Z" fill="white"/>
<path d="M25.0158 28.9613L24.0816 30.5392L23.1513 28.9613C23.4242 28.7972 23.7433 28.7035 24.0816 28.7035C24.4199 28.7035 24.7429 28.7972 25.0158 28.9613Z" fill="#FFE724"/>
<path d="M23.6933 30.4845C23.5934 30.4845 23.4973 30.4298 23.4473 30.3439L22.4669 28.684C22.4285 28.6176 22.417 28.5355 22.4362 28.4613C22.4554 28.3871 22.5016 28.3207 22.5669 28.2817C23.2435 27.8676 24.1508 27.8716 24.8274 28.2817C24.8928 28.3207 24.9389 28.3871 24.9582 28.4613C24.9774 28.5355 24.9658 28.6176 24.9274 28.684L23.9432 30.3439C23.8894 30.4337 23.7971 30.4845 23.6972 30.4845H23.6933ZM23.1205 28.6527L23.6933 29.6213L24.2662 28.6527C23.9048 28.516 23.4819 28.516 23.1205 28.6527Z" fill="#2A2A2A"/>
<path d="M25.7117 11.6275H21.675C21.5174 11.6275 21.3867 11.4947 21.3867 11.3346C21.3867 11.1744 21.5174 11.0416 21.675 11.0416H25.7117C25.8693 11.0416 26 11.1744 26 11.3346C26 11.4947 25.8693 11.6275 25.7117 11.6275Z" fill="#2A2A2A"/>
<path d="M25.7117 27.0709H21.675C21.5174 27.0709 21.3867 26.9381 21.3867 26.7779C21.3867 26.6178 21.5174 26.485 21.675 26.485H25.7117C25.8693 26.485 26 26.6178 26 26.7779C26 26.9381 25.8693 27.0709 25.7117 27.0709Z" fill="#2A2A2A"/>
<path d="M23.6933 27.0709C23.5357 27.0709 23.405 26.9381 23.405 26.7779V11.3346C23.405 11.1744 23.5357 11.0416 23.6933 11.0416C23.851 11.0416 23.9817 11.1744 23.9817 11.3346V26.7779C23.9817 26.9381 23.851 27.0709 23.6933 27.0709Z" fill="#2A2A2A"/>
<path d="M10.4992 4.84321C10.8771 4.84321 11.1835 4.53195 11.1835 4.14798C11.1835 3.76402 10.8771 3.45276 10.4992 3.45276C10.1213 3.45276 9.81488 3.76402 9.81488 4.14798C9.81488 4.53195 10.1213 4.84321 10.4992 4.84321Z" fill="white"/>
<path d="M10.8836 3.87848C10.5223 3.87848 10.2339 4.17532 10.2339 4.53855C10.2339 4.90179 10.5223 5.19863 10.8836 5.19863C11.245 5.19863 11.5333 4.90179 11.5333 4.53855C11.5333 4.17532 11.2412 3.87848 10.8836 3.87848Z" fill="#FFE724"/>
<path d="M10.4992 5.13613C9.96097 5.13613 9.52655 4.69088 9.52655 4.14798C9.52655 3.60508 9.96482 3.15982 10.4992 3.15982C11.0336 3.15982 11.4718 3.60508 11.4718 4.14798C11.4718 4.69088 11.0336 5.13613 10.4992 5.13613ZM10.4992 3.74568C10.2801 3.74568 10.1032 3.92535 10.1032 4.14798C10.1032 4.37061 10.2801 4.55027 10.4992 4.55027C10.7183 4.55027 10.8952 4.37061 10.8952 4.14798C10.8952 3.92535 10.7183 3.74568 10.4992 3.74568Z" fill="#2A2A2A"/>
</g>
<defs>
<clipPath id="clip0_15_192">
<rect width="26" height="31" fill="white" transform="translate(0 0.5)"/>
</clipPath>
</defs>
</svg>
