<svg width="41" height="40" viewBox="0 0 41 40" fill="none" xmlns="http://www.w3.org/2000/svg">
<g clip-path="url(#clip0_8_86)">
<path d="M30.9583 0H9.70834C4.53067 0 0.333344 4.19733 0.333344 9.375V30.625C0.333344 35.8027 4.53067 40 9.70834 40H30.9583C36.136 40 40.3333 35.8027 40.3333 30.625V9.375C40.3333 4.19733 36.136 0 30.9583 0Z" fill="#5865F2"/>
<mask id="mask0_8_86" style="mask-type:luminance" maskUnits="userSpaceOnUse" x="4" y="7" width="32" height="26">
<path d="M4.70834 7.96875H35.9583V32.1766H4.70834V7.96875Z" fill="white"/>
</mask>
<g mask="url(#mask0_8_86)">
<path d="M31.1627 10.1245C29.1367 9.19452 26.9986 8.53132 24.8019 8.15157C24.782 8.14788 24.7614 8.15057 24.743 8.15927C24.7247 8.16797 24.7095 8.18222 24.6997 8.20001C24.4251 8.68845 24.1207 9.32595 23.9077 9.82689C21.5057 9.4672 19.1162 9.4672 16.7635 9.82689C16.5504 9.3147 16.2351 8.68845 15.9591 8.20001C15.9489 8.18259 15.9337 8.16864 15.9154 8.16C15.8972 8.15136 15.8767 8.14843 15.8568 8.15157C13.6599 8.53056 11.5217 9.19378 9.496 10.1245C9.47866 10.1319 9.46403 10.1445 9.45412 10.1605C5.40287 16.213 4.29318 22.1167 4.83756 27.9474C4.83907 27.9616 4.84345 27.9755 4.85043 27.9881C4.85741 28.0006 4.86685 28.0116 4.87818 28.0205C7.551 29.9834 10.1402 31.1752 12.6813 31.965C12.7011 31.9709 12.7222 31.9706 12.7418 31.9642C12.7614 31.9578 12.7786 31.9455 12.791 31.9291C13.3921 31.1081 13.9279 30.2427 14.3874 29.3325C14.3937 29.32 14.3973 29.3064 14.398 29.2924C14.3987 29.2785 14.3964 29.2645 14.3912 29.2515C14.3861 29.2385 14.3783 29.2267 14.3683 29.217C14.3583 29.2072 14.3463 29.1997 14.3332 29.1949C13.4832 28.8724 12.674 28.4794 11.8955 28.033C11.8813 28.0246 11.8694 28.0129 11.8609 27.9989C11.8523 27.9848 11.8473 27.9689 11.8463 27.9525C11.8453 27.9361 11.8484 27.9196 11.8553 27.9047C11.8621 27.8897 11.8726 27.8767 11.8857 27.8667C12.0499 27.744 12.2113 27.6175 12.3697 27.4874C12.3836 27.4759 12.4004 27.4685 12.4183 27.4661C12.4361 27.4637 12.4542 27.4663 12.4707 27.4736C17.5851 29.8086 23.1218 29.8086 28.1757 27.4736C28.1922 27.4658 28.2105 27.4628 28.2287 27.465C28.2468 27.4672 28.2639 27.4745 28.278 27.4861C28.4366 27.617 28.5984 27.7439 28.7633 27.8667C28.7765 27.8766 28.787 27.8896 28.794 27.9044C28.801 27.9193 28.8042 27.9357 28.8033 27.9521C28.8025 27.9686 28.7976 27.9845 28.7891 27.9986C28.7807 28.0127 28.7688 28.0245 28.7547 28.033C27.9759 28.4878 27.16 28.876 26.3158 29.1936C26.3027 29.1986 26.2908 29.2063 26.2809 29.2163C26.271 29.2262 26.2633 29.2381 26.2583 29.2512C26.2533 29.2643 26.2511 29.2783 26.2519 29.2924C26.2527 29.3064 26.2564 29.32 26.2629 29.3325C26.7304 30.2355 27.2635 31.1029 27.8579 31.9278C27.87 31.9447 27.8871 31.9574 27.9067 31.9641C27.9264 31.9707 27.9477 31.9711 27.9676 31.965C30.521 31.1752 33.1102 29.9834 35.7832 28.0205C35.7946 28.012 35.8042 28.0013 35.8112 27.9889C35.8182 27.9765 35.8225 27.9628 35.8238 27.9486C36.4754 21.2078 34.7324 15.3524 31.2033 10.1617C31.1947 10.1449 31.1803 10.1317 31.1627 10.1245ZM15.1512 24.3972C13.6113 24.3972 12.3426 22.9836 12.3426 21.2475C12.3426 19.5114 13.5868 18.0978 15.1512 18.0978C16.7277 18.0978 17.9841 19.5239 17.9594 21.2475C17.9594 22.9836 16.7155 24.3972 15.1512 24.3972ZM25.5349 24.3972C23.9951 24.3972 22.7265 22.9836 22.7265 21.2475C22.7265 19.5114 23.9705 18.0978 25.5349 18.0978C27.1115 18.0978 28.3679 19.5239 28.3433 21.2475C28.3433 22.9836 27.1115 24.3972 25.5349 24.3972Z" fill="white"/>
</g>
</g>
<defs>
<clipPath id="clip0_8_86">
<rect width="40" height="40" fill="white" transform="translate(0.333344)"/>
</clipPath>
</defs>
</svg>
