<svg width="29" height="37" viewBox="0 0 29 37" fill="none" xmlns="http://www.w3.org/2000/svg">
<g clip-path="url(#clip0_15_331)">
<path d="M12.8084 39.5C8.96944 39.5 4.88736 38.5372 4.88736 36.749C4.88736 35.2655 7.66784 34.4303 10.266 34.1405C10.4787 34.1209 10.661 34.2633 10.6863 34.4647C10.7117 34.6661 10.5597 34.8479 10.3521 34.8725C7.29812 35.2114 5.64705 36.0908 5.64705 36.749C5.64705 37.5891 8.37182 38.7631 12.8084 38.7631C17.245 38.7631 19.9698 37.5891 19.9698 36.749C19.9698 36.0908 18.3187 35.2114 15.2648 34.8725C15.0571 34.8479 14.9052 34.6661 14.9305 34.4647C14.9558 34.2633 15.1432 34.1159 15.3509 34.1405C17.949 34.4303 20.7295 35.2655 20.7295 36.749C20.7295 38.5322 16.6474 39.5 12.8084 39.5Z" fill="#2A2A2A"/>
<path d="M15.3103 37.6971H10.3115C10.1039 37.6971 9.9317 37.5301 9.9317 37.3287V26.3051C9.9317 26.143 10.0431 25.9957 10.2052 25.9514L15.204 24.571C15.3205 24.5416 15.442 24.5612 15.5382 24.63C15.6345 24.6988 15.6902 24.8068 15.6902 24.9247V37.3287C15.6902 37.5301 15.518 37.6971 15.3103 37.6971ZM10.6914 36.9603H14.9305V25.416L10.6914 26.5852V36.9603ZM10.3115 19.3393C10.2305 19.3393 10.1495 19.3147 10.0836 19.2656C9.98741 19.1968 9.9317 19.0887 9.9317 18.9708V17.2711C9.9317 17.1631 9.97728 17.0648 10.0634 16.9911C10.1444 16.9223 10.2558 16.888 10.3673 16.9027L14.4899 17.4627C14.6671 17.4873 14.8039 17.6297 14.814 17.8017C14.8241 17.9736 14.7127 18.1357 14.5405 18.1799L10.4179 19.3196C10.3825 19.3295 10.347 19.3344 10.3115 19.3344V19.3393ZM10.6914 17.6936V18.4796L12.6008 17.9491L10.6914 17.6887V17.6936ZM15.3103 11.1895C15.3103 11.1895 15.2749 11.1895 15.2597 11.1895L11.4207 10.6639L10.2609 10.5067C10.0735 10.4821 9.93677 10.3249 9.93677 10.1432C9.93677 10.1235 9.93677 10.1088 9.93677 10.0891C9.96715 9.88771 10.1596 9.74525 10.3673 9.77472L11.4612 9.92701L15.2394 9.2147C15.3508 9.19505 15.4673 9.22453 15.5534 9.2933C15.6395 9.36207 15.6902 9.47015 15.6902 9.57822V10.826C15.6902 10.9341 15.6446 11.0323 15.5585 11.106C15.4876 11.1649 15.4015 11.1944 15.3103 11.1944V11.1895ZM13.7656 10.2365L14.9305 10.3937V10.0154L13.7656 10.2365ZM10.3115 5.14719C10.2254 5.14719 10.1394 5.11771 10.0684 5.06367C9.98235 4.9949 9.9317 4.88683 9.9317 4.77875V0.868434C9.9317 0.667024 10.1039 0.5 10.3115 0.5H15.3103C15.518 0.5 15.6902 0.667024 15.6902 0.868434V3.84047C15.6902 4.01732 15.5636 4.16961 15.3812 4.20399L10.3825 5.14719C10.3825 5.14719 10.3318 5.1521 10.3115 5.1521V5.14719ZM10.6914 1.23196V4.33172L14.9305 3.53099V1.23687H10.6914V1.23196Z" fill="#2A2A2A"/>
<path d="M6.21933 5.55983L18.7036 3.19694L22.7604 5.08823L19.8128 8.71854L11.4713 10.3004L7.05499 9.70103L6.21933 5.55983Z" fill="white"/>
<path d="M7.14618 6.11494L19.0024 3.86995L22.8566 5.66791L20.0559 9.11645L12.1298 10.6197L7.93626 10.0498L7.14618 6.11494Z" fill="#FFE724"/>
<path d="M11.4714 10.6688C11.4714 10.6688 11.4359 10.6688 11.4207 10.6688L7.00436 10.0695C6.84229 10.0498 6.71568 9.927 6.68529 9.77472L5.84963 5.63352C5.82937 5.53527 5.84963 5.43702 5.90534 5.35842C5.96105 5.27982 6.04715 5.22087 6.14844 5.20122L18.6277 2.84324C18.7087 2.8285 18.7897 2.84324 18.8657 2.87272L22.9225 4.76401C23.0288 4.81314 23.0997 4.90156 23.1301 5.01455C23.1554 5.12262 23.1301 5.24052 23.0592 5.32403L20.1116 8.95434C20.0559 9.02311 19.9748 9.07224 19.8837 9.08697L11.5423 10.6688C11.5423 10.6688 11.4916 10.6737 11.4714 10.6737V10.6688ZM7.37914 9.3719L11.4612 9.92701L19.6051 8.38449L22.1678 5.22087L18.653 3.58011L6.6701 5.84475L7.37914 9.36698V9.3719Z" fill="#2A2A2A"/>
<path d="M6.60932 27.3269L25.2724 22.1738L28.6201 17.7673L23.1504 15.4191L4.48724 20.5772L6.60932 27.3269Z" fill="white"/>
<path d="M7.61719 27.5234L25.3484 22.6257L28.5239 18.4403L23.3327 16.215L5.60147 21.1127L7.61719 27.5234Z" fill="#FFE724"/>
<path d="M6.60932 27.6954C6.44725 27.6954 6.29531 27.5922 6.24467 27.435L4.11753 20.6853C4.08714 20.592 4.09727 20.4888 4.14791 20.4004C4.19856 20.3119 4.27959 20.2481 4.37582 20.2235L23.0389 15.0654C23.125 15.0409 23.2162 15.0458 23.2972 15.0851L28.767 17.4283C28.8734 17.4725 28.9493 17.561 28.9797 17.669C29.0101 17.7771 28.9848 17.8901 28.919 17.9834L25.5712 22.3899C25.5206 22.4538 25.4497 22.5029 25.3687 22.5275L6.70555 27.6806C6.67009 27.6905 6.63464 27.6954 6.59919 27.6954H6.60932ZM4.96332 20.8277L6.86761 26.875L25.0496 21.8545L28.0377 17.9196L23.1301 15.8121L4.96838 20.8277H4.96332Z" fill="#2A2A2A"/>
<path d="M21.1245 11.6169L5.33305 9.46524L0.379852 12.0934L4.32012 16.4557L14.4342 17.8312L20.4611 16.1658L21.1245 11.6169Z" fill="white"/>
<path d="M21.1144 12.2113L6.11299 10.1677L1.40796 12.6682L5.15071 16.8094L14.7583 18.1161L20.4864 16.5343L21.1144 12.2113Z" fill="#FFE724"/>
<path d="M14.434 18.1996C14.434 18.1996 14.3986 18.1996 14.3834 18.1996L4.26934 16.8241C4.17817 16.8094 4.09714 16.7701 4.03637 16.7013L0.0960929 12.339C0.0201236 12.2555 -0.0102641 12.1425 0.00999441 12.0345C0.0302529 11.9264 0.101158 11.8281 0.20245 11.7741L5.15565 9.14101C5.22655 9.10171 5.30758 9.08698 5.38862 9.10171L21.1801 11.2534C21.2814 11.2681 21.3675 11.3172 21.4283 11.3958C21.489 11.4744 21.5144 11.5727 21.4992 11.6709L20.8357 16.2199C20.8154 16.3623 20.7091 16.4851 20.5622 16.5244L14.5303 18.1898C14.4948 18.1996 14.4593 18.2045 14.4239 18.2045L14.434 18.1996ZM4.51244 16.1118L14.4087 17.4578L20.1216 15.8809L20.6939 11.9313L5.40381 9.84841L0.977336 12.1966L4.51244 16.1069V16.1118Z" fill="#2A2A2A"/>
<path d="M14.4949 5.96265C14.9406 5.96265 15.3002 6.31144 15.3002 6.74865C15.3002 7.18586 14.9406 7.52973 14.4949 7.52973C14.0493 7.52973 13.6846 7.18094 13.6846 6.74865C13.6846 6.31635 14.0493 5.96265 14.4949 5.96265Z" fill="white"/>
<path d="M15.0014 6.49811C15.4218 6.49811 15.7661 6.83216 15.7661 7.24481C15.7661 7.65745 15.4218 7.98659 15.0014 7.98659C14.581 7.98659 14.2316 7.65254 14.2316 7.24481C14.2316 6.83707 14.576 6.49811 15.0014 6.49811Z" fill="#FFE724"/>
<path d="M14.4949 7.89816C13.8365 7.89816 13.3047 7.38235 13.3047 6.74865C13.3047 6.11494 13.8365 5.59422 14.4949 5.59422C15.1533 5.59422 15.6801 6.11003 15.6801 6.74865C15.6801 7.38727 15.1483 7.89816 14.4949 7.89816ZM14.4949 6.33109C14.2569 6.33109 14.0644 6.51776 14.0644 6.74865C14.0644 6.97953 14.2569 7.16129 14.4949 7.16129C14.733 7.16129 14.9204 6.97462 14.9204 6.74865C14.9204 6.52267 14.7279 6.33109 14.4949 6.33109Z" fill="#2A2A2A"/>
<path d="M10.7522 12.8008C11.1979 12.8008 11.5575 13.1496 11.5575 13.5819C11.5575 14.0142 11.1979 14.3679 10.7522 14.3679C10.3065 14.3679 9.94693 14.0191 9.94693 13.5819C9.94693 13.1447 10.3065 12.8008 10.7522 12.8008Z" fill="white"/>
<path d="M11.2637 13.3363C11.6891 13.3363 12.0285 13.6703 12.0285 14.078C12.0285 14.4858 11.6841 14.8247 11.2637 14.8247C10.8434 14.8247 10.499 14.4907 10.499 14.078C10.499 13.6654 10.8383 13.3363 11.2637 13.3363Z" fill="#FFE724"/>
<path d="M10.7522 14.7314C10.0989 14.7314 9.56708 14.2156 9.56708 13.577C9.56708 12.9383 10.0989 12.4274 10.7522 12.4274C11.4055 12.4274 11.9373 12.9433 11.9373 13.577C11.9373 14.2107 11.4055 14.7314 10.7522 14.7314ZM10.7522 13.1692C10.5192 13.1692 10.3268 13.3559 10.3268 13.5819C10.3268 13.8078 10.5142 13.9994 10.7522 13.9994C10.9902 13.9994 11.1776 13.8128 11.1776 13.5819C11.1776 13.351 10.9852 13.1692 10.7522 13.1692Z" fill="#2A2A2A"/>
<path d="M16.5512 20.0663C16.9969 20.0663 17.3565 20.4151 17.3565 20.8474C17.3565 21.2797 16.9969 21.6334 16.5512 21.6334C16.1055 21.6334 15.7459 21.2846 15.7459 20.8474C15.7459 20.4102 16.1055 20.0663 16.5512 20.0663Z" fill="white"/>
<path d="M17.0627 20.6018C17.4881 20.6018 17.8275 20.9358 17.8275 21.3436C17.8275 21.7513 17.4831 22.0902 17.0627 22.0902C16.6423 22.0902 16.2979 21.7562 16.2979 21.3436C16.2979 20.9309 16.6423 20.6018 17.0627 20.6018Z" fill="#FFE724"/>
<path d="M16.5512 22.0018C15.8978 22.0018 15.3661 21.486 15.3661 20.8474C15.3661 20.2088 15.8978 19.6979 16.5512 19.6979C17.2045 19.6979 17.7363 20.2137 17.7363 20.8474C17.7363 21.4811 17.2045 22.0018 16.5512 22.0018ZM16.5512 20.4348C16.3182 20.4348 16.1258 20.6214 16.1258 20.8474C16.1258 21.0734 16.3182 21.265 16.5512 21.265C16.7842 21.265 16.9766 21.0783 16.9766 20.8474C16.9766 20.6165 16.7842 20.4348 16.5512 20.4348Z" fill="#2A2A2A"/>
</g>
<defs>
<clipPath id="clip0_15_331">
<rect width="29" height="39" fill="white" transform="translate(0 0.5)"/>
</clipPath>
</defs>
</svg>
