<svg width="33" height="32" viewBox="0 0 23 32" fill="none" xmlns="http://www.w3.org/2000/svg">
<g clip-path="url(#clip0_19_37)">
<path d="M1.11639 1.8524L4.70564 1.28173C5.1818 1.20746 5.63396 1.52798 5.70999 1.9892L7.00244 9.78318H1.68459C1.60456 9.78318 1.52853 9.79099 1.45251 9.81054L0.31211 2.93902C0.228081 2.42307 0.588206 1.93448 1.11639 1.8524Z" fill="white"/>
<path d="M1.64858 2.43088L5.05776 1.89148C5.50992 1.82112 5.93807 2.126 6.01409 2.56378L7.24252 9.96688H2.18476C2.10874 9.96688 2.03671 9.9747 1.96469 9.99424L0.88431 3.46669C0.804282 2.9781 1.1484 2.51297 1.64858 2.43479V2.43088Z" fill="#FFE724"/>
<path d="M1.4525 10.1037C1.39648 10.1037 1.34047 10.0881 1.28845 10.0568C1.21642 10.0099 1.16841 9.93953 1.1564 9.85745L0.0160047 2.98593C-0.0360134 2.66151 0.0440144 2.33318 0.240083 2.05957C0.440152 1.78986 0.732254 1.61397 1.06837 1.55925L4.65762 0.988579C5.30184 0.886952 5.90605 1.32864 6.00609 1.9384L7.29854 9.73237C7.31454 9.81836 7.28653 9.90435 7.23051 9.9708C7.17449 10.0372 7.09047 10.0724 7.00243 10.0724H1.68458C1.62857 10.0724 1.57655 10.0763 1.53253 10.092C1.50852 10.0998 1.48051 10.1037 1.4525 10.1037ZM1.70459 9.49003H6.65031L5.41388 2.04002C5.36587 1.74296 5.06576 1.52407 4.75365 1.57489L1.1644 2.14556C0.988343 2.17292 0.832289 2.26673 0.728252 2.41135C0.624216 2.55597 0.580201 2.72796 0.608211 2.89994L1.70459 9.49785V9.49003Z" fill="#2A2A2A"/>
<path d="M0.668233 5.382C0.524183 5.382 0.396138 5.28037 0.37213 5.13575C0.34412 4.97549 0.456159 4.82696 0.620216 4.7996L6.0301 3.93968C6.19416 3.91232 6.34621 4.02176 6.37422 4.18202C6.40223 4.34228 6.29019 4.49081 6.12613 4.51817L0.71625 5.37809C0.71625 5.37809 0.684238 5.37809 0.668233 5.37809V5.382Z" fill="#2A2A2A"/>
<path d="M4.22547 10.0763C4.08142 10.0763 3.95337 9.97471 3.92936 9.83008L3.08107 4.70576C3.05306 4.5455 3.1651 4.39697 3.32915 4.36961C3.49321 4.34225 3.64526 4.4517 3.67327 4.61195L4.52157 9.73627C4.54958 9.89653 4.43754 10.0451 4.27348 10.0724C4.25748 10.0724 4.24147 10.0724 4.22547 10.0724V10.0763Z" fill="#2A2A2A"/>
<path d="M1.68459 9.7832H21.7876C22.2918 9.7832 22.6999 10.1819 22.6999 10.6744V30.3118C22.6999 30.8043 22.2918 31.2069 21.7876 31.2069H1.68459C1.18441 31.2069 0.77227 30.8043 0.77227 30.3118V10.6744C0.77227 10.1819 1.18441 9.7832 1.68459 9.7832Z" fill="white"/>
<path d="M2.58891 10.7135H21.6875C22.1677 10.7135 22.5559 11.0926 22.5559 11.5578V30.214C22.5559 30.6792 22.1677 31.0622 21.6875 31.0622H2.58891C2.11274 31.0622 1.7206 30.6792 1.7206 30.214V11.5578C1.7206 11.0926 2.11274 10.7135 2.58891 10.7135Z" fill="#FFE724"/>
<path d="M21.7876 31.5H1.68459C1.01636 31.5 0.472168 30.9684 0.472168 30.3118V10.6744C0.472168 10.0216 1.01636 9.49005 1.68459 9.49005H21.7876C22.4558 9.49005 23 10.0216 23 10.6744V30.3118C23 30.9645 22.4558 31.5 21.7876 31.5ZM1.68459 10.0764C1.34847 10.0764 1.07238 10.3461 1.07238 10.6744V30.3118C1.07238 30.644 1.34847 30.9137 1.68459 30.9137H21.7876C22.1277 30.9137 22.3998 30.644 22.3998 30.3118V10.6744C22.3998 10.3461 22.1237 10.0764 21.7876 10.0764H1.68459Z" fill="#2A2A2A"/>
<path d="M21.2194 9.78319L21.9156 4.75659L20.047 0.793152L16.4817 4.03738L15.6855 9.78319H21.2194Z" fill="white"/>
<path d="M21.5035 9.95515L22.1637 5.1787L20.3871 1.41071L17.0019 4.49468L16.2457 9.95515H21.5035Z" fill="#FFE724"/>
<path d="M21.2194 10.0763H15.6855C15.5974 10.0763 15.5174 10.0412 15.4614 9.97471C15.4054 9.91217 15.3774 9.82618 15.3894 9.74409L16.1856 3.99829C16.1936 3.93184 16.2296 3.8693 16.2777 3.82239L19.8429 0.578162C19.9149 0.511714 20.011 0.488262 20.107 0.503897C20.203 0.52344 20.2831 0.582071 20.3231 0.668063L22.1917 4.6315C22.2157 4.68231 22.2237 4.73703 22.2157 4.79175L21.5195 9.81836C21.4995 9.96298 21.3714 10.0724 21.2234 10.0724L21.2194 10.0763ZM16.0296 9.49003H20.9553L21.6075 4.79957L19.9469 1.28173L16.7658 4.17809L16.0296 9.49003Z" fill="#2A2A2A"/>
<path d="M21.9196 5.04973C21.9196 5.04973 21.8916 5.04973 21.8796 5.04973L16.4457 4.33053C16.2817 4.30707 16.1656 4.16245 16.1896 4.00219C16.2136 3.84194 16.3617 3.72858 16.5257 3.75204L21.9596 4.47124C22.1237 4.49469 22.2397 4.63931 22.2157 4.79957C22.1957 4.9481 22.0677 5.05364 21.9196 5.05364V5.04973Z" fill="#2A2A2A"/>
<path d="M18.4544 10.0764C18.4544 10.0764 18.4264 10.0764 18.4144 10.0764C18.2503 10.0529 18.1343 9.90828 18.1583 9.74802L18.9066 4.36181C18.9306 4.20156 19.0786 4.0882 19.2427 4.11166C19.4067 4.13511 19.5228 4.27973 19.4988 4.43999L18.7505 9.82619C18.7305 9.97473 18.6025 10.0803 18.4544 10.0803V10.0764Z" fill="#2A2A2A"/>
<path d="M13.5527 1.27393H10.1155C9.80742 1.27393 9.55133 1.52017 9.55133 1.82505V9.78319H14.1169V1.82505C14.1169 1.52017 13.8648 1.27393 13.5527 1.27393Z" fill="white"/>
<path d="M13.8728 1.8837H10.6077C10.3116 1.8837 10.0715 2.11822 10.0715 2.40747V9.96692H14.405V2.40356C14.405 2.11431 14.1649 1.87979 13.8688 1.87979L13.8728 1.8837Z" fill="#FFE724"/>
<path d="M14.1169 10.0763H9.55133C9.38727 10.0763 9.25122 9.94345 9.25122 9.78319V1.82506C9.25122 1.35992 9.63936 0.980774 10.1155 0.980774H13.5527C14.0289 0.980774 14.417 1.35992 14.417 1.82506V9.78319C14.417 9.94345 14.281 10.0763 14.1169 10.0763ZM9.85143 9.49004H13.8168V1.82506C13.8168 1.68434 13.7008 1.56708 13.5527 1.56708H10.1155C9.97147 1.56708 9.85143 1.68043 9.85143 1.82506V9.49004Z" fill="#2A2A2A"/>
<path d="M11.3039 4.19373H9.55532C9.39127 4.19373 9.25522 4.06083 9.25522 3.90058C9.25522 3.74032 9.39127 3.60742 9.55532 3.60742H11.3039C11.468 3.60742 11.604 3.74032 11.604 3.90058C11.604 4.06083 11.468 4.19373 11.3039 4.19373Z" fill="#2A2A2A"/>
<path d="M10.4316 6.30054H9.55532C9.39127 6.30054 9.25522 6.16764 9.25522 6.00739C9.25522 5.84713 9.39127 5.71423 9.55532 5.71423H10.4316C10.5957 5.71423 10.7317 5.84713 10.7317 6.00739C10.7317 6.16764 10.5957 6.30054 10.4316 6.30054Z" fill="#2A2A2A"/>
<path d="M11.3039 8.62232H9.55532C9.39127 8.62232 9.25522 8.48942 9.25522 8.32916C9.25522 8.16891 9.39127 8.03601 9.55532 8.03601H11.3039C11.468 8.03601 11.604 8.16891 11.604 8.32916C11.604 8.48942 11.468 8.62232 11.3039 8.62232Z" fill="#2A2A2A"/>
<path d="M22.6999 14.4932H10.0835V26.4969H22.6999V14.4932Z" fill="white"/>
<path d="M22.7919 15.1889H10.8038V26.5906H22.7919V15.1889Z" fill="#FFE724"/>
<path d="M22.6999 26.79H10.0835C9.91945 26.79 9.7834 26.6571 9.7834 26.4969V14.4932C9.7834 14.3329 9.91945 14.2 10.0835 14.2H22.6999C22.864 14.2 23 14.3329 23 14.4932V26.4969C23 26.6571 22.864 26.79 22.6999 26.79ZM10.3836 26.2037H22.3998V14.7863H10.3836V26.2037Z" fill="#2A2A2A"/>
<path d="M19.5388 17.9329H13.2446C13.0806 17.9329 12.9445 17.8 12.9445 17.6397C12.9445 17.4795 13.0806 17.3466 13.2446 17.3466H19.5388C19.7029 17.3466 19.8389 17.4795 19.8389 17.6397C19.8389 17.8 19.7029 17.9329 19.5388 17.9329Z" fill="#2A2A2A"/>
<path d="M19.5388 20.7901H13.2446C13.0806 20.7901 12.9445 20.6572 12.9445 20.497C12.9445 20.3367 13.0806 20.2038 13.2446 20.2038H19.5388C19.7029 20.2038 19.8389 20.3367 19.8389 20.497C19.8389 20.6572 19.7029 20.7901 19.5388 20.7901Z" fill="#2A2A2A"/>
<path d="M19.5388 23.6396H13.2446C13.0806 23.6396 12.9445 23.5067 12.9445 23.3464C12.9445 23.1862 13.0806 23.0533 13.2446 23.0533H19.5388C19.7029 23.0533 19.8389 23.1862 19.8389 23.3464C19.8389 23.5067 19.7029 23.6396 19.5388 23.6396Z" fill="#2A2A2A"/>
</g>
<defs>
<clipPath id="clip0_19_37">
<rect width="23" height="31" fill="white" transform="translate(0 0.5)"/>
</clipPath>
</defs>
</svg>
