<svg width="33" height="33" viewBox="0 0 33 33" fill="none" xmlns="http://www.w3.org/2000/svg">
<g clip-path="url(#clip0_19_124)">
<path d="M15.4208 11.8956L16.3149 7.22402L17.2132 2.55246H15.4208H13.6284L14.5267 7.22402L15.4208 11.8956Z" fill="white"/>
<path d="M15.8408 12.0845L16.6892 7.64794L17.5418 3.21143H15.8408H14.1357L14.9883 7.64794L15.8408 12.0845Z" fill="#FFE724"/>
<path d="M15.4208 12.2104C15.2711 12.2104 15.1422 12.1055 15.1131 11.9544L13.3206 2.61123C13.304 2.51889 13.3289 2.42235 13.3872 2.351C13.4454 2.27964 13.5327 2.23767 13.6284 2.23767H17.2091C17.3006 2.23767 17.3921 2.27964 17.4503 2.351C17.5085 2.42235 17.5335 2.51889 17.5168 2.61123L15.7244 11.9544C15.6953 12.1013 15.5664 12.2104 15.4166 12.2104H15.4208ZM14.0068 2.86726L15.4208 10.2377L16.8348 2.86726H14.0068Z" fill="#231F20"/>
<path d="M16.7308 12.2566L18.6979 9.53253L20.665 6.8043L19.4798 6.28804L18.2945 5.76758L17.5127 9.01207L16.7308 12.2566Z" fill="white"/>
<path d="M17.2507 12.5168L19.118 9.93127L20.9852 7.33736L19.8582 6.84627L18.7353 6.35519L17.9909 9.43599L17.2507 12.5168Z" fill="#FFE724"/>
<path d="M16.7308 12.5714C16.6851 12.5714 16.6435 12.563 16.6019 12.542C16.4646 12.479 16.3939 12.3279 16.4314 12.181L17.9951 5.69623C18.0159 5.60809 18.0783 5.52834 18.1573 5.49056C18.2405 5.44859 18.3361 5.44859 18.4193 5.48217L20.7898 6.51889C20.8771 6.55667 20.9437 6.63222 20.9686 6.72456C20.9936 6.8169 20.9769 6.91764 20.9187 6.99319L16.9845 12.4412C16.9263 12.5252 16.8306 12.5714 16.7308 12.5714ZM18.5108 6.2083L17.4087 10.7875L20.1868 6.93862L18.5149 6.2083H18.5108Z" fill="#231F20"/>
<path d="M17.7705 13.0918L22.7902 10.4056L27.8098 7.71932L26.4541 6.02363L25.1025 4.32373L21.4386 8.70568L17.7705 13.0918Z" fill="white"/>
<path d="M18.4401 13.2933L23.2102 10.7456L27.9803 8.18942L26.6911 6.57766L25.4061 4.96591L21.9251 9.12961L18.4401 13.2933Z" fill="#FFE724"/>
<path d="M17.7705 13.4066C17.679 13.4066 17.5875 13.3646 17.5293 13.2891C17.4337 13.1716 17.4378 13.0037 17.5335 12.8904L24.8654 4.12645C24.9236 4.0551 25.0151 4.01732 25.1066 4.01312C25.1981 4.01312 25.2896 4.05929 25.3478 4.13065L28.0552 7.52624C28.1134 7.59759 28.1384 7.69413 28.1176 7.78647C28.1009 7.87881 28.0386 7.95856 27.9596 8.00053L17.9202 13.373C17.8745 13.3982 17.8246 13.4108 17.7747 13.4108L17.7705 13.4066ZM25.0941 4.8232L19.0473 12.0551L27.3274 7.62278L25.0941 4.8232Z" fill="#231F20"/>
<path d="M18.2529 14.0614L23.1353 13.4864L28.0136 12.9197L27.4522 11.1191L26.8907 9.32266L22.5698 11.6899L18.2529 14.0614Z" fill="white"/>
<path d="M18.9183 14.3636L23.5554 13.8221L28.1883 13.2807L27.656 11.5724L27.1195 9.86411L23.0189 12.1138L18.9183 14.3636Z" fill="#FFE724"/>
<path d="M18.2529 14.3762C18.1198 14.3762 17.9992 14.288 17.9577 14.1579C17.9119 14.0152 17.9743 13.8599 18.1074 13.7844L26.7452 9.04984C26.8284 9.00367 26.924 8.99947 27.0113 9.03305C27.0987 9.06662 27.1652 9.13798 27.1902 9.23032L28.3172 12.8274C28.3463 12.9155 28.3338 13.0163 28.2798 13.0918C28.2299 13.1716 28.1467 13.2219 28.0552 13.2345L18.2945 14.3762C18.2945 14.3762 18.2696 14.3762 18.2571 14.3762H18.2529ZM26.7078 9.78436L19.8208 13.5619L27.606 12.6511L26.7078 9.78436Z" fill="#231F20"/>
<path d="M18.5773 15.3877L22.2703 15.6563L25.9633 15.925L26.1089 15.5682L26.2503 15.2114L22.4159 15.2996L18.5773 15.3877Z" fill="white"/>
<path d="M19.1887 15.82L22.6945 16.0761L26.2045 16.3321L26.3418 15.9921L26.479 15.6521L22.8318 15.7361L19.1887 15.82Z" fill="#FFE724"/>
<path d="M25.9633 16.2398C25.9633 16.2398 25.9467 16.2398 25.9425 16.2398L18.5565 15.6983C18.3902 15.6857 18.2612 15.543 18.2654 15.3751C18.2696 15.2072 18.4026 15.0729 18.569 15.0687L26.2461 14.8966C26.3501 14.8966 26.4499 14.947 26.5123 15.0351C26.5705 15.1233 26.583 15.2366 26.5456 15.3332L26.2544 16.0467C26.2045 16.1642 26.0922 16.2398 25.9675 16.2398H25.9633ZM25.1732 15.5514L25.7595 15.5934L25.7845 15.5346L25.1732 15.5472V15.5514Z" fill="#231F20"/>
<path d="M17.8994 16.6385L19.9206 18.6532L21.9418 20.6679L22.5406 19.7613L23.1395 18.8505L20.5195 17.7424L17.8994 16.6385Z" fill="white"/>
<path d="M18.4484 17.1631L20.3698 19.0771L22.2911 20.9869L22.8567 20.1264L23.4306 19.2618L20.9395 18.2125L18.4484 17.1631Z" fill="#FFE724"/>
<path d="M21.9418 20.9827C21.8586 20.9827 21.7796 20.9491 21.7214 20.8903L17.679 16.8609C17.5709 16.756 17.5543 16.5881 17.6374 16.4622C17.7206 16.3363 17.8786 16.2901 18.0159 16.3447L23.256 18.5566C23.3433 18.5944 23.4057 18.6658 23.4348 18.7581C23.4597 18.8463 23.4473 18.947 23.3974 19.0225L22.1996 20.84C22.1497 20.9197 22.0665 20.9701 21.9709 20.9785C21.9584 20.9785 21.9501 20.9785 21.9376 20.9785L21.9418 20.9827ZM19.2594 17.5577L21.8919 20.1768L22.6696 18.9974L19.2594 17.5577Z" fill="#231F20"/>
<path d="M17.0926 17.6165L19.0681 22.393L21.0518 27.1653L22.6696 26.074L24.2915 24.9869L20.6941 21.3017L17.0926 17.6165Z" fill="white"/>
<path d="M17.6915 18.2755L19.5713 22.8127L21.451 27.35L22.9898 26.3132L24.5327 25.2807L21.1142 21.7802L17.6915 18.2755Z" fill="#FFE724"/>
<path d="M21.0518 27.4801C21.0227 27.4801 20.9894 27.4759 20.9603 27.4675C20.873 27.4423 20.7981 27.3751 20.7607 27.287L16.8015 17.7382C16.7433 17.5997 16.7932 17.4402 16.918 17.3563C17.0427 17.2723 17.2091 17.2891 17.3131 17.3982L24.5119 24.7686C24.5785 24.8358 24.6076 24.9281 24.5993 25.0205C24.5909 25.1128 24.541 25.1968 24.462 25.2513L21.2182 27.4297C21.1682 27.4633 21.1059 27.4843 21.0435 27.4843L21.0518 27.4801ZM18.0034 18.9932L21.1932 26.691L23.8091 24.9323L18.0034 18.989V18.9932Z" fill="#231F20"/>
<path d="M15.7992 17.9816L15.7036 22.4307L15.6121 26.8798L17.2631 26.5902L18.91 26.3048L17.3546 22.1453L15.7992 17.9816Z" fill="white"/>
<path d="M16.29 18.6238L16.2026 22.8505L16.1111 27.0771L17.679 26.8043L19.2469 26.5357L17.7705 22.5818L16.29 18.6238Z" fill="#FFE724"/>
<path d="M15.6121 27.1946C15.5372 27.1946 15.4665 27.1695 15.4083 27.1191C15.3376 27.0561 15.296 26.968 15.3002 26.8756L15.4873 17.9774C15.4873 17.8263 15.5996 17.7004 15.7452 17.6752C15.8907 17.65 16.0363 17.734 16.0904 17.8725L19.2011 26.1957C19.2344 26.2838 19.2261 26.3804 19.1803 26.4643C19.1346 26.5441 19.0556 26.6028 18.9641 26.6196L15.6662 27.1904C15.6662 27.1904 15.6287 27.1946 15.6121 27.1946ZM16.0779 19.6144L15.9323 26.5021L18.4858 26.0572L16.0779 19.6102V19.6144Z" fill="#231F20"/>
<path d="M14.4435 18.2545L12.5637 22.7833L10.6881 27.3122L11.3493 28.0383L12.0106 28.7644L13.225 23.5094L14.4435 18.2545Z" fill="white"/>
<path d="M14.7679 18.9386L12.9838 23.2408L11.1996 27.543L11.8276 28.2356L12.4556 28.9239L13.6117 23.9334L14.7679 18.9386Z" fill="#FFE724"/>
<path d="M12.0106 29.0792C11.9233 29.0792 11.8401 29.0415 11.7819 28.9785L10.4594 27.5262C10.3762 27.4339 10.3554 27.3038 10.4011 27.1905L14.1565 18.1327C14.2189 17.9816 14.3853 17.9061 14.5391 17.9565C14.693 18.0068 14.7845 18.1663 14.7471 18.3258L12.3142 28.8358C12.2892 28.9491 12.2019 29.0373 12.0896 29.0666C12.0647 29.075 12.0355 29.075 12.0106 29.075V29.0792ZM11.0541 27.245L11.8442 28.1097L13.2957 21.8431L11.0582 27.245H11.0541Z" fill="#231F20"/>
<path d="M13.3705 17.2471L8.27183 20.6301L3.16899 24.0047L4.78676 25.6836L6.40453 27.3626L9.88544 22.3048L13.3705 17.2471Z" fill="white"/>
<path d="M13.5327 17.9229L8.69187 21.1338L3.84688 24.3447L5.37731 25.9355L6.91606 27.5304L10.2265 22.7288L13.5327 17.9229Z" fill="#FFE724"/>
<path d="M6.40453 27.6773C6.32136 27.6773 6.23818 27.6438 6.17996 27.5808L2.94442 24.2272C2.87788 24.16 2.84877 24.0677 2.85708 23.9753C2.8654 23.883 2.91947 23.7991 2.99432 23.7445L13.1917 16.9869C13.3164 16.9029 13.4828 16.9239 13.5868 17.0289C13.6907 17.138 13.7032 17.3059 13.62 17.4276L6.65406 27.5388C6.59999 27.6144 6.51682 27.6647 6.42533 27.6731C6.41701 27.6731 6.40869 27.6731 6.40037 27.6731L6.40453 27.6773ZM3.65973 24.0635L6.3671 26.8715L12.1977 18.4098L3.66389 24.0635H3.65973Z" fill="#231F20"/>
<path d="M12.4764 15.8494L8.40492 16.2901L4.33347 16.7351L4.79093 18.2377L5.24424 19.7361L8.86239 17.7928L12.4764 15.8494Z" fill="white"/>
<path d="M12.6885 16.3699L8.82081 16.7896L4.95729 17.2135L5.3898 18.6364L5.82232 20.0635L9.25748 18.2167L12.6885 16.3699Z" fill="#FFE724"/>
<path d="M5.24424 20.0509C5.20265 20.0509 5.16522 20.0425 5.12364 20.0257C5.0363 19.9879 4.97392 19.9166 4.94481 19.8284L4.02987 16.8274C4.00076 16.7392 4.0174 16.6385 4.0673 16.5629C4.11721 16.4832 4.20038 16.4328 4.29604 16.4244L12.4389 15.5346C12.5887 15.5178 12.7259 15.6102 12.7717 15.7571C12.8174 15.8998 12.7509 16.0551 12.6219 16.1264L5.39396 20.0173C5.34821 20.0425 5.2983 20.0551 5.2484 20.0551L5.24424 20.0509ZM4.74103 17.0079L5.43139 19.2786L10.9085 16.3321L4.74103 17.0037V17.0079Z" fill="#231F20"/>
<path d="M12.2851 14.6448L7.43593 13.2261L2.58678 11.8074L2.41211 13.7382L2.23744 15.6647L7.26126 15.1569L12.2851 14.6448Z" fill="white"/>
<path d="M12.4556 15.0226L7.84764 13.6752L3.2397 12.3279L3.07335 14.1621L2.907 15.9921L7.68129 15.5094L12.4556 15.0226Z" fill="#FFE724"/>
<path d="M2.23744 15.9795C2.15426 15.9795 2.07524 15.946 2.01702 15.8872C1.95048 15.82 1.91721 15.7277 1.92553 15.6354L2.27071 11.7781C2.27902 11.6857 2.32893 11.5976 2.40379 11.5472C2.47865 11.4926 2.57846 11.4801 2.66579 11.5052L12.3682 14.3426C12.5138 14.3846 12.6053 14.5231 12.5928 14.6742C12.5803 14.8253 12.4639 14.9428 12.3142 14.9596L2.26655 15.9795C2.26655 15.9795 2.24575 15.9795 2.23744 15.9795ZM2.86125 12.2146L2.58262 15.3122L10.6507 14.4937L2.86125 12.2146Z" fill="#231F20"/>
<path d="M12.7259 13.4654L8.65861 9.07502L4.59547 4.68887L3.26466 6.53567L1.938 8.38247L7.33195 10.926L12.7259 13.4654Z" fill="white"/>
<path d="M12.8756 13.671L9.0121 9.49895L5.15274 5.33105L3.88847 7.08551L2.62836 8.83997L7.74783 11.2534L12.8756 13.671Z" fill="#FFE724"/>
<path d="M12.7259 13.7802C12.6802 13.7802 12.6386 13.7718 12.5928 13.7508L1.80492 8.66789C1.72174 8.63011 1.65936 8.55036 1.63441 8.46222C1.60946 8.36988 1.63025 8.27335 1.68431 8.19779L4.34178 4.50419C4.39584 4.42864 4.48318 4.38247 4.57467 4.37408C4.66617 4.36568 4.75766 4.40346 4.82004 4.47481L12.9505 13.2513C13.0544 13.3604 13.0628 13.5283 12.9754 13.6501C12.913 13.734 12.8216 13.7802 12.7217 13.7802H12.7259ZM2.4121 8.25656L11.3951 12.4916L4.62458 5.18415L2.4121 8.26075V8.25656Z" fill="#231F20"/>
<path d="M13.986 12.2356L12.9006 8.59655L11.8151 4.95752L10.5508 5.62908L9.28241 6.30484L11.6363 9.26812L13.986 12.2356Z" fill="white"/>
<path d="M14.2896 12.4748L13.2541 9.02047L12.2227 5.56192L11.0249 6.19991L9.81889 6.84209L12.0563 9.65846L14.2896 12.4748Z" fill="#FFE724"/>
<path d="M13.986 12.5504C13.8945 12.5504 13.803 12.5084 13.7406 12.4328L9.03704 6.5021C8.97882 6.43075 8.95803 6.33421 8.97466 6.24187C8.99546 6.14953 9.05368 6.06978 9.13269 6.02781L11.6612 4.68049C11.7444 4.63851 11.8401 4.63432 11.9274 4.66789C12.0147 4.70567 12.0771 4.77702 12.1062 4.86936L14.2813 12.1474C14.3229 12.2901 14.2605 12.4454 14.1274 12.5168C14.0817 12.542 14.0318 12.5546 13.9818 12.5546L13.986 12.5504ZM9.76067 6.40556L13.2208 10.7665L11.6238 5.41501L9.76483 6.40556H9.76067Z" fill="#231F20"/>
<path d="M7.96824 0.814789L8.48809 2.39296L10.135 2.40555L8.80832 3.39191L9.30737 4.97429L7.96824 4.00472L6.62911 4.97429L7.12817 3.39191L5.80151 2.40555L7.44839 2.39296L7.96824 0.814789Z" fill="white"/>
<path d="M8.38828 1.34366L8.87902 2.84208L10.4469 2.85048L9.18677 3.79067L9.65671 5.29329L8.38828 4.37409L7.11569 5.29329L7.58979 3.79067L6.32968 2.85048L7.89339 2.84208L8.38828 1.34366Z" fill="#FFE724"/>
<path d="M6.62911 5.28909C6.56673 5.28909 6.50019 5.2681 6.44612 5.23033C6.33799 5.15058 6.29225 5.00787 6.33384 4.88195L6.76219 3.51364L5.61852 2.6616C5.51039 2.58185 5.46465 2.43914 5.50624 2.30902C5.54782 2.17891 5.66427 2.09077 5.80151 2.09077L7.22382 2.07817L7.67297 0.714061C7.71455 0.583945 7.83516 0.5 7.96824 0.5C8.10132 0.5 8.22193 0.588143 8.26351 0.714061L8.71266 2.07817L10.135 2.09077C10.2681 2.09077 10.3887 2.17891 10.4302 2.30902C10.4718 2.43914 10.4302 2.57765 10.318 2.6616L9.17429 3.51364L9.60264 4.88195C9.64423 5.01207 9.59849 5.15058 9.49036 5.23033C9.38223 5.31007 9.23251 5.31007 9.12438 5.23033L7.96824 4.39507L6.8121 5.23033C6.75803 5.2681 6.69565 5.28909 6.62911 5.28909ZM6.7414 2.71196L7.31115 3.13589C7.41928 3.21564 7.46503 3.35415 7.42344 3.48426L7.20718 4.16422L7.78525 3.74869C7.89338 3.66894 8.03894 3.66894 8.14707 3.74869L8.72098 4.16422L8.50888 3.48426C8.46729 3.35415 8.51304 3.21564 8.62117 3.13589L9.19092 2.71196H8.47977C8.34669 2.70357 8.23024 2.61962 8.1845 2.48951L7.95992 1.80955L7.73535 2.48951C7.69376 2.61543 7.57731 2.70357 7.44007 2.70357H6.72892L6.7414 2.71196Z" fill="#231F20"/>
<path d="M21.7089 0.898743L22.2287 2.47272L23.8756 2.48531L22.549 3.47167L23.048 5.05824L21.7089 4.09287L20.3698 5.05824L20.8688 3.47167L19.5422 2.48531L21.189 2.47272L21.7089 0.898743Z" fill="white"/>
<path d="M22.1289 1.42761L22.6238 2.92184L24.1834 2.93443L22.9274 3.87042L23.4015 5.37725L22.1289 4.45804L20.8563 5.37725L21.3304 3.87042L20.0703 2.93443L21.634 2.92184L22.1289 1.42761Z" fill="#FFE724"/>
<path d="M23.048 5.37304C22.9856 5.37304 22.9191 5.35206 22.865 5.31428L21.7089 4.47902L20.5527 5.31428C20.4446 5.39403 20.2949 5.39403 20.1868 5.31428C20.0786 5.23453 20.0329 5.09182 20.0745 4.96591L20.5028 3.5934L19.3592 2.74135C19.251 2.6616 19.2053 2.5189 19.2469 2.38878C19.2885 2.25867 19.4049 2.17052 19.5422 2.17052L20.9645 2.15793L21.4136 0.798015C21.4552 0.667899 21.5758 0.583954 21.7089 0.583954C21.842 0.583954 21.9626 0.672097 22.0042 0.798015L22.4533 2.15793L23.8756 2.17052C24.0087 2.17052 24.1293 2.25867 24.1709 2.38878C24.2125 2.5189 24.1709 2.65741 24.0586 2.74135L22.9149 3.5934L23.3433 4.96591C23.3849 5.09602 23.3391 5.23453 23.231 5.31428C23.1769 5.35206 23.1104 5.37304 23.048 5.37304ZM21.7089 3.77808C21.7713 3.77808 21.8378 3.79906 21.8919 3.83684L22.4699 4.25237L22.2537 3.56821C22.2121 3.4381 22.2578 3.29959 22.366 3.21984L22.9357 2.79592H22.2246C22.0915 2.78752 21.975 2.70358 21.9293 2.57346L21.7047 1.8977L21.4802 2.57346C21.4386 2.69938 21.3221 2.78752 21.1849 2.78752H20.4737L21.0435 3.21984C21.1516 3.29959 21.1974 3.4381 21.1558 3.56821L20.9395 4.25237L21.5134 3.83684C21.5675 3.79906 21.6299 3.77808 21.6964 3.77808H21.7089Z" fill="#231F20"/>
<path d="M30.5214 12.202L31.0412 13.7802L32.6881 13.7928L31.3656 14.7749L31.8605 16.3615L30.5214 15.3919L29.1822 16.3615L29.6813 14.7749L28.3588 13.7928L30.0015 13.7802L30.5214 12.202Z" fill="white"/>
<path d="M30.9414 12.7267L31.4363 14.2251L33 14.2377L31.7399 15.1737L32.214 16.6805L30.9414 15.7613L29.6688 16.6805L30.1429 15.1737L28.887 14.2377L30.4465 14.2251L30.9414 12.7267Z" fill="#FFE724"/>
<path d="M29.1822 16.6763C29.1199 16.6763 29.0533 16.6553 28.9993 16.6175C28.8911 16.5378 28.8454 16.3951 28.887 16.2692L29.3153 14.9008L28.1717 14.0488C28.0635 13.9691 28.0178 13.8263 28.0594 13.6962C28.101 13.5661 28.2174 13.478 28.3546 13.478L29.7769 13.4654L30.2261 12.1013C30.2677 11.9712 30.3883 11.8872 30.5214 11.8872C30.6545 11.8872 30.7751 11.9753 30.8166 12.1013L31.2658 13.4654L32.6881 13.478C32.8212 13.478 32.9418 13.5661 32.9834 13.6962C33.025 13.8263 32.9834 13.9649 32.8711 14.0488L31.7274 14.9008L32.1558 16.2692C32.1974 16.3993 32.1516 16.5378 32.0435 16.6175C31.9354 16.6973 31.7898 16.6973 31.6775 16.6175L30.5214 15.7823L29.3652 16.6175C29.3112 16.6553 29.2488 16.6763 29.1822 16.6763ZM30.5214 15.0813C30.5838 15.0813 30.6503 15.1023 30.7044 15.1401L31.2824 15.5556L31.0703 14.8757C31.0287 14.7455 31.0745 14.607 31.1826 14.5273L31.7524 14.1034H31.0454C30.9123 14.0992 30.7959 14.011 30.7501 13.8809L30.5255 13.201L30.301 13.8809C30.2594 14.0068 30.1429 14.095 30.0057 14.095H29.2987L29.8684 14.5231C29.9766 14.6028 30.0223 14.7414 29.9807 14.8715L29.7686 15.5514L30.3425 15.1359C30.3966 15.0981 30.459 15.0771 30.5255 15.0771L30.5214 15.0813Z" fill="#231F20"/>
<path d="M25.8885 19.6228L26.4042 21.2009L28.051 21.2135L26.7244 22.1999L27.2234 23.7823L25.8885 22.8127L24.5493 23.7823L25.0484 22.1999L23.7217 21.2135L25.3645 21.2009L25.8885 19.6228Z" fill="white"/>
<path d="M26.3044 20.1516L26.7992 21.65L28.363 21.6584L27.1028 22.5944L27.5769 24.1012L26.3044 23.182L25.0359 24.1012L25.5059 22.5944L24.2499 21.6584L25.8095 21.65L26.3044 20.1516Z" fill="#FFE724"/>
<path d="M24.5493 24.0971C24.487 24.0971 24.4204 24.0761 24.3663 24.0383C24.2582 23.9585 24.2125 23.8158 24.2541 23.6899L24.6824 22.3216L23.5387 21.4696C23.4306 21.3898 23.3849 21.2471 23.4265 21.1212C23.4681 20.9911 23.5845 20.9029 23.7217 20.9029L25.1399 20.8903L25.589 19.5262C25.6306 19.3961 25.7512 19.3122 25.8843 19.3122C26.0174 19.3122 26.138 19.4003 26.1796 19.5262L26.6287 20.8903L28.051 20.9029C28.1841 20.9029 28.3047 20.9911 28.3463 21.1212C28.3879 21.2513 28.3463 21.3898 28.234 21.4696L27.0904 22.3216L27.5187 23.6899C27.5603 23.82 27.5146 23.9585 27.4064 24.0383C27.2983 24.118 27.1486 24.118 27.0404 24.0383L25.8843 23.203L24.7282 24.0383C24.6741 24.0761 24.6117 24.0971 24.5452 24.0971H24.5493ZM24.6616 21.5199L25.2314 21.9439C25.3395 22.0236 25.3853 22.1621 25.3437 22.2922L25.1316 22.9722L25.7055 22.5567C25.8136 22.4769 25.9592 22.4769 26.0673 22.5567L26.6412 22.9722L26.4291 22.2922C26.3875 22.1621 26.4333 22.0236 26.5414 21.9439L27.1112 21.5199H26.4042C26.2711 21.5157 26.1546 21.4276 26.1089 21.2975L25.8843 20.6175L25.6597 21.2975C25.6181 21.4234 25.4975 21.5115 25.3645 21.5115H24.6575L24.6616 21.5199Z" fill="#231F20"/>
<path d="M2.47865 17.8138L2.99434 19.3919L4.64538 19.4045L3.31873 20.3909L3.81778 21.9732L2.47865 21.0079L1.13952 21.9732L1.63857 20.3909L0.31192 19.4045L1.9588 19.3919L2.47865 17.8138Z" fill="white"/>
<path d="M2.89869 18.3426L3.38943 19.841L4.95313 19.8536L3.69718 20.7896L4.16712 22.2922L2.89869 21.373L1.6261 22.2922L2.1002 20.7896L0.840088 19.8536L2.40379 19.841L2.89869 18.3426Z" fill="#FFE724"/>
<path d="M1.13952 22.288C1.07713 22.288 1.01059 22.267 0.956529 22.2293C0.8484 22.1495 0.802654 22.0068 0.844242 21.8809L1.2726 20.5126L0.12893 19.6605C0.0208012 19.5808 -0.0249455 19.4381 0.0166424 19.3122C0.0582303 19.1821 0.174676 19.0939 0.311917 19.0939L1.73422 19.0813L2.18337 17.7172C2.22496 17.5871 2.34557 17.5031 2.47865 17.5031C2.61173 17.5031 2.73233 17.5913 2.77392 17.7172L3.22307 19.0813L4.64538 19.0939C4.77846 19.0939 4.89906 19.1821 4.94065 19.3122C4.98224 19.4423 4.94065 19.5808 4.82836 19.6605L3.6847 20.5126L4.11305 21.8809C4.15464 22.011 4.10889 22.1495 4.00076 22.2293C3.89264 22.309 3.74708 22.309 3.63479 22.2293L2.47865 21.394L1.3225 22.2293C1.26844 22.267 1.20606 22.288 1.13952 22.288ZM1.2518 19.7109L1.82156 20.1348C1.92969 20.2146 1.97543 20.3531 1.93384 20.4832L1.72175 21.1632L2.29982 20.7476C2.40795 20.6679 2.5535 20.6679 2.66163 20.7476L3.23555 21.1632L3.02345 20.4832C2.98186 20.3531 3.02761 20.2146 3.13574 20.1348L3.70549 19.7109H2.99434C2.86125 19.7025 2.74481 19.6186 2.69906 19.4885L2.47865 18.8127L2.25407 19.4927C2.21248 19.6186 2.09188 19.7067 1.9588 19.7067H1.2518V19.7109Z" fill="#231F20"/>
<path d="M16.0113 28.0215L16.5312 29.5997L18.1739 29.6081L16.8514 30.5986L17.3505 32.181L16.0113 31.2114L14.6722 32.181L15.1713 30.5986L13.8446 29.6081L15.4915 29.5997L16.0113 28.0215Z" fill="white"/>
<path d="M16.4314 28.5504L16.9263 30.0446L18.4858 30.0572L17.2299 30.9932L17.6998 32.5L16.4314 31.5808L15.1588 32.5L15.6329 30.9932L14.3728 30.0572L15.9365 30.0446L16.4314 28.5504Z" fill="#FFE724"/>
<path d="M17.3505 32.4958C17.2881 32.4958 17.2216 32.4748 17.1675 32.437L16.0113 31.6018L14.8552 32.437C14.7471 32.5168 14.5974 32.5168 14.4892 32.437C14.3811 32.3573 14.3354 32.2146 14.3769 32.0887L14.8053 30.7204L13.6616 29.8683C13.5535 29.7886 13.5078 29.6458 13.5493 29.5199C13.5909 29.3898 13.7115 29.3017 13.8446 29.3017L15.2669 29.2891L15.7161 27.925C15.7577 27.7949 15.8783 27.7109 16.0113 27.7109C16.1444 27.7109 16.265 27.799 16.3066 27.925L16.7558 29.2891L18.1781 29.3017C18.3112 29.3017 18.4318 29.3898 18.4733 29.5199C18.5149 29.65 18.4733 29.7886 18.3611 29.8683L17.2174 30.7204L17.6457 32.0887C17.6873 32.2188 17.6416 32.3573 17.5335 32.437C17.4794 32.479 17.4129 32.4958 17.3505 32.4958ZM16.0113 30.9008C16.0737 30.9008 16.1403 30.9218 16.1943 30.9596L16.7724 31.3751L16.5603 30.6952C16.5187 30.5651 16.5645 30.4265 16.6726 30.3468L17.2423 29.9229H16.5354C16.4023 29.9187 16.2858 29.8305 16.2401 29.7004L16.0155 29.0205L15.7909 29.7004C15.7493 29.8263 15.6287 29.9145 15.4957 29.9145H14.7887L15.3584 30.3468C15.4665 30.4265 15.5123 30.5651 15.4707 30.6952L15.2586 31.3751L15.8325 30.9596C15.8866 30.9218 15.949 30.9008 16.0155 30.9008H16.0113Z" fill="#231F20"/>
</g>
<defs>
<clipPath id="clip0_19_124">
<rect width="33" height="32" fill="white" transform="translate(0 0.5)"/>
</clipPath>
</defs>
</svg>
