<svg width="512" height="512" viewBox="0 0 512 512" fill="none" xmlns="http://www.w3.org/2000/svg">
<rect width="512" height="512" rx="40" fill="#588CA3"/>
<path d="M120.538 274.143H186.459C155.407 296.095 140.079 312.727 118.841 312.727C96.6127 310.907 103.004 292.147 108.519 281.535C109.632 279.32 111.345 277.455 113.468 276.15C115.591 274.844 118.039 274.149 120.538 274.143Z" fill="white"/>
<path d="M126.731 451.411H55.6914C55.5282 451.41 55.3675 451.371 55.2223 451.297C55.0771 451.223 54.9514 451.116 54.8552 450.986C54.759 450.855 54.695 450.704 54.6683 450.544C54.6417 450.385 54.6531 450.222 54.7016 450.067L61.6868 428.955C61.8783 428.375 62.1938 427.842 62.6117 427.393C63.0297 426.943 63.5404 426.589 64.1092 426.352C64.6779 426.116 65.2914 426.003 65.9079 426.022C66.5244 426.042 67.1296 426.192 67.6823 426.463C86.793 435.752 106.659 443.433 127.071 449.423C127.337 449.468 127.575 449.615 127.731 449.833C127.887 450.051 127.95 450.322 127.905 450.585C127.86 450.849 127.711 451.084 127.491 451.239C127.271 451.394 126.998 451.456 126.731 451.411Z" fill="white"/>
<path d="M393.668 274.143H327.775C358.883 296.095 374.126 312.587 395.365 312.587C417.593 310.767 411.202 292.007 405.687 281.395C404.557 279.204 402.835 277.366 400.714 276.086C398.592 274.806 396.153 274.133 393.668 274.143Z" fill="white"/>
<path d="M387.503 451.411H458.543C458.709 451.416 458.873 451.381 459.021 451.309C459.17 451.237 459.299 451.13 459.396 450.998C459.493 450.865 459.557 450.711 459.581 450.549C459.605 450.387 459.588 450.222 459.533 450.067L452.548 428.955C452.353 428.374 452.035 427.841 451.614 427.391C451.193 426.942 450.68 426.587 450.109 426.351C449.538 426.115 448.923 426.003 448.304 426.022C447.686 426.041 447.079 426.192 446.524 426.463C427.412 435.75 407.546 443.431 387.136 449.423C386.869 449.472 386.633 449.623 386.48 449.843C386.326 450.064 386.267 450.336 386.316 450.599C386.364 450.863 386.517 451.097 386.74 451.249C386.962 451.401 387.237 451.46 387.503 451.411Z" fill="white"/>
<path d="M477.322 277.083C380.377 411.203 344.404 286.379 285.977 286.379C263.099 286.379 257.075 304.663 257.075 312.699C257.075 304.663 251.08 286.379 228.201 286.379C169.746 286.379 133.801 411.203 36.8284 277.083C34.9619 424.167 176.222 459.083 257.047 366.935C337.928 458.943 479.188 424.167 477.322 277.083Z" fill="white"/>
<path d="M465.925 221.951C455.065 227.719 443.046 233.431 432.78 237.799C429.411 239.226 425.783 239.96 422.119 239.955H92.0598C88.3953 239.957 84.7684 239.224 81.3981 237.799C71.1324 233.431 59.1133 227.719 48.1405 221.951C47.1593 221.429 46.3933 220.583 45.975 219.56C45.5567 218.538 45.5125 217.403 45.8498 216.351C47.1507 212.067 49.5828 204.507 53.0896 196.051C53.3415 195.448 53.717 194.902 54.1924 194.449C54.6678 193.996 55.2328 193.645 55.8518 193.419C56.4708 193.193 57.1304 193.096 57.789 193.135C58.4477 193.173 59.0912 193.346 59.6789 193.643C70.2274 198.935 78.6549 202.715 86.5168 205.991V142.431C86.5391 141.302 86.9707 140.219 87.7329 139.379C108.517 114.903 134.426 95.1914 163.666 81.6107C192.906 68.03 224.778 60.9044 257.075 60.7273C289.376 60.9059 321.252 68.0321 350.496 81.6126C379.74 95.193 405.655 114.903 426.446 139.379C427.168 140.236 427.568 141.315 427.577 142.431V206.075C435.439 202.799 443.866 199.019 454.443 193.727C455.029 193.431 455.67 193.258 456.327 193.22C456.983 193.181 457.641 193.278 458.258 193.505C458.874 193.731 459.437 194.082 459.91 194.535C460.382 194.987 460.755 195.532 461.004 196.135C464.511 204.535 466.943 212.151 468.244 216.435C468.562 217.478 468.505 218.599 468.082 219.605C467.659 220.611 466.897 221.44 465.925 221.951Z" fill="white"/>
</svg>
