<svg width="30" height="32" viewBox="0 0 30 32" fill="none" xmlns="http://www.w3.org/2000/svg">
<g clip-path="url(#clip0_15_251)">
<path d="M27.2151 2.00787H2.7849V22.7593H27.2151V2.00787Z" fill="white"/>
<path d="M27.0052 2.93114H3.79507V22.6464H27.0052V2.93114Z" fill="#FFE724"/>
<path d="M27.2151 23.0617H2.7849C2.62248 23.0617 2.48779 22.9246 2.48779 22.7593V2.00787C2.48779 1.84257 2.62248 1.70549 2.7849 1.70549H27.2151C27.3775 1.70549 27.5122 1.84257 27.5122 2.00787V22.7593C27.5122 22.9246 27.3775 23.0617 27.2151 23.0617ZM3.08201 22.4569H26.918V2.31025H3.08201V22.4569Z" fill="#2A2A2A"/>
<path d="M29.7029 1.10476H0.297108C0.134689 1.10476 0 0.967683 0 0.802381C0 0.63708 0.134689 0.5 0.297108 0.5H29.7029C29.8653 0.5 30 0.63708 30 0.802381C30 0.967683 29.8653 1.10476 29.7029 1.10476Z" fill="#2A2A2A"/>
<path d="M29.7029 24.3881H0.297108C0.134689 24.3881 0 24.251 0 24.0857C0 23.9204 0.134689 23.7834 0.297108 23.7834H29.7029C29.8653 23.7834 30 23.9204 30 24.0857C30 24.251 29.8653 24.3881 29.7029 24.3881Z" fill="#2A2A2A"/>
<path d="M4.89634 32.5C4.85673 32.5 4.82108 32.4919 4.78146 32.4758C4.63093 32.4113 4.55962 32.2339 4.623 32.0807L7.94269 23.9728C8.00608 23.8196 8.18038 23.7471 8.33091 23.8116C8.48145 23.8761 8.55276 24.0535 8.48937 24.2067L5.16968 32.3145C5.12215 32.4315 5.01123 32.5 4.89634 32.5Z" fill="#2A2A2A"/>
<path d="M25.1037 32.5C24.9888 32.5 24.8778 32.4315 24.8303 32.3145L21.5106 24.2067C21.4472 24.0535 21.5185 23.8761 21.6691 23.8116C21.8196 23.7471 21.9939 23.8196 22.0573 23.9728L25.377 32.0807C25.4404 32.2339 25.3691 32.4113 25.2185 32.4758C25.1829 32.4919 25.1433 32.5 25.1037 32.5Z" fill="#2A2A2A"/>
<path d="M9.03208 13.9338H7.04344V20.1346H9.03208V13.9338Z" fill="white"/>
<path d="M9.3807 14.4942H7.49109V20.3846H9.3807V14.4942Z" fill="#FFE724"/>
<path d="M9.03209 20.437H7.04345C6.88103 20.437 6.74634 20.2999 6.74634 20.1346V13.9338C6.74634 13.7685 6.88103 13.6314 7.04345 13.6314H9.03209C9.19451 13.6314 9.3292 13.7685 9.3292 13.9338V20.1346C9.3292 20.2999 9.19451 20.437 9.03209 20.437ZM7.34055 19.8322H8.73498V14.2362H7.34055V19.8322Z" fill="#2A2A2A"/>
<path d="M12.5102 12.6194H10.5216V20.1346H12.5102V12.6194Z" fill="white"/>
<path d="M12.8628 13.2121H10.9732V20.3523H12.8628V13.2121Z" fill="#FFE724"/>
<path d="M12.5142 20.437H10.5255C10.3631 20.437 10.2284 20.2999 10.2284 20.1346V12.6194C10.2284 12.4541 10.3631 12.3171 10.5255 12.3171H12.5142C12.6766 12.3171 12.8113 12.4541 12.8113 12.6194V20.1346C12.8113 20.2999 12.6766 20.437 12.5142 20.437ZM10.8227 19.8322H12.2171V12.9218H10.8227V19.8322Z" fill="#2A2A2A"/>
<path d="M15.9924 11.3172H14.0037V20.1346H15.9924V11.3172Z" fill="white"/>
<path d="M16.3449 11.9421H14.4553V20.3201H16.3449V11.9421Z" fill="#FFE724"/>
<path d="M15.9963 20.437H14.0077C13.8452 20.437 13.7106 20.2999 13.7106 20.1346V11.3172C13.7106 11.1519 13.8452 11.0148 14.0077 11.0148H15.9963C16.1587 11.0148 16.2934 11.1519 16.2934 11.3172V20.1346C16.2934 20.2999 16.1587 20.437 15.9963 20.437ZM14.3048 19.8322H15.6992V11.6196H14.3048V19.8322Z" fill="#2A2A2A"/>
<path d="M19.4744 9.96252H17.4858V20.1346H19.4744V9.96252Z" fill="white"/>
<path d="M19.823 10.6237H17.9334V20.2838H19.823V10.6237Z" fill="#FFE724"/>
<path d="M19.4744 20.437H17.4858C17.3234 20.437 17.1887 20.2999 17.1887 20.1346V9.96252C17.1887 9.79722 17.3234 9.66014 17.4858 9.66014H19.4744C19.6369 9.66014 19.7716 9.79722 19.7716 9.96252V20.1346C19.7716 20.2999 19.6369 20.437 19.4744 20.437ZM17.7829 19.8322H19.1773V10.2649H17.7829V19.8322Z" fill="#2A2A2A"/>
<path d="M22.9566 8.43045H20.9679V20.1346H22.9566V8.43045Z" fill="white"/>
<path d="M23.3052 9.12794H21.4156V20.2475H23.3052V9.12794Z" fill="#FFE724"/>
<path d="M22.9566 20.437H20.9679C20.8055 20.437 20.6708 20.2999 20.6708 20.1346V8.43045C20.6708 8.26515 20.8055 8.12807 20.9679 8.12807H22.9566C23.119 8.12807 23.2537 8.26515 23.2537 8.43045V20.1346C23.2537 20.2999 23.119 20.437 22.9566 20.437ZM21.265 19.8322H22.6595V8.73283H21.265V19.8322Z" fill="#2A2A2A"/>
<path d="M6.86914 11.8171C6.73841 11.8171 6.61957 11.7284 6.58392 11.5913C6.54034 11.4301 6.63542 11.2648 6.79387 11.2204C6.90479 11.1882 18.0127 8.14016 20.9758 5.55581C21.1026 5.44695 21.2888 5.46308 21.3957 5.58806C21.5027 5.71304 21.4869 5.90657 21.3641 6.01543C18.3019 8.68848 7.41186 11.68 6.95233 11.805C6.9246 11.8131 6.90083 11.8171 6.87706 11.8171H6.86914Z" fill="#2A2A2A"/>
<path d="M21.1224 7.50718C21.0947 7.50718 21.0669 7.50718 21.0392 7.49508C20.8808 7.4467 20.7896 7.2814 20.8372 7.12013L21.2611 5.62838L19.7795 5.9993C19.621 6.03962 19.4586 5.93883 19.419 5.77756C19.3794 5.61629 19.4784 5.45098 19.6369 5.41067L21.6176 4.91476C21.7206 4.89057 21.8275 4.91879 21.9028 4.99943C21.9781 5.07603 22.0018 5.18892 21.9741 5.29375L21.4037 7.28946C21.3641 7.42251 21.2492 7.50718 21.1184 7.50718H21.1224Z" fill="#2A2A2A"/>
</g>
<defs>
<clipPath id="clip0_15_251">
<rect width="30" height="32" fill="white" transform="translate(0 0.5)"/>
</clipPath>
</defs>
</svg>
