<svg width="33" height="36" viewBox="0 0 33 36" fill="none" xmlns="http://www.w3.org/2000/svg">
<g clip-path="url(#clip0_15_74)">
<path d="M16.1812 1.08066C18.9909 1.08066 21.273 4.07852 21.273 7.77735C21.273 11.4762 18.9953 14.474 16.1812 14.474C13.3671 14.474 11.0894 11.4762 11.0894 7.77735C11.0894 4.07852 13.3671 1.08066 16.1812 1.08066Z" fill="white"/>
<path d="M16.6253 1.86096C19.2943 1.86096 21.4621 4.70893 21.4621 8.22259C21.4621 11.7363 19.2987 14.5842 16.6253 14.5842C13.9519 14.5842 11.7885 11.7363 11.7885 8.22259C11.7885 4.70893 13.9519 1.86096 16.6253 1.86096Z" fill="#FFE724"/>
<path d="M16.1812 14.8003C13.1912 14.8003 10.7596 11.6481 10.7596 7.77292C10.7596 3.89775 13.1912 0.75 16.1812 0.75C19.1712 0.75 21.6028 3.90216 21.6028 7.77733C21.6028 11.6525 19.1712 14.8047 16.1812 14.8047V14.8003ZM16.1812 1.41129C13.5561 1.41129 11.4192 4.26807 11.4192 7.77733C11.4192 11.2866 13.5561 14.1434 16.1812 14.1434C18.8062 14.1434 20.9432 11.2866 20.9432 7.77733C20.9432 4.26807 18.8062 1.41129 16.1812 1.41129Z" fill="#2A2A2A"/>
<path d="M2.37881 10.8677C4.76202 9.37323 8.27968 10.709 10.2276 13.8436C12.1799 16.9825 11.8281 20.7386 9.4405 22.2288C7.05289 23.7233 3.53964 22.3875 1.58734 19.2529C-0.360563 16.1096 -0.00879788 12.3579 2.37881 10.8677Z" fill="white"/>
<path d="M2.9988 11.5952C5.26329 10.1756 8.60506 11.4409 10.4562 14.4211C12.3118 17.4057 11.9732 20.9723 9.70873 22.3875C7.43984 23.8071 4.10246 22.5418 2.2469 19.5616C0.395734 16.5813 0.725514 13.0104 2.9988 11.5952Z" fill="#FFE724"/>
<path d="M7.25076 23.1678C5.05663 23.1678 2.72618 21.6997 1.31472 19.4249C0.329779 17.8466 -0.127516 16.0655 0.0307788 14.4079C0.189073 12.7194 0.962957 11.3615 2.20733 10.5856C2.90646 10.1447 3.70673 9.92432 4.57735 9.92432C6.77148 9.92432 9.09753 11.3924 10.5134 13.6672C11.4939 15.2455 11.9512 17.0266 11.7929 18.6842C11.6346 20.3727 10.8608 21.7306 9.62078 22.5065C8.91725 22.9474 8.12138 23.1678 7.25076 23.1678ZM4.57735 10.5812C3.83424 10.5812 3.1527 10.7708 2.55909 11.1411C1.495 11.8068 0.831045 12.9883 0.690339 14.4652C0.549633 15.9773 0.967355 17.6129 1.87315 19.0678C3.17029 21.1531 5.28088 22.5021 7.25076 22.5021C7.99827 22.5021 8.67542 22.3125 9.27342 21.9378C10.3375 21.2721 11.0015 20.0906 11.1378 18.6137C11.2785 17.1015 10.8608 15.4659 9.95496 14.0067C8.65783 11.9214 6.54723 10.5768 4.57735 10.5768V10.5812Z" fill="#2A2A2A"/>
<path d="M30.4849 8.8883C28.0489 7.47754 24.5796 8.93238 22.7372 12.133C20.8905 15.3337 21.3741 19.0722 23.8057 20.4874C26.2417 21.8937 29.711 20.4433 31.5534 17.2382C33.3957 14.0332 32.9165 10.2991 30.4849 8.88389V8.8883Z" fill="white"/>
<path d="M30.7575 9.62453C28.4446 8.28431 25.1512 9.66421 23.3968 12.7106C21.6424 15.7525 22.0997 19.3059 24.4125 20.6461C26.7298 21.9819 30.0232 20.6064 31.7732 17.56C33.5233 14.5181 33.0704 10.9647 30.7575 9.62453Z" fill="#FFE724"/>
<path d="M25.8636 21.3559C25.0589 21.3559 24.3114 21.1619 23.643 20.7739C21.0532 19.2706 20.5167 15.3205 22.4514 11.9699C23.8321 9.57164 26.1757 8.01981 28.427 8.01981C29.2317 8.01981 29.9792 8.21819 30.6476 8.60174C33.233 10.1007 33.7695 14.0508 31.8392 17.4057C30.4585 19.804 28.1149 21.3559 25.8636 21.3559ZM28.427 8.6811C26.4088 8.6811 24.2894 10.1007 23.0231 12.3006C21.273 15.3381 21.6995 18.8826 23.9728 20.2008C24.54 20.527 25.1776 20.6946 25.8636 20.6946C27.8818 20.6946 30.0012 19.275 31.2676 17.0751C33.0176 14.0376 32.5911 10.493 30.3178 9.17486C29.7506 8.84422 29.113 8.6811 28.427 8.6811Z" fill="#2A2A2A"/>
<path d="M16.1812 35.75C16.0009 35.75 15.8514 35.6001 15.8514 35.4194V14.4696C15.8514 14.2889 16.0009 14.139 16.1812 14.139C16.3615 14.139 16.511 14.2889 16.511 14.4696V35.415C16.511 35.5957 16.3615 35.7456 16.1812 35.7456V35.75Z" fill="#2A2A2A"/>
<path d="M16.1812 32.2011C16.1196 32.2011 16.0537 32.1834 15.9965 32.1438C15.847 32.0424 15.8031 31.8351 15.9086 31.6853L23.5331 20.3022C23.6342 20.1523 23.8409 20.1082 23.9904 20.214C24.1399 20.3154 24.1839 20.5226 24.0783 20.6725L16.4538 32.0556C16.3923 32.1526 16.2867 32.2011 16.1812 32.2011Z" fill="#2A2A2A"/>
<path d="M16.1812 32.2011C16.0757 32.2011 15.9702 32.1482 15.9086 32.0556L9.36137 22.2861C9.26023 22.1362 9.29981 21.929 9.44931 21.8276C9.59881 21.7262 9.80547 21.7659 9.9066 21.9158L16.4538 31.6853C16.555 31.8352 16.5154 32.0424 16.3659 32.1438C16.3087 32.1834 16.2472 32.2011 16.1812 32.2011Z" fill="#2A2A2A"/>
<path d="M16.511 7.10281C17.1793 6.81184 17.6454 6.77657 18.1818 7.2042C18.7711 7.67593 18.8942 8.51356 18.4501 9.06464C17.6498 10.0698 15.781 10.2197 13.9123 10.3696C13.6397 8.50915 13.3671 6.64431 14.1673 5.63914C14.607 5.08366 15.4469 5.01753 16.0361 5.48925C16.5725 5.91689 16.6429 6.37979 16.5066 7.0984L16.511 7.10281Z" fill="white"/>
<path d="M16.9375 7.58336C17.5707 7.30562 18.0148 7.27035 18.5248 7.67594C19.0833 8.12562 19.1976 8.91917 18.7799 9.4438C18.0192 10.3961 16.2472 10.5415 14.4707 10.6826C14.2113 8.91476 13.9563 7.14691 14.7126 6.19024C15.1303 5.6612 15.9262 5.59948 16.489 6.04916C16.9991 6.45475 17.065 6.89562 16.9375 7.57895V7.58336Z" fill="#FFE724"/>
<path d="M13.9167 10.7046C13.754 10.7046 13.6133 10.5856 13.5913 10.4225C13.3143 8.52238 13.0241 6.56055 13.9167 5.44076C14.2157 5.06603 14.6686 4.85001 15.1611 4.85001C15.5524 4.85001 15.9394 4.98667 16.2515 5.23796C16.766 5.64797 16.9199 6.09764 16.9067 6.61786C17.4783 6.47238 17.9312 6.57818 18.3973 6.94851C19.1272 7.53485 19.2723 8.57969 18.7183 9.27626C17.8257 10.396 15.8558 10.5548 13.9475 10.7046C13.9387 10.7046 13.9299 10.7046 13.9211 10.7046H13.9167ZM15.1567 5.5113C14.8665 5.5113 14.6026 5.63474 14.4312 5.85076C13.7628 6.69281 13.9607 8.35926 14.1981 10.0213C15.8646 9.88465 17.5223 9.7083 18.1951 8.86185C18.5204 8.45184 18.4237 7.82141 17.9752 7.46431C17.5663 7.13808 17.2849 7.12926 16.6429 7.41141C16.533 7.45991 16.4011 7.44227 16.3043 7.36733C16.2076 7.29238 16.1636 7.16894 16.1856 7.04991C16.3087 6.37539 16.2296 6.07119 15.8338 5.75818C15.636 5.59947 15.3985 5.51571 15.1567 5.51571V5.5113Z" fill="#2A2A2A"/>
<path d="M5.91405 12.812L6.85942 14.8311L9.06675 15.1133L7.44423 16.6387L7.86195 18.8297L5.91405 17.754L3.96175 18.8297L4.37948 16.6387L2.75696 15.1133L4.96429 14.8311L5.91405 12.812Z" fill="white"/>
<path d="M6.35375 13.4071L7.25515 15.3249L9.35255 15.5894L7.80918 17.0398L8.20931 19.1251L6.35375 18.1023L4.50258 19.1251L4.90272 17.0398L3.35934 15.5894L5.45675 15.3249L6.35375 13.4071Z" fill="#FFE724"/>
<path d="M7.86195 19.1604C7.80919 19.1604 7.75203 19.1472 7.70366 19.1207L5.91405 18.1288L4.12005 19.1207C4.00572 19.1824 3.86941 19.1736 3.76828 19.0987C3.66715 19.0237 3.61438 18.8959 3.64077 18.768L4.02771 16.7533L2.5371 15.3513C2.44476 15.2632 2.40959 15.1309 2.44916 15.0075C2.48873 14.884 2.59426 14.7959 2.72178 14.7826L4.74883 14.5225L5.61945 12.6665C5.67221 12.5519 5.79093 12.4769 5.91845 12.4769C6.04596 12.4769 6.16468 12.5519 6.21745 12.6665L7.08807 14.5225L9.11512 14.7826C9.24263 14.8003 9.34816 14.8884 9.38773 15.0075C9.42731 15.1309 9.39213 15.2632 9.29979 15.3513L7.80919 16.7533L8.19173 18.768C8.21372 18.8959 8.16535 19.0237 8.05982 19.0987C8.00266 19.1383 7.9323 19.1604 7.86635 19.1604H7.86195ZM3.49566 15.3513L4.60812 16.3962C4.69167 16.4755 4.72684 16.5902 4.70486 16.7004L4.41905 18.1993L5.75576 17.4631C5.85689 17.4102 5.97561 17.4102 6.07235 17.4631L7.40466 18.1993L7.11885 16.7004C7.09686 16.5902 7.13644 16.4755 7.21558 16.3962L8.32804 15.3513L6.81545 15.1574C6.70552 15.1441 6.60879 15.0736 6.56042 14.9678L5.91405 13.5835L5.26768 14.9678C5.21931 15.0692 5.12258 15.1397 5.01265 15.1574L3.50006 15.3513H3.49566Z" fill="#2A2A2A"/>
<path d="M29.4648 10.3123L26.5671 10.3608L24.54 14.3418H26.6198L24.1795 19.0634L29.5439 13.2396H27.4685L30.1067 10.3123H29.4648Z" fill="white"/>
<path d="M29.7945 10.9736L27.042 11.0221L25.1116 14.8003H27.0859L24.7731 19.2926L29.8693 13.7554H27.895L30.4013 10.9736H29.7945Z" fill="#FFE724"/>
<path d="M24.1795 19.394C24.1135 19.394 24.0476 19.3764 23.9904 19.3323C23.8541 19.2353 23.8101 19.059 23.8849 18.9091L26.0746 14.668H24.54C24.4257 14.668 24.3202 14.6063 24.2586 14.5093C24.1971 14.4123 24.1927 14.2889 24.2454 14.1875L26.2725 10.2065C26.3296 10.0963 26.4396 10.0301 26.5627 10.0257L30.1067 9.97723C30.2386 9.97723 30.3573 10.0522 30.4101 10.1756C30.4629 10.2947 30.4409 10.4357 30.3529 10.5327L28.2116 12.9046H29.5439C29.6758 12.9046 29.7945 12.9839 29.8473 13.1029C29.9001 13.222 29.8781 13.3631 29.7857 13.46L24.4213 19.2882C24.3553 19.3588 24.2674 19.394 24.1795 19.394ZM25.0765 14.0067H26.6154C26.7298 14.0067 26.8353 14.0684 26.8969 14.1654C26.9584 14.2624 26.9628 14.3858 26.91 14.4872L25.5953 17.0354L28.7876 13.5658H27.4641C27.3322 13.5658 27.2134 13.4909 27.1607 13.3675C27.1079 13.2484 27.1299 13.1074 27.2178 13.0104L29.3592 10.6385L26.7693 10.6826L25.0765 14.0023V14.0067Z" fill="#2A2A2A"/>
</g>
<defs>
<clipPath id="clip0_15_74">
<rect width="33" height="35" fill="white" transform="translate(0 0.75)"/>
</clipPath>
</defs>
</svg>
