<svg width="31" height="30" viewBox="0 0 31 30" fill="none" xmlns="http://www.w3.org/2000/svg">
<g clip-path="url(#clip0_15_358)">
<path d="M30.707 12.2601V29.2128H0.292999V12.2601L15.498 20.7383L30.707 12.2601Z" fill="white"/>
<path d="M30.3398 13.0681V29.1745H1.4494V13.0681L15.8926 21.1251L30.3398 13.0681Z" fill="#FFE724"/>
<path d="M30.707 29.5H0.293006C0.132829 29.5 0 29.3698 0 29.2128V12.2601C0 12.1567 0.0546944 12.0648 0.144549 12.0112C0.234405 11.9614 0.3477 11.9614 0.437555 12.0112L15.498 20.409L30.5624 12.0112C30.6523 11.9614 30.7656 11.9614 30.8555 12.0112C30.9453 12.0609 31 12.1567 31 12.2601V29.2128C31 29.3698 30.8672 29.5 30.707 29.5ZM0.586011 28.9256H30.414V12.7541L15.6426 20.9873C15.5527 21.037 15.4434 21.037 15.3535 20.9873L0.586011 12.7541V28.9256Z" fill="#2A2A2A"/>
<path d="M15.498 21.0255C15.4512 21.0255 15.4004 21.0141 15.3535 20.9873L0.148456 12.509C0.0586011 12.4592 0 12.3635 0 12.2601C0 12.1567 0.0546944 12.0609 0.148456 12.0112L3.3637 10.2152C3.45356 10.1654 3.56686 10.1654 3.65671 10.2152C3.74657 10.265 3.80126 10.3607 3.80126 10.4641V13.8876L15.6035 20.4703C15.7168 20.5124 15.795 20.6158 15.795 20.7383C15.795 20.8953 15.666 21.0255 15.502 21.0255C15.502 21.0255 15.498 21.0255 15.4941 21.0255H15.498ZM0.886831 12.2601L3.21916 13.5621V10.9619L0.886831 12.2639V12.2601ZM27.4878 14.3394C27.4371 14.3394 27.3863 14.3279 27.3394 14.3011C27.2495 14.2514 27.1948 14.1556 27.1948 14.0522V10.4641C27.1948 10.3607 27.2495 10.2688 27.3394 10.2152C27.4292 10.1654 27.5425 10.1654 27.6324 10.2152L30.8515 12.0112C30.9414 12.0609 31 12.1567 31 12.2601C31 12.3635 30.9453 12.4592 30.8515 12.509L27.6324 14.3011C27.5855 14.3279 27.5386 14.3394 27.4878 14.3394ZM27.7808 10.9581V13.5582L30.1132 12.2601L27.7808 10.9581Z" fill="#2A2A2A"/>
<path d="M29.406 26.7199H18.8344C18.6742 26.7199 18.5414 26.5897 18.5414 26.4327C18.5414 26.2756 18.6742 26.1455 18.8344 26.1455H29.406C29.5662 26.1455 29.6991 26.2756 29.6991 26.4327C29.6991 26.5897 29.5662 26.7199 29.406 26.7199Z" fill="#2A2A2A"/>
<path d="M29.406 25.0081H18.8344C18.6742 25.0081 18.5414 24.8779 18.5414 24.7209C18.5414 24.5639 18.6742 24.4337 18.8344 24.4337H29.406C29.5662 24.4337 29.6991 24.5639 29.6991 24.7209C29.6991 24.8779 29.5662 25.0081 29.406 25.0081Z" fill="#2A2A2A"/>
<path d="M27.4878 14.0522V0.787205H3.50826V14.0522L15.498 20.7383L27.4878 14.0522Z" fill="white"/>
<path d="M27.2808 14.2743V1.67179H4.50447V14.2743L15.8926 20.6235L27.2808 14.2743Z" fill="#FFE724"/>
<path d="M15.498 21.0255C15.4473 21.0255 15.3965 21.0141 15.3535 20.9873L3.36761 14.3011C3.27776 14.2514 3.21915 14.1556 3.21915 14.0522V0.787205C3.21525 0.630199 3.34808 0.5 3.50825 0.5H27.4839C27.6441 0.5 27.7769 0.630199 27.7769 0.787205V14.0522C27.7769 14.1556 27.7222 14.2514 27.6285 14.3011L15.6387 20.9873C15.5918 21.0141 15.5449 21.0255 15.4941 21.0255H15.498ZM3.80517 13.8876L15.498 20.409L27.1948 13.8876V1.07441H3.80126V13.8876H3.80517Z" fill="#2A2A2A"/>
<path d="M24.5273 6.5H7.47269C7.21429 6.5 7 6.27333 7 6C7 5.72667 7.21429 5.5 7.47269 5.5H24.5273C24.7857 5.5 25 5.72667 25 6C25 6.27333 24.7857 6.5 24.5273 6.5Z" fill="#2A2A2A"/>
<path d="M24.5273 9.5H7.47269C7.21429 9.5 7 9.27333 7 9C7 8.72667 7.21429 8.5 7.47269 8.5H24.5273C24.7857 8.5 25 8.72667 25 9C25 9.27333 24.7857 9.5 24.5273 9.5Z" fill="#2A2A2A"/>
<path d="M24.5273 12.5H7.47269C7.21429 12.5 7 12.2733 7 12C7 11.7267 7.21429 11.5 7.47269 11.5H24.5273C24.7857 11.5 25 11.7267 25 12C25 12.2733 24.7857 12.5 24.5273 12.5Z" fill="#2A2A2A"/>
<path d="M5.28973 20.7537C4.68418 20.4971 4.26225 20.4626 3.77782 20.8417C3.24259 21.2591 3.1332 21.9982 3.53169 22.4884C4.25835 23.3806 5.94997 23.5108 7.64549 23.6449C7.89162 21.9982 8.13383 20.3477 7.41109 19.4555C7.00869 18.9653 6.25078 18.9041 5.71947 19.3215C5.23503 19.7006 5.17252 20.1142 5.29363 20.7498L5.28973 20.7537Z" fill="white"/>
<path d="M5.69994 21.1711C5.12565 20.926 4.72325 20.8954 4.26226 21.2553C3.75438 21.6497 3.6489 22.3544 4.02785 22.8215C4.71935 23.6678 6.32502 23.7942 7.9346 23.9206C8.16509 22.3544 8.3995 20.7881 7.71191 19.9418C7.33296 19.4746 6.61021 19.4172 6.10233 19.8155C5.64134 20.1754 5.58274 20.566 5.69603 21.1711H5.69994Z" fill="#FFE724"/>
<path d="M7.64549 23.9359C7.64549 23.9359 7.62987 23.9359 7.62205 23.9359L7.64549 23.6487L7.59861 23.9321C5.87965 23.798 4.10598 23.6563 3.3012 22.6684C3.06679 22.3812 2.96131 22.0135 3.00819 21.6421C3.05507 21.2438 3.26994 20.8724 3.5942 20.6158C4.01613 20.2865 4.42243 20.1946 4.94593 20.3286C4.93031 19.8652 5.07095 19.4632 5.53585 19.0994C5.81714 18.8811 6.16484 18.7585 6.51644 18.7585C6.96181 18.7585 7.37202 18.9462 7.64159 19.2755C8.44247 20.2673 8.18462 22.0059 7.93459 23.687C7.91506 23.8287 7.79004 23.9321 7.64549 23.9321V23.9359ZM4.5201 20.8456C4.32867 20.8456 4.15287 20.9145 3.95753 21.0677C3.75047 21.2285 3.61764 21.4621 3.58639 21.7072C3.55904 21.9293 3.62155 22.1437 3.75828 22.3122C4.36774 23.0628 5.87965 23.2198 7.39155 23.3385C7.60643 21.8642 7.78614 20.3899 7.18059 19.6355C6.8954 19.287 6.29376 19.2411 5.89918 19.5474C5.53976 19.827 5.46553 20.095 5.57883 20.7001C5.59836 20.8034 5.55929 20.9107 5.47334 20.9758C5.3874 21.0409 5.2741 21.0562 5.17643 21.0141C4.89905 20.8954 4.6959 20.8417 4.52401 20.8417L4.5201 20.8456Z" fill="#2A2A2A"/>
</g>
<defs>
<clipPath id="clip0_15_358">
<rect width="31" height="29" fill="white" transform="translate(0 0.5)"/>
</clipPath>
</defs>
</svg>
