<svg width="41" height="41" viewBox="0 0 41 41" fill="none" xmlns="http://www.w3.org/2000/svg">
<g clip-path="url(#clip0_19_212)">
<path fill-rule="evenodd" clip-rule="evenodd" d="M40.8777 20.0067C40.8777 31.0485 31.9359 39.9996 20.9056 39.9996C9.87521 39.9996 0.93335 31.0485 0.93335 20.0067C0.93335 8.96488 9.87521 0.0137329 20.9056 0.0137329C31.9359 0.0137329 40.8777 8.96488 40.8777 20.0067ZM18.1491 21.2009L8.60265 8.42334H15.9603L22.2188 16.8001L29.9645 8.42334H32.1267L23.1848 18.0935L33.2686 31.5897H25.9109L19.1155 22.494L10.7047 31.5897H8.54248L18.1491 21.2009ZM15.1624 10.0175H11.7823L26.7085 29.9955H30.0885L15.1624 10.0175Z" fill="white"/>
</g>
<defs>
<clipPath id="clip0_19_212">
<rect width="40" height="40" fill="white" transform="translate(0.893921 0.00250244)"/>
</clipPath>
</defs>
</svg>
